<svg xmlns="http://www.w3.org/2000/svg" xmlns:xlink="http://www.w3.org/1999/xlink" width="500" zoomAndPan="magnify" viewBox="0 0 375 374.999991" height="500" preserveAspectRatio="xMidYMid meet" version="1.0"><defs><clipPath id="2d486c77d3"><path d="M 44 5 L 331.59375 5 L 331.59375 369.957031 L 44 369.957031 Z M 44 5 " clip-rule="nonzero"/></clipPath></defs><g clip-path="url(#2d486c77d3)"><path fill="#21040b" d="M 330.773438 239.863281 C 329.808594 232.734375 328.542969 225.085938 323.859375 219.296875 C 320.960938 215.359375 316.199219 212.316406 311.144531 212.613281 C 303.039062 211.277344 296.347656 218.777344 294.261719 225.976562 C 291.140625 237.855469 290.992188 250.332031 287.867188 262.285156 C 284.894531 274.757812 280.136719 287.527344 270.246094 296.214844 C 270.914062 286.191406 269.203125 275.5 263.777344 266.8125 C 260.207031 261.171875 254.851562 256.863281 251.65625 250.851562 C 244.21875 238.230469 246.003906 223.007812 247.191406 209.125 C 254.035156 206.15625 259.910156 201.402344 265.558594 196.652344 C 273.070312 189.375 280.285156 181.726562 286.382812 173.261719 C 292.628906 174.453125 297.980469 178.3125 303.335938 181.578125 C 305.640625 182.691406 306.980469 179.722656 306.53125 177.792969 C 301.253906 173.558594 295.304688 170.292969 288.984375 168.066406 C 291.660156 162.71875 295.007812 157.375 295.378906 151.359375 C 302.070312 150.542969 308.839844 150.097656 315.605469 150.023438 C 317.910156 149.949219 319.027344 146.015625 316.347656 145.570312 C 309.507812 144.160156 302.441406 145.421875 295.527344 146.164062 C 298.054688 142.75 300.511719 137.847656 297.386719 133.988281 C 294.261719 130.941406 289.578125 129.902344 285.339844 130.125 C 284.074219 121.21875 280.507812 112.753906 274.855469 105.699219 C 275.375 104.734375 276.640625 85.949219 275.972656 77.632812 C 274.113281 59.890625 269.351562 42.589844 264.148438 25.589844 C 261.769531 19.203125 259.6875 12.445312 255.148438 7.175781 C 252.992188 4.875 249.5 4.726562 246.597656 5.617188 C 241.246094 7.398438 236.410156 10.589844 231.578125 13.5625 C 213.582031 25.960938 199.453125 42.960938 187.109375 60.78125 C 185.101562 59.890625 183.019531 59.371094 180.863281 59.371094 C 172.757812 58.109375 164.503906 58.257812 156.398438 58.851562 C 149.261719 59.148438 142.195312 60.855469 135.726562 63.898438 C 134.535156 64.269531 133.347656 65.234375 132.15625 65.160156 C 125.984375 59.074219 119.960938 52.761719 113.269531 47.121094 C 104.71875 39.621094 95.941406 32.046875 85.679688 27 C 81.441406 24.921875 76.832031 22.691406 72 23.136719 C 67.984375 23.878906 66.050781 27.890625 64.265625 31.15625 C 60.992188 39.101562 60.546875 47.789062 59.953125 56.253906 C 57.5 80.976562 61.140625 105.996094 67.910156 129.828125 C 69.695312 136.363281 71.105469 143.121094 73.632812 149.429688 C 72.59375 153.738281 71.402344 157.96875 71.253906 162.421875 C 67.613281 162.421875 64.859375 165.542969 63.296875 168.511719 C 60.027344 174.378906 61.738281 181.726562 65.828125 186.703125 C 64.042969 186.628906 62.554688 187.890625 60.992188 188.632812 C 55.417969 191.304688 49.914062 194.421875 45.378906 198.730469 C 43.890625 199.769531 43.59375 202.8125 45.675781 203.257812 C 47.535156 203.40625 49.09375 202.070312 50.507812 201.03125 C 56.457031 196.949219 62.703125 193.160156 69.542969 190.785156 C 73.039062 194.125 76.90625 197.023438 81.144531 199.472656 C 74.304688 206.972656 66.941406 215.210938 65.605469 225.753906 C 65.304688 227.3125 67.089844 228.652344 68.429688 227.613281 C 70.511719 225.53125 71.253906 222.636719 72.742188 220.113281 C 75.867188 213.652344 80.625 208.085938 85.085938 202.589844 C 94.753906 210.757812 105.164062 218.554688 117.136719 223.15625 C 119.367188 224.046875 121.597656 225.53125 124.125 225.457031 C 122.191406 235.257812 119.367188 244.910156 115.945312 254.339844 C 113.640625 260.207031 109.476562 264.882812 105.757812 269.855469 C 97.652344 280.546875 96.015625 294.953125 98.324219 307.871094 C 100.105469 322.273438 104.570312 336.382812 111.558594 349.152344 C 114.980469 354.570312 118.996094 360.4375 125.464844 362.441406 C 134.386719 365.558594 144.871094 365.707031 153.5 361.625 C 155.804688 364.890625 159.746094 366.972656 163.613281 367.640625 C 164.949219 367.640625 166.289062 367.640625 167.703125 367.640625 C 172.535156 367.492188 176.847656 364.445312 178.410156 359.84375 C 178.410156 359.769531 178.410156 359.769531 178.410156 359.769531 L 179.152344 357.246094 C 179.226562 356.355469 179.226562 355.460938 179.226562 354.644531 C 181.753906 354.941406 185.546875 355.238281 189.042969 354.71875 C 189.042969 356.578125 189.117188 358.359375 189.414062 360.140625 C 189.488281 360.363281 189.488281 360.660156 189.5625 360.808594 C 189.5625 360.957031 189.636719 361.105469 189.636719 361.253906 C 190.234375 364.148438 192.390625 366.449219 195.214844 367.417969 C 201.609375 369.496094 208.824219 369.941406 214.699219 366.375 C 216.855469 364.59375 219.234375 362.8125 220.570312 360.289062 C 222.429688 360.660156 224.289062 361.105469 226.148438 361.625 C 229.421875 362.367188 232.765625 362.292969 236.039062 361.625 C 243.550781 360.140625 250.09375 355.609375 254.554688 349.300781 C 255.96875 347.296875 257.230469 345.214844 258.199219 343.0625 C 261.769531 342.914062 265.335938 342.097656 268.832031 341.28125 C 276.417969 339.054688 284.226562 337.050781 290.769531 332.445312 C 299.691406 327.027344 306.832031 319.15625 312.554688 310.542969 C 321.109375 297.179688 326.3125 281.960938 328.988281 266.367188 C 330.625 257.753906 331.59375 248.769531 330.773438 239.863281 Z M 330.773438 239.863281 " fill-opacity="1" fill-rule="nonzero"/></g><path fill="#f3f6ef" d="M 323.191406 265.847656 C 322.519531 271.046875 320.734375 276.019531 319.472656 281.070312 C 318.132812 286.265625 316.273438 291.3125 313.894531 296.140625 C 309.210938 305.496094 303.78125 314.554688 295.675781 321.382812 C 286.382812 330.21875 273.8125 335.195312 261.171875 336.753906 C 265.039062 332.074219 265.710938 325.839844 267.566406 320.269531 C 268.90625 315 269.875 309.503906 270.023438 304.085938 C 272.699219 303.789062 274.484375 301.261719 275.746094 299.035156 C 283.777344 291.609375 288.167969 281.292969 291.289062 271.046875 C 293 264.066406 295.15625 257.085938 296.121094 249.960938 C 298.578125 240.976562 296.347656 230.582031 302.070312 222.5625 C 304.375 219 308.839844 216.695312 313.078125 217.886719 C 318.355469 219.148438 321.628906 224.195312 323.339844 228.949219 C 326.984375 240.976562 325.644531 253.746094 323.191406 265.847656 Z M 214.324219 141.113281 C 213.804688 143.046875 211.203125 143.789062 209.566406 142.75 C 207.039062 141.410156 207.855469 137.105469 210.535156 136.4375 C 213.210938 135.398438 215.292969 138.886719 214.324219 141.113281 Z M 136.097656 146.535156 C 132.230469 148.019531 135.429688 154.777344 138.847656 152.847656 C 141.75 150.839844 139.816406 144.457031 136.097656 146.535156 Z M 293.148438 140.296875 C 292.105469 142.527344 290.992188 144.753906 290.398438 147.203125 C 287.644531 149.058594 283.851562 148.761719 281.027344 150.691406 C 279.09375 152.398438 281.398438 156.039062 283.703125 154.925781 C 285.710938 154.109375 288.015625 153.8125 289.726562 152.398438 C 288.167969 157.152344 286.457031 161.976562 284 166.359375 C 279.464844 164.875 274.78125 163.910156 270.097656 162.941406 C 267.269531 162.199219 265.632812 166.878906 268.609375 167.769531 C 272.847656 169.328125 277.457031 169.921875 281.84375 170.515625 C 279.539062 173.484375 264.222656 190.636719 253.214844 199.324219 C 247.789062 203.554688 241.542969 206.675781 235.148438 209.347656 C 221.910156 214.914062 207.558594 219.222656 193.28125 221.820312 C 185.84375 223.15625 178.335938 224.046875 170.75 224.417969 C 164.058594 224.789062 155.28125 223.230469 148.886719 225.457031 C 147.402344 225.828125 147.175781 228.207031 148.589844 228.875 C 150.449219 230.136719 152.902344 229.914062 154.984375 230.0625 C 170.378906 230.285156 185.84375 229.171875 200.941406 225.976562 C 213.433594 222.933594 225.703125 219 237.527344 214.097656 C 239.011719 213.429688 240.648438 212.910156 241.691406 211.574219 C 241.691406 212.242188 240.128906 224.566406 240.648438 229.320312 C 240.722656 235.257812 242.210938 241.050781 243.550781 246.765625 C 245.929688 252.410156 248.976562 257.976562 253.441406 262.285156 C 260.503906 269.558594 264.59375 279.582031 264.742188 289.679688 C 265.039062 294.210938 263.851562 298.664062 264.222656 303.195312 C 264.074219 312.25 261.84375 321.160156 258.199219 329.476562 C 255.074219 337.125 251.28125 344.695312 245.929688 351.082031 C 245.78125 351.230469 245.707031 351.378906 245.558594 351.527344 C 242.433594 354.273438 240.945312 354.199219 240.945312 354.199219 C 235.59375 355.832031 229.050781 358.210938 224.140625 354.421875 C 225.628906 342.320312 227.859375 330.292969 229.941406 318.265625 C 231.800781 308.910156 234.402344 299.703125 236.113281 290.347656 C 238.34375 280.324219 239.460938 270.078125 241.246094 259.984375 C 241.617188 258.273438 239.609375 256.195312 237.898438 257.308594 C 235.59375 259.015625 235.890625 262.0625 235.371094 264.511719 C 232.765625 278.320312 230.609375 292.28125 227.117188 305.941406 C 225.035156 316.855469 222.28125 327.695312 221.316406 338.832031 C 219.828125 345.066406 219.160156 351.75 215.367188 357.097656 C 210.832031 364.371094 202.578125 362.886719 201.238281 362.664062 C 198.113281 362.070312 195.734375 359.546875 195.363281 356.429688 C 194.472656 349.597656 194.769531 342.617188 195.363281 335.714844 C 195.882812 318.933594 198.710938 302.375 199.675781 285.597656 C 199.824219 283.445312 197.148438 282.257812 195.734375 283.816406 C 195.4375 284.1875 195.214844 284.632812 195.066406 285.152344 C 194.621094 292.429688 193.355469 299.554688 192.613281 306.757812 C 191.71875 318.414062 190.753906 330.070312 189.710938 341.652344 C 189.636719 344.101562 189.339844 346.628906 189.117188 349.152344 L 178.558594 348.410156 C 177.964844 339.425781 175.730469 312.992188 176.03125 300.816406 C 176.476562 295.769531 176.328125 290.71875 176.402344 285.671875 C 176.476562 283.964844 176.921875 282.183594 176.105469 280.546875 C 174.617188 279.507812 172.460938 280.324219 172.015625 282.109375 C 171.867188 285.746094 171.195312 289.382812 171.195312 293.023438 C 171.121094 302.226562 170.15625 311.433594 171.195312 320.566406 C 171.640625 332.148438 174.246094 343.878906 172.832031 355.386719 C 172.460938 358.507812 170.082031 361.03125 166.957031 361.625 L 166.882812 361.625 C 165.171875 361.921875 163.386719 361.773438 161.753906 361.105469 L 160.191406 360.511719 C 153.574219 355.683594 151.417969 347.445312 147.625 340.539062 C 135.578125 315.296875 133.125 261.765625 133.792969 257.605469 C 134.683594 255.007812 130.074219 253.96875 129.40625 256.417969 C 128.886719 258.273438 128.960938 260.132812 128.808594 262.0625 C 129.332031 285.449219 132.304688 308.835938 138.550781 331.480469 C 141.304688 340.390625 145.914062 348.484375 149.855469 356.875 C 147.402344 357.914062 144.722656 358.285156 142.195312 358.953125 C 136.023438 360.511719 127.25 357.839844 127.25 357.839844 C 120.109375 354.570312 115.574219 347.59375 112.75 340.464844 C 108.585938 332.222656 106.429688 323.164062 103.972656 314.332031 C 101.964844 303.789062 101.074219 292.578125 104.496094 282.257812 C 107.023438 275.128906 112.601562 269.855469 116.765625 263.769531 C 120.78125 256.492188 123.011719 248.472656 125.242188 240.53125 C 126.058594 235.851562 126.953125 231.25 128.214844 226.71875 C 130.894531 227.539062 133.570312 228.355469 136.320312 228.429688 C 137.734375 228.503906 138.105469 226.941406 138.773438 226.050781 C 138.476562 225.234375 138.402344 224.046875 137.4375 223.75 C 134.609375 222.785156 131.488281 222.636719 128.734375 221.300781 C 120.929688 220.261719 113.863281 216.175781 106.949219 212.613281 C 100.480469 208.605469 94.457031 203.925781 88.878906 198.730469 C 91.109375 196.875 94.605469 194.199219 93.191406 191.007812 C 89.546875 189.375 87.316406 194.050781 84.714844 195.761719 C 80.550781 193.382812 76.535156 190.488281 73.1875 186.925781 C 74.527344 186.035156 75.867188 184.621094 75.640625 182.839844 C 75.046875 181.652344 73.933594 180.09375 72.371094 180.6875 C 71.03125 181.28125 69.769531 182.097656 68.355469 182.617188 C 64.414062 177.792969 65.605469 170.144531 70.882812 166.804688 C 71.703125 166.804688 72.59375 166.953125 73.261719 167.398438 C 75.046875 166.65625 76.832031 165.246094 76.609375 163.015625 C 76.3125 158.042969 77.648438 153.21875 78.394531 148.316406 C 78.542969 146.535156 77.351562 145.050781 76.832031 143.34375 C 72.667969 131.015625 69.621094 118.320312 66.867188 105.625 C 65.082031 91.296875 63.222656 76.890625 64.265625 62.414062 C 64.859375 55.210938 65.378906 48.011719 66.273438 40.882812 C 66.867188 36.429688 68.28125 31.824219 71.625 28.707031 C 72.59375 27.667969 74.230469 28.1875 75.417969 28.410156 C 90.144531 33.160156 101.074219 43.851562 112.449219 53.058594 C 117.953125 57.960938 123.457031 62.785156 128.886719 67.761719 C 127.546875 69.320312 126.503906 71.175781 127.027344 73.328125 C 129.40625 75.109375 131.859375 73.03125 133.421875 71.25 C 144.871094 64.195312 158.777344 63.527344 171.792969 63.824219 C 176.847656 64.34375 182.054688 64.566406 186.960938 66.050781 C 189.414062 66.792969 190.902344 64.492188 192.242188 62.933594 C 203.839844 48.160156 215.292969 32.863281 230.535156 21.652344 C 235.890625 17.273438 241.839844 13.5625 248.234375 11.035156 C 249.796875 10.21875 251.65625 10.8125 252.695312 12.148438 C 256.785156 18.980469 258.867188 26.628906 261.394531 34.125 C 266.230469 51.128906 270.839844 68.355469 271.359375 86.097656 C 271.285156 90.480469 270.171875 106.515625 270.839844 107.703125 C 275.375 113.867188 279.019531 124.484375 280.582031 132.132812 L 281.546875 135.917969 L 286.605469 135.917969 C 288.910156 135.84375 291.511719 135.398438 293.445312 137.03125 C 294.339844 137.847656 293.59375 139.257812 293.148438 140.296875 Z M 113.714844 78.082031 C 112.152344 76.964844 109.625 77.335938 108.359375 78.972656 C 104.644531 71.175781 103.898438 70.507812 100.777344 66.71875 C 97.132812 62.042969 92.96875 57.21875 87.761719 53.875 C 85.902344 52.613281 83.449219 54.914062 84.789062 56.699219 C 85.234375 57.292969 85.753906 57.886719 86.203125 58.480469 C 93.042969 65.605469 96.316406 66.570312 104.195312 81.570312 C 84.492188 95.824219 88.433594 100.355469 89.101562 100.503906 C 89.992188 100.726562 94.53125 92.1875 113.640625 79.9375 C 114.234375 79.417969 114.308594 78.527344 113.714844 78.082031 Z M 148.144531 156.261719 C 147.699219 150.988281 146.136719 145.421875 142.121094 141.78125 C 140.039062 140.296875 137.289062 139.183594 134.683594 140.074219 C 132.230469 140.816406 130.667969 143.046875 130.074219 145.421875 C 128.363281 151.210938 129.183594 157.523438 131.265625 163.164062 C 132.75 167.769531 138.03125 170.589844 142.714844 169.847656 C 147.550781 167.25 148.664062 161.234375 148.144531 156.261719 Z M 201.460938 172.890625 C 201.535156 171.628906 200.496094 169.921875 199.007812 170.367188 C 197 170.738281 196.703125 173.113281 195.660156 174.453125 C 192.910156 178.90625 184.285156 177.125 184.210938 171.703125 C 185.621094 167.992188 188.300781 163.835938 186.441406 159.824219 C 181.753906 156.632812 176.328125 159.972656 171.714844 161.679688 C 170.75 166.210938 175.433594 168.882812 177.367188 172.296875 C 177.515625 176.679688 174.023438 180.984375 169.558594 181.058594 C 167.179688 181.355469 166.214844 177.867188 163.6875 178.460938 C 161.230469 179.574219 162.050781 183.359375 163.761719 184.773438 C 170.082031 189.003906 180.417969 184.472656 180.9375 176.753906 C 182.648438 180.6875 187.257812 182.617188 191.421875 182.394531 C 196.628906 182.691406 201.757812 178.238281 201.460938 172.890625 Z M 222.726562 148.910156 C 222.355469 143.863281 221.242188 138.738281 218.488281 134.433594 C 216.480469 131.464844 212.691406 129.382812 209.121094 130.644531 C 205.328125 131.6875 203.46875 135.695312 203.171875 139.257812 C 202.726562 144.234375 202.949219 149.503906 204.957031 154.183594 C 206.144531 157.152344 207.929688 160.34375 211.054688 161.605469 C 213.65625 161.605469 216.78125 162.050781 218.863281 160.121094 C 222.28125 157.597656 222.953125 152.921875 222.726562 148.910156 Z M 221.09375 68.058594 C 226.371094 52.019531 229.421875 50.460938 234.996094 42.292969 C 235.296875 41.625 235.742188 40.957031 236.039062 40.289062 C 237.078125 38.359375 234.253906 36.503906 232.617188 38.0625 C 228.007812 42.21875 224.734375 47.714844 221.984375 52.910156 C 219.605469 57.144531 218.9375 57.960938 216.554688 66.273438 C 214.996094 64.863281 212.464844 64.9375 211.128906 66.273438 C 210.609375 66.792969 210.832031 67.6875 211.574219 67.984375 C 232.46875 76.890625 238.34375 84.539062 239.164062 84.167969 C 239.757812 83.945312 242.878906 78.898438 221.09375 68.058594 Z M 214.324219 141.113281 C 213.804688 143.046875 211.203125 143.789062 209.566406 142.75 C 207.039062 141.410156 207.855469 137.105469 210.535156 136.4375 C 213.210938 135.398438 215.292969 138.886719 214.324219 141.113281 Z M 136.097656 146.535156 C 132.230469 148.019531 135.429688 154.777344 138.847656 152.847656 C 141.75 150.839844 139.816406 144.457031 136.097656 146.535156 Z M 293.148438 140.296875 C 292.105469 142.527344 290.992188 144.753906 290.398438 147.203125 C 287.644531 149.058594 283.851562 148.761719 281.027344 150.691406 C 279.09375 152.398438 281.398438 156.039062 283.703125 154.925781 C 285.710938 154.109375 288.015625 153.8125 289.726562 152.398438 C 288.167969 157.152344 286.457031 161.976562 284 166.359375 C 279.464844 164.875 274.78125 163.910156 270.097656 162.941406 C 267.269531 162.199219 265.632812 166.878906 268.609375 167.769531 C 272.847656 169.328125 277.457031 169.921875 281.84375 170.515625 C 279.539062 173.484375 264.222656 190.636719 253.214844 199.324219 C 247.789062 203.554688 241.542969 206.675781 235.148438 209.347656 C 221.910156 214.914062 207.558594 219.222656 193.28125 221.820312 C 185.84375 223.15625 178.335938 224.046875 170.75 224.417969 C 164.058594 224.789062 155.28125 223.230469 148.886719 225.457031 C 147.402344 225.828125 147.175781 228.207031 148.589844 228.875 C 150.449219 230.136719 152.902344 229.914062 154.984375 230.0625 C 170.378906 230.285156 185.84375 229.171875 200.941406 225.976562 C 213.433594 222.933594 225.703125 219 237.527344 214.097656 C 239.011719 213.429688 240.648438 212.910156 241.691406 211.574219 C 241.691406 212.242188 240.128906 224.566406 240.648438 229.320312 C 240.722656 235.257812 242.210938 241.050781 243.550781 246.765625 C 245.929688 252.410156 248.976562 257.976562 253.441406 262.285156 C 260.503906 269.558594 264.59375 279.582031 264.742188 289.679688 C 265.039062 294.210938 263.851562 298.664062 264.222656 303.195312 C 264.074219 312.25 261.84375 321.160156 258.199219 329.476562 C 255.074219 337.125 251.28125 344.695312 245.929688 351.082031 C 245.78125 351.230469 245.707031 351.378906 245.558594 351.527344 C 242.433594 354.273438 240.945312 354.199219 240.945312 354.199219 C 235.59375 355.832031 229.050781 358.210938 224.140625 354.421875 C 225.628906 342.320312 227.859375 330.292969 229.941406 318.265625 C 231.800781 308.910156 234.402344 299.703125 236.113281 290.347656 C 238.34375 280.324219 239.460938 270.078125 241.246094 259.984375 C 241.617188 258.273438 239.609375 256.195312 237.898438 257.308594 C 235.59375 259.015625 235.890625 262.0625 235.371094 264.511719 C 232.765625 278.320312 230.609375 292.28125 227.117188 305.941406 C 225.035156 316.855469 222.28125 327.695312 221.316406 338.832031 C 219.828125 345.066406 219.160156 351.75 215.367188 357.097656 C 210.832031 364.371094 202.578125 362.886719 201.238281 362.664062 C 198.113281 362.070312 195.734375 359.546875 195.363281 356.429688 C 194.472656 349.597656 194.769531 342.617188 195.363281 335.714844 C 195.882812 318.933594 198.710938 302.375 199.675781 285.597656 C 199.824219 283.445312 197.148438 282.257812 195.734375 283.816406 C 195.4375 284.1875 195.214844 284.632812 195.066406 285.152344 C 194.621094 292.429688 193.355469 299.554688 192.613281 306.757812 C 191.71875 318.414062 190.753906 330.070312 189.710938 341.652344 C 189.636719 344.101562 189.339844 346.628906 189.117188 349.152344 L 178.558594 348.410156 C 177.964844 339.425781 175.730469 312.992188 176.03125 300.816406 C 176.476562 295.769531 176.328125 290.71875 176.402344 285.671875 C 176.476562 283.964844 176.921875 282.183594 176.105469 280.546875 C 174.617188 279.507812 172.460938 280.324219 172.015625 282.109375 C 171.867188 285.746094 171.195312 289.382812 171.195312 293.023438 C 171.121094 302.226562 170.15625 311.433594 171.195312 320.566406 C 171.640625 332.148438 174.246094 343.878906 172.832031 355.386719 C 172.460938 358.507812 170.082031 361.03125 166.957031 361.625 L 166.882812 361.625 C 165.171875 361.921875 163.386719 361.773438 161.753906 361.105469 L 160.191406 360.511719 C 153.574219 355.683594 151.417969 347.445312 147.625 340.539062 C 135.578125 315.296875 133.125 261.765625 133.792969 257.605469 C 134.683594 255.007812 130.074219 253.96875 129.40625 256.417969 C 128.886719 258.273438 128.960938 260.132812 128.808594 262.0625 C 129.332031 285.449219 132.304688 308.835938 138.550781 331.480469 C 141.304688 340.390625 145.914062 348.484375 149.855469 356.875 C 147.402344 357.914062 144.722656 358.285156 142.195312 358.953125 C 136.023438 360.511719 127.25 357.839844 127.25 357.839844 C 120.109375 354.570312 115.574219 347.59375 112.75 340.464844 C 108.585938 332.222656 106.429688 323.164062 103.972656 314.332031 C 101.964844 303.789062 101.074219 292.578125 104.496094 282.257812 C 107.023438 275.128906 112.601562 269.855469 116.765625 263.769531 C 120.78125 256.492188 123.011719 248.472656 125.242188 240.53125 C 126.058594 235.851562 126.953125 231.25 128.214844 226.71875 C 130.894531 227.539062 133.570312 228.355469 136.320312 228.429688 C 137.734375 228.503906 138.105469 226.941406 138.773438 226.050781 C 138.476562 225.234375 138.402344 224.046875 137.4375 223.75 C 134.609375 222.785156 131.488281 222.636719 128.734375 221.300781 C 120.929688 220.261719 113.863281 216.175781 106.949219 212.613281 C 100.480469 208.605469 94.457031 203.925781 88.878906 198.730469 C 91.109375 196.875 94.605469 194.199219 93.191406 191.007812 C 89.546875 189.375 87.316406 194.050781 84.714844 195.761719 C 80.550781 193.382812 76.535156 190.488281 73.1875 186.925781 C 74.527344 186.035156 75.867188 184.621094 75.640625 182.839844 C 75.046875 181.652344 73.933594 180.09375 72.371094 180.6875 C 71.03125 181.28125 69.769531 182.097656 68.355469 182.617188 C 64.414062 177.792969 65.605469 170.144531 70.882812 166.804688 C 71.703125 166.804688 72.59375 166.953125 73.261719 167.398438 C 75.046875 166.65625 76.832031 165.246094 76.609375 163.015625 C 76.3125 158.042969 77.648438 153.21875 78.394531 148.316406 C 78.542969 146.535156 77.351562 145.050781 76.832031 143.34375 C 72.667969 131.015625 69.621094 118.320312 66.867188 105.625 C 65.082031 91.296875 63.222656 76.890625 64.265625 62.414062 C 64.859375 55.210938 65.378906 48.011719 66.273438 40.882812 C 66.867188 36.429688 68.28125 31.824219 71.625 28.707031 C 72.59375 27.667969 74.230469 28.1875 75.417969 28.410156 C 90.144531 33.160156 101.074219 43.851562 112.449219 53.058594 C 117.953125 57.960938 123.457031 62.785156 128.886719 67.761719 C 127.546875 69.320312 126.503906 71.175781 127.027344 73.328125 C 129.40625 75.109375 131.859375 73.03125 133.421875 71.25 C 144.871094 64.195312 158.777344 63.527344 171.792969 63.824219 C 176.847656 64.34375 182.054688 64.566406 186.960938 66.050781 C 189.414062 66.792969 190.902344 64.492188 192.242188 62.933594 C 203.839844 48.160156 215.292969 32.863281 230.535156 21.652344 C 235.890625 17.273438 241.839844 13.5625 248.234375 11.035156 C 249.796875 10.21875 251.65625 10.8125 252.695312 12.148438 C 256.785156 18.980469 258.867188 26.628906 261.394531 34.125 C 266.230469 51.128906 270.839844 68.355469 271.359375 86.097656 C 271.285156 90.480469 270.171875 106.515625 270.839844 107.703125 C 275.375 113.867188 279.019531 124.484375 280.582031 132.132812 L 281.546875 135.917969 L 286.605469 135.917969 C 288.910156 135.84375 291.511719 135.398438 293.445312 137.03125 C 294.339844 137.847656 293.59375 139.257812 293.148438 140.296875 Z M 113.714844 78.082031 C 112.152344 76.964844 109.625 77.335938 108.359375 78.972656 C 104.644531 71.175781 103.898438 70.507812 100.777344 66.71875 C 97.132812 62.042969 92.96875 57.21875 87.761719 53.875 C 85.902344 52.613281 83.449219 54.914062 84.789062 56.699219 C 85.234375 57.292969 85.753906 57.886719 86.203125 58.480469 C 93.042969 65.605469 96.316406 66.570312 104.195312 81.570312 C 84.492188 95.824219 88.433594 100.355469 89.101562 100.503906 C 89.992188 100.726562 94.53125 92.1875 113.640625 79.9375 C 114.234375 79.417969 114.308594 78.527344 113.714844 78.082031 Z M 148.144531 156.261719 C 147.699219 150.988281 146.136719 145.421875 142.121094 141.78125 C 140.039062 140.296875 137.289062 139.183594 134.683594 140.074219 C 132.230469 140.816406 130.667969 143.046875 130.074219 145.421875 C 128.363281 151.210938 129.183594 157.523438 131.265625 163.164062 C 132.75 167.769531 138.03125 170.589844 142.714844 169.847656 C 147.550781 167.25 148.664062 161.234375 148.144531 156.261719 Z M 201.460938 172.890625 C 201.535156 171.628906 200.496094 169.921875 199.007812 170.367188 C 197 170.738281 196.703125 173.113281 195.660156 174.453125 C 192.910156 178.90625 184.285156 177.125 184.210938 171.703125 C 185.621094 167.992188 188.300781 163.835938 186.441406 159.824219 C 181.753906 156.632812 176.328125 159.972656 171.714844 161.679688 C 170.75 166.210938 175.433594 168.882812 177.367188 172.296875 C 177.515625 176.679688 174.023438 180.984375 169.558594 181.058594 C 167.179688 181.355469 166.214844 177.867188 163.6875 178.460938 C 161.230469 179.574219 162.050781 183.359375 163.761719 184.773438 C 170.082031 189.003906 180.417969 184.472656 180.9375 176.753906 C 182.648438 180.6875 187.257812 182.617188 191.421875 182.394531 C 196.628906 182.691406 201.757812 178.238281 201.460938 172.890625 Z M 222.726562 148.910156 C 222.355469 143.863281 221.242188 138.738281 218.488281 134.433594 C 216.480469 131.464844 212.691406 129.382812 209.121094 130.644531 C 205.328125 131.6875 203.46875 135.695312 203.171875 139.257812 C 202.726562 144.234375 202.949219 149.503906 204.957031 154.183594 C 206.144531 157.152344 207.929688 160.34375 211.054688 161.605469 C 213.65625 161.605469 216.78125 162.050781 218.863281 160.121094 C 222.28125 157.597656 222.953125 152.921875 222.726562 148.910156 Z M 221.09375 68.058594 C 226.371094 52.019531 229.421875 50.460938 234.996094 42.292969 C 235.296875 41.625 235.742188 40.957031 236.039062 40.289062 C 237.078125 38.359375 234.253906 36.503906 232.617188 38.0625 C 228.007812 42.21875 224.734375 47.714844 221.984375 52.910156 C 219.605469 57.144531 218.9375 57.960938 216.554688 66.273438 C 214.996094 64.863281 212.464844 64.9375 211.128906 66.273438 C 210.609375 66.792969 210.832031 67.6875 211.574219 67.984375 C 232.46875 76.890625 238.34375 84.539062 239.164062 84.167969 C 239.757812 83.945312 242.878906 78.898438 221.09375 68.058594 Z M 221.09375 68.058594 " fill-opacity="1" fill-rule="nonzero"/><path fill="#cfc594" d="M 184.433594 237.707031 C 145.320312 241.570312 128.660156 226.792969 128.660156 226.792969 C 131.339844 227.613281 134.015625 228.429688 136.765625 228.503906 C 137.140625 228.503906 137.511719 228.429688 137.734375 228.207031 C 143.3125 229.023438 150.003906 229.914062 153.351562 229.988281 C 153.945312 229.988281 154.539062 230.0625 155.058594 230.0625 C 170.453125 230.285156 185.917969 229.171875 201.015625 225.976562 C 213.507812 222.933594 225.777344 219 237.601562 214.097656 C 239.085938 213.429688 240.722656 212.910156 241.765625 211.574219 C 241.914062 211.574219 223.546875 233.773438 184.433594 237.707031 Z M 225.257812 348.039062 C 224.960938 350.191406 224.660156 352.34375 224.363281 354.496094 C 229.273438 358.285156 235.890625 355.984375 241.167969 354.273438 C 241.167969 354.273438 242.65625 354.347656 245.78125 351.601562 C 245.929688 351.453125 246.078125 351.304688 246.152344 351.15625 C 251.507812 344.769531 255.222656 337.199219 258.421875 329.550781 C 261.992188 321.234375 264.222656 312.324219 264.445312 303.269531 C 264.074219 298.738281 265.261719 294.285156 264.964844 289.753906 C 250.316406 354.71875 225.628906 348.113281 225.257812 348.039062 Z M 127.546875 357.988281 C 127.546875 357.988281 136.320312 360.660156 142.492188 359.101562 C 145.09375 358.433594 147.699219 357.988281 150.152344 357.023438 C 148.960938 354.421875 147.699219 351.898438 146.433594 349.375 C 146.433594 349.375 136.171875 353.085938 125.984375 343.953125 C 115.796875 334.824219 102.859375 294.359375 102.710938 293.988281 C 102.261719 300.816406 103.082031 307.796875 104.347656 314.480469 C 106.800781 323.3125 108.957031 332.371094 113.121094 340.613281 C 115.945312 347.742188 120.40625 354.71875 127.546875 357.988281 Z M 221.09375 341.207031 C 221.09375 341.207031 215.070312 347.816406 206.667969 347.445312 C 198.1875 347.074219 195.363281 339.722656 195.363281 339.722656 C 194.992188 345.367188 194.917969 351.082031 195.660156 356.652344 C 196.105469 359.769531 198.488281 362.292969 201.535156 362.886719 C 202.875 363.109375 211.128906 364.59375 215.664062 357.320312 C 219.011719 352.566406 219.902344 346.777344 221.09375 341.207031 Z M 178.78125 348.558594 L 189.339844 349.300781 C 189.5625 347.371094 189.710938 345.441406 189.859375 343.507812 L 179.078125 343.507812 L 178.335938 343.136719 C 178.558594 345.292969 178.707031 347.148438 178.78125 348.558594 Z M 162.050781 361.253906 C 163.6875 361.921875 165.46875 362.070312 167.179688 361.773438 L 167.253906 361.773438 C 170.378906 361.179688 172.757812 358.65625 173.128906 355.535156 C 173.722656 350.488281 173.574219 345.441406 173.128906 340.316406 C 173.128906 340.316406 171.046875 344.917969 162.125 346.332031 C 153.199219 347.742188 147.996094 340.613281 147.996094 340.613281 C 151.789062 347.519531 153.871094 355.757812 160.5625 360.585938 Z M 261.171875 336.753906 C 273.8125 335.195312 286.382812 330.21875 295.675781 321.382812 C 303.78125 314.628906 309.210938 305.496094 313.894531 296.140625 C 316.273438 291.3125 318.207031 286.265625 319.472656 281.070312 C 320.734375 276.019531 322.445312 271.046875 323.191406 265.847656 C 324.453125 259.6875 325.421875 253.300781 325.570312 246.914062 C 325.050781 249.738281 316.871094 295.84375 293.816406 312.546875 C 270.023438 329.773438 269.949219 304.011719 269.949219 304.011719 C 269.875 309.503906 268.90625 314.925781 267.492188 320.195312 C 265.710938 325.839844 264.964844 332.148438 261.171875 336.753906 Z M 261.171875 336.753906 " fill-opacity="1" fill-rule="nonzero"/><path fill="#dab185" d="M 281.472656 135.84375 L 280.507812 132.058594 C 278.945312 124.410156 275.300781 113.792969 270.765625 107.628906 C 270.097656 106.441406 271.210938 90.40625 271.285156 86.023438 C 270.839844 68.28125 266.15625 51.054688 261.320312 34.050781 C 258.792969 26.628906 256.710938 18.90625 252.621094 12.074219 C 251.582031 10.738281 249.722656 10.21875 248.160156 10.960938 C 241.691406 13.414062 235.742188 17.125 230.460938 21.578125 C 215.21875 32.789062 203.765625 48.085938 192.167969 62.859375 C 190.828125 64.417969 189.339844 66.71875 186.886719 65.976562 C 181.980469 64.492188 176.773438 64.269531 171.714844 63.75 C 158.628906 63.453125 144.722656 64.195312 133.347656 71.175781 C 133.347656 71.175781 179.449219 67.019531 185.324219 93.449219 C 191.199219 119.804688 173.054688 150.46875 210.832031 167.324219 C 248.605469 184.175781 284.375 160.714844 281.472656 135.84375 Z M 218.863281 160.269531 C 216.78125 162.199219 213.65625 161.753906 211.054688 161.753906 C 207.929688 160.417969 206.144531 157.300781 204.957031 154.332031 C 202.949219 149.652344 202.726562 144.457031 203.171875 139.40625 C 203.46875 135.769531 205.328125 131.761719 209.121094 130.792969 C 212.691406 129.53125 216.480469 131.613281 218.488281 134.582031 C 221.316406 138.8125 222.355469 144.011719 222.726562 149.058594 C 222.953125 152.921875 222.28125 157.597656 218.863281 160.269531 Z M 239.085938 84.242188 C 238.195312 84.613281 232.394531 76.964844 211.5 68.058594 C 210.757812 67.761719 210.535156 66.867188 211.054688 66.347656 C 212.390625 65.011719 214.996094 64.9375 216.480469 66.347656 C 218.863281 58.035156 219.53125 57.292969 221.910156 52.984375 C 224.660156 47.789062 227.933594 42.292969 232.542969 38.136719 C 234.179688 36.578125 237.003906 38.433594 235.964844 40.363281 C 235.59375 41.03125 235.222656 41.699219 234.921875 42.367188 C 229.421875 50.535156 226.296875 52.019531 221.019531 68.132812 C 242.878906 78.898438 239.757812 83.945312 239.085938 84.242188 Z M 296.046875 249.960938 C 297.3125 245.355469 297.3125 240.308594 297.832031 235.40625 C 299.691406 238.15625 303.113281 241.71875 308.09375 242.3125 C 316.199219 243.277344 317.613281 244.316406 316.199219 249.589844 C 314.789062 254.933594 301.105469 255.378906 296.046875 249.960938 Z M 311.664062 271.046875 C 310.25 276.316406 296.570312 276.761719 291.511719 271.34375 C 291.4375 271.269531 291.363281 271.121094 291.289062 271.046875 C 292.332031 266.8125 293.519531 262.65625 294.488281 258.347656 C 296.496094 260.726562 299.46875 263.25 303.558594 263.695312 C 311.664062 264.734375 313.078125 265.773438 311.664062 271.046875 Z M 311.664062 271.046875 " fill-opacity="1" fill-rule="nonzero"/><path fill="#e086bc" d="M 88.804688 96.566406 C 76.3125 82.089844 84.34375 55.136719 84.34375 55.136719 C 84.34375 55.136719 84.417969 55.136719 84.417969 55.136719 C 84.269531 55.582031 84.34375 56.175781 84.714844 56.625 C 85.160156 57.21875 85.679688 57.8125 86.128906 58.40625 C 92.96875 65.53125 96.242188 66.496094 104.121094 81.496094 C 93.933594 88.847656 90.070312 93.671875 88.804688 96.566406 Z M 234.996094 42.292969 C 229.496094 50.460938 226.371094 51.945312 221.09375 68.058594 C 237.230469 76 239.683594 80.902344 239.609375 82.980469 C 249.199219 59.519531 236.039062 40.289062 236.039062 40.289062 C 235.742188 41.03125 235.296875 41.699219 234.996094 42.292969 Z M 234.996094 42.292969 " fill-opacity="1" fill-rule="nonzero"/></svg>