<svg xmlns="http://www.w3.org/2000/svg" xmlns:xlink="http://www.w3.org/1999/xlink" width="500" zoomAndPan="magnify" viewBox="0 0 375 374.999991" height="500" preserveAspectRatio="xMidYMid meet" version="1.0"><path fill="#380414" d="M 240.597656 342.328125 C 250.441406 342.496094 260.398438 342.363281 270.207031 344.351562 C 267.246094 346.128906 263.980469 346.09375 260.816406 346.261719 C 228.5625 347.984375 196.277344 347.800781 163.992188 347.816406 C 143.269531 347.816406 122.566406 347.667969 101.894531 346.277344 C 99.132812 346.09375 96.289062 346.078125 93.695312 344.4375 C 98.199219 342.996094 102.882812 343.046875 107.753906 342.8125 C 104.238281 338.5625 103.46875 334.042969 105.261719 329.105469 C 105.578125 328.21875 105.476562 327.785156 104.65625 327.148438 C 91.6875 316.871094 85.628906 303.097656 84.390625 286.914062 C 82.847656 266.347656 89.527344 247.988281 99.738281 230.632812 C 101.980469 226.816406 104.539062 223.183594 106.984375 219.46875 C 107.621094 218.515625 108.003906 217.59375 107.90625 216.339844 C 106.332031 199.167969 109.613281 182.902344 117.394531 167.585938 C 119.988281 162.464844 121.0625 157.144531 121.246094 151.519531 C 121.277344 150.464844 120.992188 149.679688 120.308594 148.910156 C 116.84375 145.027344 113.964844 140.757812 112.039062 135.90625 C 111.621094 134.835938 111.21875 134.5 109.945312 134.96875 C 106.414062 136.273438 102.765625 137.296875 99.183594 138.5 C 97.914062 138.933594 96.722656 139.136719 96.15625 137.648438 C 95.585938 136.175781 96.304688 135.167969 97.730469 134.632812 C 101.261719 133.277344 104.808594 131.988281 108.492188 131.070312 C 109.460938 130.820312 110.398438 130.75 109.945312 129.0625 C 106.96875 117.882812 108.289062 106.96875 112.425781 96.324219 C 113.460938 93.664062 113.714844 91.070312 113.480469 88.292969 C 112.257812 74.367188 112.859375 60.511719 115.488281 46.769531 C 115.703125 45.664062 115.957031 44.5625 116.339844 43.507812 C 117.898438 39.304688 121.378906 37.515625 125.832031 38.703125 C 132.273438 40.425781 138.097656 43.488281 143.738281 46.953125 C 148.695312 50.015625 153.398438 53.429688 157.816406 57.214844 C 158.652344 57.933594 159.339844 58.285156 160.59375 58 C 171.304688 55.671875 182.085938 55.605469 192.8125 57.882812 C 194.957031 58.335938 196.144531 57.246094 197.5 56.140625 C 205.316406 49.832031 213.550781 44.210938 222.824219 40.226562 C 223.996094 39.722656 225.21875 39.253906 226.457031 38.921875 C 231.578125 37.546875 235.511719 39.957031 236.378906 45.179688 C 237.769531 53.515625 237.921875 61.917969 237.601562 70.335938 C 237.335938 77.28125 236.917969 84.226562 235.929688 91.105469 C 235.710938 92.675781 235.980469 94.132812 236.515625 95.605469 C 240.53125 106.332031 242.039062 117.3125 239.542969 128.625 C 239.277344 129.832031 239.726562 130 240.648438 130.183594 C 244.917969 131.050781 249.015625 132.476562 253.085938 134.046875 C 253.6875 134.28125 254.304688 134.484375 254.859375 134.800781 C 255.894531 135.421875 256.734375 136.207031 256.011719 137.546875 C 255.410156 138.683594 254.523438 139.050781 253.183594 138.601562 C 248.851562 137.128906 244.449219 135.824219 240.128906 134.316406 C 238.539062 133.765625 237.921875 134.183594 237.335938 135.6875 C 234.941406 141.765625 231.425781 147.136719 226.757812 151.738281 C 226.253906 152.242188 225.71875 152.691406 225.667969 153.527344 C 225.402344 157.410156 225.285156 161.246094 227.089844 164.910156 C 232.078125 175.035156 235.308594 185.710938 236.632812 196.941406 C 237.453125 203.953125 237.535156 210.984375 236.496094 217.980469 C 236.214844 219.902344 236.429688 221.578125 237.417969 223.300781 C 242.65625 232.472656 247.410156 241.894531 251.144531 251.785156 C 251.460938 252.625 251.511719 253.425781 253.035156 253.242188 C 271.226562 251.03125 283.695312 262.414062 287.597656 276.421875 C 292.097656 292.605469 289.640625 307.867188 278.507812 320.988281 C 271.613281 329.125 262.308594 333.207031 251.964844 335.113281 C 250.691406 335.347656 249.386719 335.75 248.148438 335.617188 C 243.328125 335.113281 241.550781 338.128906 240.597656 342.328125 Z M 240.597656 342.328125 " fill-opacity="1" fill-rule="nonzero"/><path fill="#fefefe" d="M 204.929688 319.582031 C 204.796875 321.007812 204.832031 322.414062 204.460938 323.851562 C 204.011719 325.609375 204.296875 327.316406 205.953125 328.804688 C 208.847656 331.417969 210.707031 334.695312 210.65625 338.761719 C 210.640625 340.320312 210.152344 341.625 208.328125 342.160156 C 208.414062 340.269531 209.03125 338.445312 208.3125 336.65625 C 208.042969 335.984375 207.808594 335.28125 207.410156 334.714844 C 206.941406 334.042969 206.285156 333.507812 205.367188 334.011719 C 204.460938 334.480469 204.832031 335.25 205 335.917969 C 205.214844 336.855469 205.632812 337.777344 205.71875 338.714844 C 205.835938 340.019531 205.703125 341.523438 204.480469 342.160156 C 203.125 342.878906 201.449219 342.527344 199.945312 342.445312 C 199.273438 342.410156 199.792969 341.691406 199.859375 341.273438 C 200.195312 339.332031 200.210938 337.40625 199.308594 335.601562 C 198.871094 334.714844 198.269531 333.808594 197.066406 334.261719 C 195.84375 334.714844 195.992188 335.699219 196.34375 336.6875 C 196.5625 337.289062 196.8125 337.894531 196.929688 338.527344 C 197.367188 340.90625 195.757812 342.847656 193.398438 342.847656 C 191.777344 342.847656 190.167969 342.847656 188.546875 342.78125 C 185.53125 342.664062 183.910156 341.359375 183.425781 338.363281 C 182.136719 330.261719 182.101562 322.078125 182.300781 313.910156 C 182.753906 294.480469 185.199219 275.265625 189.230469 256.253906 C 189.566406 254.664062 189.835938 252.992188 187.894531 252.085938 C 186.988281 250.480469 187.675781 248.757812 187.574219 247.101562 C 187.375 243.851562 186.351562 242.613281 183.089844 242.816406 C 178.972656 243.066406 174.871094 243.234375 170.753906 243.25 C 167.839844 243.269531 164.945312 242.933594 162.050781 242.78125 C 157.515625 242.566406 156.226562 243.835938 156.175781 248.339844 C 156.058594 256.671875 156.945312 264.957031 157.867188 273.207031 C 159.90625 291.667969 162.015625 310.128906 161.53125 328.753906 C 161.429688 332.703125 160.660156 336.636719 161.144531 340.605469 C 161.214844 341.089844 160.960938 341.542969 160.710938 341.960938 C 157.515625 343.75 154.050781 343.046875 150.851562 342.460938 C 148.945312 342.128906 149.144531 339.617188 149.582031 337.84375 C 149.898438 336.570312 151.085938 334.929688 149.164062 334.394531 C 147.4375 333.925781 146.917969 335.734375 146.46875 337.140625 C 146.132812 338.175781 146.25 339.214844 146.167969 340.253906 C 146.101562 341.023438 147.605469 342.410156 145.933594 342.460938 C 144.375 342.511719 142 343.566406 141.3125 340.789062 C 140.910156 339.113281 140.792969 337.441406 141.746094 335.882812 C 142.265625 335.046875 142.535156 334.210938 141.414062 333.660156 C 140.375 333.140625 139.757812 333.777344 139.253906 334.597656 C 137.765625 337.039062 138.300781 339.683594 138.601562 342.328125 C 135.972656 341.308594 134.867188 339.046875 135.640625 336.050781 C 136.308594 333.441406 137.546875 331.046875 139.589844 329.242188 C 140.996094 328.003906 141.179688 326.679688 141.046875 324.9375 C 138.851562 296.621094 131.304688 269.675781 120.191406 243.636719 C 114.667969 230.714844 111.769531 217.261719 112.609375 203.117188 C 113.328125 191.035156 116.742188 179.703125 122.164062 168.925781 C 123.472656 166.332031 124.710938 163.722656 125.363281 160.875 C 126.398438 160.558594 127.269531 161.09375 128.140625 161.460938 C 141.53125 167.269531 155.625 169.730469 170.085938 170.835938 C 181.03125 171.671875 191.875 170.71875 202.753906 169.878906 C 205.46875 169.679688 208.09375 170.015625 210.65625 170.835938 C 213.703125 171.820312 215.625 174.015625 216.832031 176.941406 C 219.542969 183.519531 220.765625 190.433594 221.667969 197.425781 C 223.910156 214.816406 221.402344 231.753906 216.882812 248.507812 C 212.363281 265.226562 207.910156 281.960938 205.953125 299.214844 C 205.28125 305.074219 204.730469 310.949219 204.664062 316.855469 C 204.648438 318.078125 204.480469 319.230469 204.027344 320.4375 C 203.910156 320.65625 204.597656 320.519531 204.3125 320.386719 C 204.210938 320.335938 204.195312 320.269531 204.195312 320.1875 C 204.179688 319.632812 204.429688 319.433594 204.929688 319.582031 Z M 204.929688 319.582031 " fill-opacity="1" fill-rule="nonzero"/><path fill="#fefefe" d="M 228.179688 128.84375 C 227.308594 130.082031 227.558594 131.167969 228.632812 132.15625 C 228.898438 132.476562 229.015625 132.84375 229 133.261719 C 226.085938 138.886719 221.433594 142.851562 216.210938 146.183594 C 206.1875 152.59375 195.054688 155.605469 183.308594 156.726562 C 168.8125 158.113281 154.769531 156.273438 141.230469 150.933594 C 134.433594 148.257812 127.957031 144.960938 122.71875 139.6875 C 121.878906 138.851562 120.375 138.800781 120.074219 137.378906 C 121.847656 135.121094 124.125 133.460938 126.667969 132.175781 C 128.558594 131.824219 130.265625 131.304688 129.445312 128.742188 C 129.378906 127.121094 130.71875 126.398438 131.621094 125.445312 C 135.019531 121.914062 139.054688 119.890625 144.109375 120.242188 C 146.03125 120.375 147.992188 120.425781 149.898438 120.207031 C 153.113281 119.839844 156.09375 118.953125 157.496094 115.570312 C 158.199219 114.703125 159.289062 114.585938 160.242188 114.234375 C 165.546875 112.257812 167.839844 108.945312 167.605469 103.554688 C 167.273438 101.5625 166.785156 99.605469 165.984375 97.765625 C 165.3125 96.226562 165.714844 95.339844 167.40625 94.96875 C 169.683594 94.46875 171.941406 93.933594 174.066406 92.878906 C 178.320312 90.734375 181.230469 87.503906 182.636719 82.953125 C 182.753906 82.570312 182.839844 82.167969 183.023438 81.816406 C 183.273438 81.3125 183.472656 80.695312 184.144531 80.695312 C 184.828125 80.695312 185.03125 81.347656 185.214844 81.847656 C 186 84.042969 186.753906 86.265625 188.292969 88.089844 C 190.90625 91.371094 194.386719 93.210938 198.386719 94.265625 C 201.015625 94.953125 201.132812 95.222656 199.992188 97.746094 C 199.242188 99.421875 199.140625 101.164062 199.191406 102.9375 C 198.554688 108.644531 201.300781 112.242188 206.335938 114.433594 C 206.988281 114.71875 207.691406 114.953125 208.210938 115.472656 C 208.914062 118.917969 211.777344 119.503906 214.539062 120.15625 C 215.792969 120.457031 217.097656 120.492188 218.386719 120.574219 C 223.160156 120.894531 225.871094 123.921875 228.078125 127.6875 C 228.3125 128.074219 228.414062 128.457031 228.179688 128.84375 Z M 228.179688 128.84375 " fill-opacity="1" fill-rule="nonzero"/><path fill="#febc6c" d="M 157.816406 115.722656 C 158.585938 116.644531 157.832031 117.179688 157.28125 117.730469 C 155.253906 119.753906 152.792969 120.828125 149.949219 120.960938 C 148.109375 121.042969 146.234375 121.113281 144.390625 120.945312 C 139.40625 120.476562 135.472656 122.46875 132.140625 125.980469 C 131.253906 126.917969 130.367188 127.824219 129.460938 128.761719 C 125.914062 127.707031 122.398438 128.609375 118.917969 129.109375 C 114.800781 129.714844 114.867188 129.8125 113.980469 125.679688 C 111.9375 116.023438 113.246094 106.683594 116.992188 97.730469 C 118.382812 94.433594 118.535156 91.253906 118.230469 87.839844 C 116.976562 74.167969 117.613281 60.558594 120.324219 47.089844 C 120.457031 46.46875 120.726562 45.867188 120.925781 45.265625 C 122.417969 46.433594 124.574219 46.71875 125.5625 48.609375 C 123.472656 59.507812 124.960938 70.316406 126.417969 81.164062 C 127.085938 79.90625 126.617188 78.433594 127.21875 77.195312 C 128.808594 76.308594 128.476562 77.78125 128.710938 78.46875 C 129.011719 79.320312 128.207031 80.660156 129.796875 80.960938 C 130.300781 81.613281 130.851562 81.328125 131.488281 81.128906 C 135.503906 79.875 138.769531 77.3125 141.980469 74.785156 C 147.589844 70.367188 153.429688 66.453125 160.257812 64.140625 C 160.914062 63.925781 161.332031 63.457031 161.648438 62.871094 C 172.460938 60.308594 183.273438 60.792969 194.070312 62.9375 C 195.777344 63.273438 196.980469 62.886719 198.269531 61.867188 C 201.484375 59.320312 204.511719 56.511719 208.078125 54.433594 C 210.355469 54.101562 212.5625 54.738281 214.773438 55.039062 C 216.699219 55.304688 217.050781 56.257812 216.09375 57.964844 C 215.140625 59.671875 213.75 61.046875 212.597656 62.585938 C 209.367188 66.886719 207.339844 71.539062 207.441406 77.097656 C 207.609375 85.847656 201.082031 91.070312 192.3125 89.464844 C 190.804688 89.195312 189.316406 88.792969 187.824219 88.492188 C 185.882812 86.433594 185.230469 83.738281 184.242188 80.996094 C 183.992188 81.363281 183.757812 81.582031 183.691406 81.832031 C 182.035156 89.429688 176.929688 93.429688 169.734375 95.253906 C 168.945312 95.457031 168.175781 95.707031 167.371094 95.757812 C 165.917969 95.855469 166.066406 96.492188 166.585938 97.480469 C 167.574219 99.355469 168.042969 101.394531 168.242188 103.488281 C 167.15625 103.6875 166.433594 102.902344 165.617188 102.433594 C 160.710938 99.621094 155.507812 99.1875 150.132812 100.625 C 144.390625 102.167969 143.136719 106.535156 147.085938 111.019531 C 149.210938 113.429688 151.890625 114.785156 155.136719 114.96875 C 156.074219 115.003906 157.113281 114.800781 157.816406 115.722656 Z M 157.816406 115.722656 " fill-opacity="1" fill-rule="nonzero"/><path fill="#e2ddd5" d="M 204.929688 319.582031 C 203.992188 320.121094 204.597656 321.222656 203.992188 322.394531 C 203.675781 315.96875 204.179688 310.078125 204.679688 304.152344 C 205.199219 297.894531 206.136719 291.703125 207.222656 285.527344 C 208.882812 276.152344 211.15625 266.949219 213.566406 257.761719 C 216.0625 248.273438 218.890625 238.832031 220.261719 229.09375 C 221.214844 222.398438 222.070312 215.636719 221.753906 208.875 C 221.285156 198.5 220.011719 188.238281 216.597656 178.28125 C 214.1875 171.269531 208.511719 170.296875 202.4375 170.617188 C 199.792969 170.75 197.164062 171.402344 194.519531 171.402344 C 187.894531 171.386719 181.296875 172.324219 174.671875 171.9375 C 158.101562 170.984375 141.847656 168.457031 126.535156 161.628906 C 126.097656 161.429688 125.730469 161.09375 125.328125 160.824219 C 125.53125 158.75 125.730469 156.691406 125.914062 154.734375 C 156.980469 173.761719 188.410156 175.335938 220.5625 157.394531 C 220.296875 165.078125 225.316406 171.386719 227.660156 178.617188 C 234.554688 199.921875 233.820312 220.910156 225.402344 241.59375 C 218.890625 257.578125 213.015625 273.742188 209.449219 290.679688 C 207.558594 299.683594 206.003906 308.753906 205.300781 317.945312 C 205.234375 318.511719 205.046875 319.046875 204.929688 319.582031 Z M 204.929688 319.582031 " fill-opacity="1" fill-rule="nonzero"/><path fill="#fefefe" d="M 92.207031 300.640625 C 91.351562 298.933594 90.882812 297.089844 90.632812 295.214844 C 88.105469 280.855469 98.917969 265.140625 112.054688 259.851562 C 112.894531 259.519531 113.714844 259.183594 114.632812 259.46875 C 116.054688 260.203125 116.492188 261.660156 117.058594 262.964844 C 121.597656 273.109375 125.160156 283.550781 126.214844 294.699219 C 126.667969 299.433594 126.535156 304.121094 123.320312 308.054688 C 118.933594 313.410156 113.226562 314.480469 106.933594 312.488281 C 100.558594 310.460938 95.554688 306.511719 92.207031 300.640625 Z M 92.207031 300.640625 " fill-opacity="1" fill-rule="nonzero"/><path fill="#fe9b51" d="M 187.824219 88.460938 C 189.347656 87.269531 190.753906 88.492188 192.175781 88.710938 C 196.746094 89.414062 200.8125 88.527344 204.296875 85.363281 C 206.019531 83.789062 206.972656 81.832031 206.753906 79.554688 C 205.96875 71.472656 209.132812 64.960938 214.40625 59.15625 C 215.15625 58.316406 216.511719 57.28125 215.925781 56.160156 C 215.492188 55.304688 213.917969 55.390625 212.765625 55.4375 C 211.125 55.507812 209.585938 55.019531 208.078125 54.402344 C 213.96875 50.152344 220.128906 46.335938 226.941406 43.691406 C 229.785156 42.585938 231.023438 43.273438 231.542969 46.300781 C 232.011719 48.996094 232.363281 51.742188 232.480469 54.46875 C 233.082031 66.851562 232.449219 79.203125 230.992188 91.503906 C 230.773438 93.347656 231.191406 94.988281 231.828125 96.675781 C 235.445312 106.199219 236.933594 115.972656 235.175781 126.148438 C 234.773438 128.425781 233.902344 129.179688 231.726562 128.777344 C 230.855469 128.625 229.953125 128.675781 229.066406 128.625 C 227.511719 127.773438 227.980469 126.265625 227.894531 124.960938 C 227.527344 118.332031 226.171875 112.023438 222.054688 106.601562 C 221.234375 102.96875 218.605469 101.429688 215.273438 100.527344 C 210.335938 99.1875 205.683594 99.824219 201.199219 102.132812 C 200.363281 102.566406 199.625 103.320312 198.554688 103.136719 C 198.070312 100.390625 198.957031 97.933594 200.496094 95.488281 C 195.425781 94.367188 190.90625 92.695312 187.824219 88.460938 Z M 187.824219 88.460938 " fill-opacity="1" fill-rule="nonzero"/><path fill="#e3ded5" d="M 160.660156 341.910156 C 159.859375 338.394531 160.425781 334.878906 160.5625 331.347656 C 160.828125 324.972656 160.960938 318.5625 160.5625 312.203125 C 160.023438 303.550781 159.40625 294.898438 158.367188 286.261719 C 157.515625 279.097656 156.660156 271.902344 156.175781 264.691406 C 155.808594 259.066406 155.203125 253.460938 155.273438 247.820312 C 155.320312 243.234375 156.675781 241.628906 161.128906 241.945312 C 166.199219 242.3125 171.273438 242.414062 176.359375 242.347656 C 178.9375 242.3125 181.5 241.945312 184.078125 241.910156 C 186.839844 241.878906 188.277344 243.316406 188.328125 246.046875 C 188.363281 248.054688 188.5625 250.097656 187.859375 252.039062 C 185.582031 251.820312 185.046875 253.441406 184.644531 255.148438 C 182.988281 262.429688 181.617188 269.742188 180.5625 277.140625 C 180.394531 278.328125 180.160156 279.519531 179.960938 280.707031 C 176.613281 284.238281 170.535156 284.472656 167.054688 281.191406 C 165.867188 272.738281 164.777344 264.253906 163.070312 255.886719 C 162.738281 254.230469 162.753906 252.054688 160.175781 252.238281 C 158.417969 252.355469 157.984375 253.878906 158.484375 256.757812 C 162.652344 280.339844 165.097656 304.054688 163.992188 328.035156 C 163.839844 331.25 163.457031 334.460938 163.003906 337.660156 C 162.769531 339.316406 162.386719 341.023438 160.660156 341.910156 Z M 160.660156 341.910156 " fill-opacity="1" fill-rule="nonzero"/><path fill="#e3ded5" d="M 251.980469 282.664062 C 252.265625 297.675781 247.328125 310.664062 236.882812 321.492188 C 236.398438 321.992188 236.046875 322.546875 235.09375 322.011719 C 228.046875 318.0625 220.429688 318.109375 212.714844 318.949219 C 210.019531 319.25 209.917969 319.25 210.203125 316.386719 C 212.160156 297.125 216.664062 278.445312 223.292969 260.253906 C 223.375 260.039062 223.542969 259.851562 223.660156 259.652344 C 225.484375 259.851562 225.820312 261.644531 226.855469 262.679688 C 227.945312 263.769531 228.765625 265.089844 229.550781 266.414062 C 229.785156 266.867188 229.921875 267.351562 229.785156 267.871094 C 226.722656 275.265625 224.210938 282.847656 222.824219 290.765625 C 222.457031 292.855469 222.472656 294.949219 222.621094 297.039062 C 222.824219 299.953125 224.75 302.3125 227.242188 302.929688 C 229.367188 303.46875 231.761719 302.378906 233.382812 299.96875 C 236.800781 294.847656 238.019531 289.023438 238.625 283.03125 C 238.722656 282.078125 238.539062 281.074219 239.191406 280.238281 C 239.894531 279.835938 240.449219 280.253906 240.964844 280.605469 C 243.996094 282.628906 247.226562 283.5 250.839844 282.464844 C 251.210938 282.378906 251.613281 282.445312 251.980469 282.664062 Z M 251.980469 282.664062 " fill-opacity="1" fill-rule="nonzero"/><path fill="#fefefe" d="M 271.410156 262.078125 C 278.691406 266.78125 282.242188 273.859375 283.964844 282.046875 C 284.75 285.761719 284.667969 289.558594 284.417969 293.324219 C 282.777344 296.269531 281.824219 299.566406 279.496094 302.160156 C 274.910156 307.25 269.167969 310.078125 262.492188 311.183594 C 261.320312 311.382812 260.097656 311.164062 260.179688 309.792969 C 260.398438 305.726562 258.992188 302.0625 257.820312 298.3125 C 261.300781 295.285156 263.945312 291.785156 264.699219 287.050781 C 265.636719 281.15625 263.226562 275.652344 258.054688 272.707031 C 256.734375 271.953125 256.164062 271.101562 256.265625 269.675781 C 256.214844 267.917969 255.796875 266.210938 255.761719 264.457031 C 255.710938 261.980469 256.832031 260.757812 259.328125 260.574219 C 262.726562 260.320312 266.074219 260.757812 269.335938 261.710938 C 270.007812 261.910156 270.660156 262.195312 271.410156 262.078125 Z M 271.410156 262.078125 " fill-opacity="1" fill-rule="nonzero"/><path fill="#e2ded5" d="M 120.375 137.144531 C 131.636719 147.421875 145.09375 153.058594 159.957031 155.371094 C 176.34375 157.914062 192.429688 156.523438 207.777344 149.980469 C 216.261719 146.347656 223.578125 140.992188 228.699219 133.0625 C 230.203125 133.328125 231.308594 134.132812 232.0625 135.472656 C 227.542969 145.796875 219.859375 153.144531 209.703125 157.578125 C 182.90625 169.277344 156.8125 167.636719 131.804688 152.324219 C 125.949219 148.742188 121.378906 143.6875 118.164062 137.53125 C 118.816406 136.792969 119.488281 136.339844 120.375 137.144531 Z M 120.375 137.144531 " fill-opacity="1" fill-rule="nonzero"/><path fill="#fe9a50" d="M 251.980469 282.664062 C 247.191406 284.824219 243.109375 283.265625 239.308594 280.238281 C 238.238281 280.035156 237.753906 279.25 237.367188 278.347656 C 236.261719 274.699219 234.4375 271.402344 232.699219 268.054688 C 231.863281 266.445312 230.808594 265.878906 229.132812 266.632812 C 227.308594 264.320312 225.484375 261.996094 223.660156 259.6875 C 225.535156 253.34375 228.5625 247.453125 230.722656 241.210938 C 232.128906 237.125 233.417969 233.007812 234.691406 228.339844 C 236.464844 231.753906 238.070312 234.699219 239.578125 237.710938 C 244.898438 248.339844 249.269531 259.300781 251.191406 271.117188 C 251.828125 274.933594 252.214844 278.78125 251.980469 282.664062 Z M 251.980469 282.664062 " fill-opacity="1" fill-rule="nonzero"/><path fill="#e2dfd6" d="M 92.207031 300.640625 C 94.882812 303.066406 96.890625 306.160156 99.953125 308.203125 C 104.40625 311.164062 109.027344 313.425781 114.601562 312.355469 C 121.527344 311.015625 125.679688 306.09375 125.648438 298.914062 C 125.597656 289.945312 123.453125 281.375 120.339844 273.042969 C 118.652344 268.523438 117.195312 263.886719 114.484375 259.820312 C 114.347656 259.570312 114.382812 259.335938 114.601562 259.117188 C 116.425781 258.296875 118.214844 257.207031 120.359375 257.945312 C 124.574219 267.734375 127.472656 277.945312 130.046875 288.253906 C 132.339844 297.410156 133.929688 306.695312 135.269531 316.035156 C 135.722656 319.117188 135.738281 318.980469 132.675781 318.765625 C 124.59375 318.179688 116.660156 318.648438 109.664062 323.417969 C 108.777344 324.019531 108.289062 323.785156 107.585938 323.230469 C 99.988281 317.375 94.949219 309.777344 92.207031 300.640625 Z M 92.207031 300.640625 " fill-opacity="1" fill-rule="nonzero"/><path fill="#c7bab2" d="M 167.054688 281.191406 C 171.441406 283.300781 175.757812 283.214844 179.960938 280.707031 C 178.753906 290.648438 177.648438 300.605469 177.414062 310.628906 C 177.179688 320.488281 177.113281 330.363281 178.871094 340.117188 C 179.039062 341.089844 178.9375 341.40625 177.902344 341.390625 C 174.503906 341.359375 171.121094 341.375 167.523438 341.375 C 169.011719 332.722656 169.28125 324.136719 169.214844 315.515625 C 169.128906 304.519531 168.378906 293.558594 167.089844 282.628906 C 167.039062 282.164062 167.070312 281.675781 167.054688 281.191406 Z M 167.054688 281.191406 " fill-opacity="1" fill-rule="nonzero"/><path fill="#febb6b" d="M 114.550781 259.417969 C 114.550781 259.550781 114.53125 259.6875 114.5 259.804688 C 107.90625 261.710938 102.765625 265.726562 98.550781 270.964844 C 92.875 278.011719 90.347656 286.160156 90.632812 295.199219 C 88.722656 287.734375 88.722656 280.136719 89.476562 272.605469 C 90.765625 259.902344 95.601562 248.304688 101.5625 237.140625 C 101.679688 236.941406 101.878906 236.773438 102.046875 236.605469 C 102.414062 236.589844 102.648438 236.773438 102.816406 237.074219 C 106.5 243.921875 110.648438 250.480469 114.214844 257.375 C 114.53125 257.996094 114.953125 258.648438 114.550781 259.417969 Z M 114.550781 259.417969 " fill-opacity="1" fill-rule="nonzero"/><path fill="#fe9a50" d="M 125.460938 48.242188 C 123.871094 47.371094 121.546875 47.605469 120.945312 45.246094 C 121.78125 42.820312 123.605469 43.070312 125.496094 43.605469 C 133.113281 45.800781 139.773438 49.847656 146.234375 54.285156 C 149.699219 56.660156 153.011719 59.238281 156.125 62.035156 C 157.832031 63.554688 159.625 63.859375 161.664062 62.835938 C 162.835938 63.773438 161.664062 63.925781 161.164062 64.160156 C 157.800781 65.699219 154.433594 67.203125 151.203125 69.011719 C 146.917969 71.421875 143.320312 74.785156 139.304688 77.5625 C 136.726562 79.355469 134.148438 81.113281 131.054688 81.914062 C 130.433594 82.082031 129.648438 82.5 130.117188 81.210938 C 130.265625 80.109375 131.21875 79.691406 131.957031 79.136719 C 134.382812 77.3125 136.777344 75.457031 139.121094 73.515625 C 140.109375 72.746094 139.773438 71.789062 139.472656 70.851562 C 137.296875 64.042969 134.535156 57.515625 130.46875 51.574219 C 129.195312 49.765625 127.824219 48.292969 125.460938 48.242188 Z M 125.460938 48.242188 " fill-opacity="1" fill-rule="nonzero"/><path fill="#e3ded6" d="M 257.804688 298.3125 C 259.929688 301.222656 260.984375 304.453125 260.683594 308.070312 C 260.515625 310.027344 260.699219 310.980469 263.226562 310.414062 C 272.769531 308.285156 279.949219 303.484375 283.261719 293.894531 C 283.414062 293.460938 283.328125 292.070312 284.417969 293.324219 C 283.597656 307.132812 277.871094 318.027344 265.554688 324.988281 C 261.386719 324.621094 258.589844 321.757812 258.523438 317.625 C 258.492188 315.652344 258.207031 313.625 259.34375 311.632812 C 257.335938 311.5 255.527344 311.183594 253.820312 310.480469 C 252.882812 310.09375 251.761719 309.777344 251.914062 308.386719 C 252.785156 306.011719 253.671875 303.652344 254.523438 301.273438 C 255.109375 299.683594 256.515625 299.082031 257.804688 298.3125 Z M 257.804688 298.3125 " fill-opacity="1" fill-rule="nonzero"/><path fill="#c9bbb5" d="M 251.914062 308.371094 C 253.351562 310.363281 255.710938 310.445312 257.753906 310.714844 C 259.578125 310.949219 259.8125 311.117188 259.496094 313.039062 C 258.910156 316.636719 258.355469 320.421875 261.988281 323.164062 C 263.109375 324.019531 264.632812 323.886719 265.554688 324.988281 C 260.382812 328.402344 254.523438 329.808594 248.53125 330.714844 C 242.488281 331.617188 242.488281 331.5 240.3125 325.960938 C 240.0625 325.339844 240.097656 325.007812 240.597656 324.519531 C 245.503906 319.933594 248.898438 314.277344 251.914062 308.371094 Z M 251.914062 308.371094 " fill-opacity="1" fill-rule="nonzero"/><path fill="#fe9c51" d="M 114.550781 259.417969 C 110.765625 252.671875 107.019531 245.910156 103.152344 239.21875 C 102.667969 238.363281 102.53125 237.410156 102.03125 236.605469 C 103.972656 232.625 106.53125 229.007812 108.808594 225.074219 C 109.796875 226.011719 109.664062 227.199219 109.898438 228.1875 C 112.023438 237.578125 115.855469 246.347656 119.4375 255.21875 C 119.789062 256.105469 120.054688 257.023438 120.359375 257.945312 C 118.433594 258.429688 116.492188 258.933594 114.550781 259.417969 Z M 114.550781 259.417969 " fill-opacity="1" fill-rule="nonzero"/><path fill="#fcfdfc" d="M 228.214844 334.613281 C 228.113281 332.738281 227.609375 330.980469 226.722656 329.339844 C 226.152344 328.285156 225.402344 327.347656 224.078125 328.003906 C 222.757812 328.65625 223.308594 329.726562 223.761719 330.695312 C 224.582031 332.402344 224.984375 334.175781 224.664062 336.070312 C 223.558594 337.105469 222.121094 337.507812 220.714844 337.691406 C 219.039062 337.925781 217.601562 338.914062 215.910156 338.980469 C 215.761719 334.078125 213.703125 329.976562 210.671875 326.261719 C 210.269531 325.777344 209.535156 325.359375 209.769531 324.65625 C 210.070312 323.785156 211.007812 324.050781 211.660156 324.003906 C 217.148438 323.566406 222.621094 323.230469 228.0625 324.421875 C 230.789062 325.023438 233.234375 326.261719 235.292969 328.085938 C 237.351562 329.910156 238.1875 332.304688 237.769531 335.082031 C 234.757812 335.769531 234.757812 335.769531 234.691406 332.621094 C 234.691406 332.304688 234.691406 331.984375 234.539062 331.699219 C 234.488281 331.382812 234.507812 331.03125 234.355469 330.761719 C 233.769531 329.675781 233.820312 327.683594 231.8125 328.335938 C 229.871094 328.972656 231.226562 330.429688 231.375 331.535156 C 231.578125 332.890625 231.695312 334.246094 231.441406 335.601562 C 229.871094 336.957031 229.101562 335.617188 228.214844 334.613281 Z M 228.214844 334.613281 " fill-opacity="1" fill-rule="nonzero"/><path fill="#febd6e" d="M 222.421875 106.417969 C 224.648438 107.804688 225.285156 110.234375 226.136719 112.410156 C 227.894531 116.84375 228.796875 121.496094 228.632812 126.300781 C 228.597656 127.121094 228.597656 127.921875 229.082031 128.625 C 228.78125 128.691406 228.480469 128.761719 228.179688 128.84375 C 227.792969 128.324219 227.308594 127.855469 227.023438 127.304688 C 224.679688 122.75 220.78125 121.078125 215.878906 121.011719 C 212.847656 120.976562 210.1875 119.941406 208.128906 117.613281 C 207.558594 116.976562 207.058594 116.324219 208.160156 115.722656 C 208.78125 114.851562 209.71875 114.96875 210.589844 114.96875 C 215.558594 114.917969 218.992188 112.542969 221.148438 108.15625 C 221.484375 107.503906 221.683594 106.769531 222.421875 106.417969 Z M 222.421875 106.417969 " fill-opacity="1" fill-rule="nonzero"/><path fill="#fcfcfc" d="M 115.90625 332.050781 C 116.039062 331.515625 116.105469 330.949219 116.308594 330.445312 C 116.777344 329.273438 116.558594 328.554688 115.269531 328.035156 C 113.796875 327.433594 113.730469 328.585938 113.3125 329.359375 C 113.160156 329.625 113.09375 329.945312 112.992188 330.226562 C 112.105469 330.949219 111.1875 331.449219 110.0625 330.695312 C 111.636719 327.902344 114.0625 326.144531 117.027344 325.140625 C 122.667969 323.230469 128.457031 323.382812 134.265625 324.070312 C 136.074219 324.285156 136.207031 325.023438 135.136719 326.378906 C 132.84375 329.242188 131.203125 332.453125 130.433594 336.050781 C 130.25 337.039062 129.695312 337.640625 128.644531 337.609375 C 127.035156 337.542969 125.445312 337.359375 123.972656 336.6875 C 122.046875 335.816406 122.382812 334.195312 122.699219 332.585938 C 122.601562 331.632812 123.1875 330.914062 123.605469 330.160156 C 124.023438 329.375 124.222656 328.671875 123.320312 328.101562 C 122.433594 327.515625 121.628906 327.683594 121.011719 328.503906 C 120.074219 329.742188 119.570312 331.183594 119.234375 332.671875 C 118.765625 333.273438 119.6875 334.8125 118.28125 334.597656 C 117.128906 334.410156 115.554688 333.976562 115.90625 332.050781 Z M 115.90625 332.050781 " fill-opacity="1" fill-rule="nonzero"/><path fill="#dddbd7" d="M 271.410156 262.078125 C 270.777344 263.167969 269.921875 262.613281 269.070312 262.398438 C 266.023438 261.609375 262.941406 261.140625 259.78125 261.277344 C 257 261.394531 256.550781 261.828125 256.28125 264.671875 C 256.128906 266.347656 257.035156 268.003906 256.246094 269.660156 C 255.328125 266.09375 254.421875 262.53125 253.503906 258.964844 C 253.320312 258.246094 253.519531 257.960938 254.289062 257.894531 C 260.449219 257.441406 266.324219 258.144531 271.410156 262.078125 Z M 271.410156 262.078125 " fill-opacity="1" fill-rule="nonzero"/><path fill="#e5dfdd" d="M 122.75 332.605469 C 122.933594 333.925781 122.28125 335.75 124.324219 336.070312 C 126.347656 336.371094 128.425781 338.109375 130.46875 336.070312 C 130.382812 338.175781 130.367188 340.269531 131.871094 342.058594 C 125.3125 343.265625 120.910156 338.546875 122.75 332.605469 Z M 122.75 332.605469 " fill-opacity="1" fill-rule="nonzero"/><path fill="#e4ddd5" d="M 215.910156 338.980469 C 216.699219 338.027344 217.617188 337.558594 218.921875 337.390625 C 220.863281 337.140625 222.757812 336.519531 224.679688 336.070312 C 223.996094 341.359375 221.96875 342.664062 214.855469 342.292969 C 215.207031 341.15625 215.558594 340.070312 215.910156 338.980469 Z M 215.910156 338.980469 " fill-opacity="1" fill-rule="nonzero"/><path fill="#ede4e5" d="M 110.082031 330.714844 C 111.050781 330.5625 112.023438 330.394531 113.011719 330.246094 C 111.9375 334.210938 112.691406 337.859375 115.035156 341.273438 C 110.566406 341.039062 107.972656 335.332031 110.082031 330.714844 Z M 110.082031 330.714844 " fill-opacity="1" fill-rule="nonzero"/><path fill="#fabe79" d="M 120.375 137.144531 C 119.636719 137.261719 118.917969 137.378906 118.183594 137.496094 C 115.804688 133.128906 115.804688 133.128906 120.691406 132.625 C 122.683594 132.410156 124.660156 131.90625 126.683594 132.191406 C 124.757812 134.066406 122.835938 135.957031 120.375 137.144531 Z M 120.375 137.144531 " fill-opacity="1" fill-rule="nonzero"/><path fill="#e8e3e4" d="M 256.882812 278.210938 C 260.984375 281.257812 260.601562 288.90625 256.398438 292.304688 C 257.050781 287.703125 257.035156 283.097656 256.882812 278.210938 Z M 256.882812 278.210938 " fill-opacity="1" fill-rule="nonzero"/><path fill="#e8dddc" d="M 115.90625 332.050781 C 116.125 333.542969 117.929688 333.125 118.347656 334.597656 C 118.769531 333.726562 119.019531 333.207031 119.269531 332.671875 C 118.882812 335.882812 119.585938 338.863281 121.34375 341.625 C 117.863281 342.128906 114.71875 336.453125 115.90625 332.050781 Z M 115.90625 332.050781 " fill-opacity="1" fill-rule="nonzero"/><path fill="#e5dee0" d="M 228.214844 334.613281 C 229.335938 334.832031 230.136719 336.050781 231.460938 335.582031 C 230.671875 338.613281 229.734375 341.523438 225.5 342.363281 C 227.308594 339.800781 228.28125 337.359375 228.214844 334.613281 Z M 228.214844 334.613281 " fill-opacity="1" fill-rule="nonzero"/><path fill="#e3dadc" d="M 234.554688 331.699219 C 235.425781 332.703125 234.773438 333.992188 235.191406 335.199219 C 236.046875 335.132812 236.898438 333.726562 237.785156 335.082031 C 237.351562 338.480469 235.527344 340.804688 232.449219 341.457031 C 234.40625 338.3125 234.941406 335.097656 234.554688 331.699219 Z M 234.554688 331.699219 " fill-opacity="1" fill-rule="nonzero"/><path fill="#f49f5d" d="M 232.078125 135.453125 C 230.707031 135.003906 229.652344 134.097656 228.714844 133.042969 C 228.679688 132.742188 228.664062 132.457031 228.632812 132.15625 C 230.121094 132.359375 231.628906 132.542969 233.167969 132.742188 C 233.066406 133.832031 232.664062 134.683594 232.078125 135.453125 Z M 232.078125 135.453125 " fill-opacity="1" fill-rule="nonzero"/><path fill="#3b0515" d="M 157.816406 115.722656 C 153.648438 115.824219 149.78125 115.121094 146.835938 111.773438 C 145.867188 110.667969 145.046875 109.496094 144.492188 108.125 C 143.289062 105.078125 144.074219 102.769531 146.902344 101.164062 C 153.113281 97.628906 162.433594 98.636719 168.261719 103.4375 C 169.664062 108.074219 165.515625 113.597656 159.859375 115.136719 C 159.171875 115.335938 158.503906 115.539062 157.816406 115.722656 Z M 157.816406 115.722656 " fill-opacity="1" fill-rule="nonzero"/><path fill="#3c0416" d="M 222.421875 106.417969 C 221.050781 112.023438 216.746094 115.539062 211.074219 115.671875 C 210.121094 115.6875 209.148438 115.707031 208.195312 115.722656 C 202.1875 114.148438 197.347656 109.597656 198.570312 103.121094 C 204.929688 98.351562 211.726562 97.882812 218.855469 101.128906 C 221.097656 102.167969 222.4375 103.855469 222.421875 106.417969 Z M 222.421875 106.417969 " fill-opacity="1" fill-rule="nonzero"/><path fill="#390917" d="M 184.710938 110.71875 C 186.117188 110.835938 187.910156 110.515625 189.632812 111.21875 C 192.730469 112.492188 193.484375 115.589844 191.257812 118.03125 C 190.820312 118.5 190.351562 119.070312 189.785156 119.269531 C 186.386719 120.527344 186.488281 123.335938 186.519531 126.199219 C 186.554688 128.925781 188.328125 130.367188 190.351562 131.671875 C 192.34375 132.960938 194.554688 133.679688 196.863281 134.03125 C 197.886719 134.199219 198.621094 134.550781 198.519531 135.65625 C 198.421875 136.757812 197.535156 137.0625 196.5625 137.011719 C 192.445312 136.84375 188.847656 135.402344 185.984375 132.441406 C 185.046875 131.472656 184.710938 131.4375 183.707031 132.476562 C 180.980469 135.285156 177.550781 136.792969 173.582031 137.011719 C 172.460938 137.078125 171.304688 136.992188 171.054688 135.722656 C 170.789062 134.28125 171.992188 134.132812 173.082031 133.929688 C 174.101562 133.746094 175.121094 133.496094 176.109375 133.144531 C 181.851562 131.1875 183.925781 127.304688 182.554688 121.429688 C 182.386719 120.726562 181.96875 120.542969 181.5 120.273438 C 181.296875 120.15625 181.0625 120.074219 180.863281 119.957031 C 177.566406 118.164062 176.144531 116.058594 176.761719 113.863281 C 177.347656 111.738281 179.339844 110.75 183.15625 110.71875 C 183.558594 110.71875 183.960938 110.71875 184.710938 110.71875 Z M 184.710938 110.71875 " fill-opacity="1" fill-rule="nonzero"/><path fill="#430315" d="M 125.460938 48.242188 C 127.121094 47.070312 128.292969 47.859375 129.378906 49.164062 C 132.105469 52.492188 134.199219 56.210938 136.007812 60.109375 C 137.746094 63.839844 139.171875 67.671875 140.359375 71.625 C 140.726562 72.828125 140.726562 73.679688 139.289062 74 C 137.863281 73.867188 137.613281 72.59375 137.144531 71.640625 C 134.332031 65.917969 131.152344 60.375 127.789062 54.503906 C 127.972656 61.164062 128.625 67.421875 128.359375 73.699219 C 128.308594 74.804688 128.574219 75.972656 127.804688 76.980469 C 127.789062 78.433594 127.804688 79.875 127.753906 81.328125 C 127.722656 82.015625 127.921875 82.902344 126.902344 83.085938 C 125.746094 83.289062 125.546875 82.300781 125.445312 81.546875 C 125.011719 78.199219 124.542969 74.835938 124.308594 71.472656 C 123.890625 65.195312 123.421875 58.921875 124.191406 52.628906 C 124.390625 51.054688 124.675781 49.582031 125.460938 48.242188 Z M 125.460938 48.242188 " fill-opacity="1" fill-rule="nonzero"/><path fill="#febeab" d="M 127.804688 76.960938 C 127.804688 69.011719 127.804688 61.046875 127.804688 53.230469 C 131.90625 59.722656 135.472656 66.921875 139.289062 73.984375 C 136.527344 76.777344 133.210938 78.871094 130.082031 81.210938 C 128.457031 81.964844 127.824219 81.5625 128.058594 79.707031 C 128.15625 78.804688 128.359375 77.816406 127.804688 76.960938 Z M 127.804688 76.960938 " fill-opacity="1" fill-rule="nonzero"/><path fill="#3f0214" d="M 213.566406 74.351562 C 211.925781 74.46875 211.558594 73.679688 212.0625 72.257812 C 215.074219 63.839844 219.074219 55.957031 224.949219 49.148438 C 225.601562 48.375 226.289062 47.324219 227.527344 47.707031 C 228.796875 48.09375 229 49.265625 229.183594 50.417969 C 230.039062 55.90625 229.46875 61.398438 228.949219 66.851562 C 228.496094 71.507812 227.761719 76.125 227.125 80.761719 C 226.789062 83.152344 226.4375 83.339844 224.648438 82.101562 C 223.726562 80.527344 223.910156 78.785156 224.09375 77.128906 C 224.816406 70.066406 224.765625 62.96875 225.433594 55.691406 C 221.800781 61.097656 218.65625 66.570312 215.542969 72.042969 C 215.023438 72.929688 214.738281 74.015625 213.566406 74.351562 Z M 213.566406 74.351562 " fill-opacity="1" fill-rule="nonzero"/><path fill="#fdc0ac" d="M 213.566406 74.351562 C 217.199219 67.273438 221.417969 60.5625 226.171875 53.984375 C 225.667969 63.355469 225.148438 72.710938 224.648438 82.082031 C 220.832031 79.691406 217.132812 77.113281 213.566406 74.351562 Z M 213.566406 74.351562 " fill-opacity="1" fill-rule="nonzero"/><path fill="#fefefe" d="M 237.886719 278.230469 C 238.371094 278.898438 238.839844 279.566406 239.328125 280.238281 C 239.359375 287.46875 237.886719 294.3125 233.902344 300.453125 C 232.113281 303.214844 229.433594 304.421875 227.023438 303.703125 C 223.910156 302.765625 222.003906 300.1875 221.820312 296.90625 C 221.449219 290.078125 223.542969 283.703125 225.519531 277.324219 C 226.40625 274.480469 227.578125 271.734375 228.582031 268.941406 C 228.78125 268.371094 229 267.902344 229.535156 267.617188 C 230.355469 267.652344 230.875 268.1875 231.292969 268.757812 C 233.617188 271.835938 236.3125 274.648438 237.886719 278.230469 Z M 237.886719 278.230469 " fill-opacity="1" fill-rule="nonzero"/><path fill="#fdc070" d="M 237.886719 278.230469 C 235.109375 274.699219 232.332031 271.148438 229.550781 267.617188 C 229.417969 267.300781 229.285156 266.964844 229.148438 266.648438 C 230.957031 264.40625 231.042969 264.371094 232.613281 266.882812 C 234.839844 270.429688 236.832031 274.113281 237.886719 278.230469 Z M 237.886719 278.230469 " fill-opacity="1" fill-rule="nonzero"/><path fill="#f9f7f7" d="M 151.203125 104.996094 C 151.105469 107.640625 151.070312 110.183594 152.929688 112.457031 C 149.195312 111.289062 147.941406 109.949219 146.96875 106.769531 C 146.566406 105.464844 146.71875 104.945312 148.109375 104.996094 C 149.078125 105.011719 150.03125 104.996094 151.203125 104.996094 Z M 151.203125 104.996094 " fill-opacity="1" fill-rule="nonzero"/><path fill="#f8f6f7" d="M 213.097656 112.777344 C 214.6875 110.785156 215.007812 108.925781 215.058594 106.96875 C 215.074219 106.449219 214.523438 105.53125 215.625 105.464844 C 216.832031 105.394531 218.136719 105.179688 219.175781 105.882812 C 219.894531 106.367188 219.410156 107.203125 219.125 107.839844 C 218.019531 110.265625 216.195312 111.839844 213.097656 112.777344 Z M 213.097656 112.777344 " fill-opacity="1" fill-rule="nonzero"/><path fill="#f8b6b4" d="M 184.445312 113.714844 C 185.617188 113.816406 186.820312 113.882812 188.027344 114.015625 C 188.628906 114.082031 189.382812 114.082031 189.382812 115.035156 C 189.382812 115.738281 189.214844 116.390625 188.511719 116.609375 C 186.957031 117.078125 185.933594 117.863281 185.433594 119.589844 C 185.113281 120.726562 183.976562 120.242188 183.808594 119.320312 C 183.457031 117.546875 182.320312 116.808594 180.78125 116.324219 C 180.160156 116.125 179.539062 115.773438 179.609375 114.984375 C 179.675781 114.164062 180.460938 114.015625 181.046875 113.933594 C 182.136719 113.765625 183.273438 113.78125 184.445312 113.714844 Z M 184.445312 113.714844 " fill-opacity="1" fill-rule="nonzero"/><path fill="#380414" d="M 89.34375 121.964844 C 89.125 120.910156 89.828125 119.871094 90.882812 119.671875 C 107.335938 116.644531 121.695312 118.703125 126.816406 119.65625 C 127.90625 119.855469 128.59375 120.925781 128.339844 122 L 128.339844 122.015625 C 128.105469 123.019531 127.136719 123.65625 126.132812 123.472656 C 121.292969 122.585938 107.285156 120.59375 91.570312 123.488281 C 90.53125 123.65625 89.542969 122.984375 89.34375 121.964844 Z M 89.34375 121.964844 " fill-opacity="1" fill-rule="nonzero"/><path fill="#380414" d="M 127.988281 114.433594 C 127.972656 114.433594 127.972656 114.433594 127.988281 114.433594 L 128.976562 112.777344 Z M 126.382812 113.546875 C 122.332031 111.40625 111.203125 106.03125 100.121094 105.480469 C 99.101562 105.429688 98.28125 104.59375 98.28125 103.554688 C 98.28125 102.449219 99.203125 101.582031 100.304688 101.628906 C 112.257812 102.214844 123.855469 107.824219 128.175781 110.132812 C 129.144531 110.652344 129.480469 111.875 128.910156 112.808594 C 128.410156 113.714844 127.285156 114.03125 126.382812 113.546875 Z M 126.382812 113.546875 " fill-opacity="1" fill-rule="nonzero"/><path fill="#380414" d="M 264.046875 124.15625 C 250.890625 119.21875 235.042969 121.511719 229.785156 122.5 C 228.78125 122.683594 227.792969 122.046875 227.558594 121.0625 C 227.308594 119.988281 227.996094 118.917969 229.066406 118.71875 C 231.359375 118.28125 235.492188 117.628906 240.566406 117.363281 C 247.242188 117.011719 256.765625 117.328125 265.402344 120.558594 C 266.441406 120.945312 266.941406 122.117188 266.492188 123.136719 C 266.089844 124.074219 265.019531 124.507812 264.046875 124.15625 Z M 264.046875 124.15625 " fill-opacity="1" fill-rule="nonzero"/><path fill="#380414" d="M 226.171875 112.492188 C 225.734375 111.472656 226.238281 110.300781 227.277344 109.914062 C 231.710938 108.292969 243.328125 104.609375 256.046875 105.347656 C 257.136719 105.414062 257.957031 106.367188 257.855469 107.453125 C 257.753906 108.492188 256.867188 109.261719 255.828125 109.195312 C 243.894531 108.527344 232.730469 112.039062 228.597656 113.546875 C 227.628906 113.882812 226.574219 113.429688 226.171875 112.492188 Z M 226.171875 112.492188 " fill-opacity="1" fill-rule="nonzero"/></svg>