<svg width="34" height="41" viewBox="0 0 34 41" fill="none" xmlns="http://www.w3.org/2000/svg">
<path id="Vector" fill-rule="evenodd" clip-rule="evenodd" d="M4.92121 4.92086C8.07198 1.77009 12.3453 0 16.8012 0C21.2571 0 25.5304 1.77009 28.6812 4.92086C31.832 8.07163 33.6021 12.345 33.6021 16.8009C33.6021 21.2567 31.832 25.5301 28.6812 28.6809L16.8012 40.5609L4.92121 28.6809C3.36101 27.1208 2.12337 25.2687 1.27899 23.2303C0.434601 21.192 0 19.0072 0 16.8009C0 14.5945 0.434601 12.4098 1.27899 10.3714C2.12337 8.333 3.36101 6.4809 4.92121 4.92086ZM16.8012 21.6009C18.0743 21.6009 19.2952 21.0951 20.1953 20.195C21.0955 19.2948 21.6012 18.0739 21.6012 16.8009C21.6012 15.5278 21.0955 14.3069 20.1953 13.4067C19.2952 12.5066 18.0743 12.0009 16.8012 12.0009C15.5282 12.0009 14.3073 12.5066 13.4071 13.4067C12.5069 14.3069 12.0012 15.5278 12.0012 16.8009C12.0012 18.0739 12.5069 19.2948 13.4071 20.195C14.3073 21.0951 15.5282 21.6009 16.8012 21.6009Z" fill="white"/>
</svg>
