<svg xmlns="http://www.w3.org/2000/svg" xmlns:xlink="http://www.w3.org/1999/xlink" width="500" zoomAndPan="magnify" viewBox="0 0 375 374.999991" height="500" preserveAspectRatio="xMidYMid meet" version="1.0"><defs><g/><clipPath id="a7de2b88a2"><path d="M 99.492188 99 L 280 99 L 280 216.476562 L 99.492188 216.476562 Z M 99.492188 99 " clip-rule="nonzero"/></clipPath></defs><g clip-path="url(#a7de2b88a2)"><path fill="#563a2c" d="M 278.886719 139.855469 C 277.296875 136.34375 273.542969 134.933594 267.71875 135.65625 C 265.175781 136.015625 262.730469 136.714844 260.386719 137.761719 C 259.140625 138.296875 258.023438 138.828125 256.988281 139.382812 C 256.433594 139.679688 255.851562 140.003906 255.285156 140.386719 C 252.003906 136.199219 248.25 132.488281 244.019531 129.261719 C 241.660156 127.460938 239.183594 125.828125 236.597656 124.363281 C 237.101562 123.503906 237.527344 122.609375 237.875 121.675781 C 238.144531 120.964844 238.4375 120.261719 238.75 119.515625 C 239.285156 118.300781 239.757812 117.0625 240.167969 115.796875 C 240.46875 114.808594 240.695312 113.796875 240.84375 112.773438 C 240.90625 112.429688 240.988281 112.09375 241.089844 111.765625 C 241.25 111.253906 241.367188 110.738281 241.441406 110.210938 C 241.527344 109.472656 241.707031 106.898438 240.226562 105.117188 C 238.835938 103.425781 236.742188 103.277344 235.074219 103.160156 L 234.394531 103.109375 C 231.863281 102.816406 229.347656 102.925781 226.855469 103.441406 C 222.3125 104.449219 218.199219 106.796875 214.375 109.113281 C 212.152344 110.449219 210.003906 111.898438 207.9375 113.464844 C 206.152344 114.820312 204.496094 116.320312 202.976562 117.964844 C 196.292969 119.4375 190.765625 122.8125 186.972656 127.765625 C 186.476562 128.417969 186.003906 129.097656 185.566406 129.804688 C 185 128.898438 184.378906 128.03125 183.699219 127.207031 C 182.242188 125.433594 180.574219 123.886719 178.703125 122.5625 C 176.832031 121.234375 174.816406 120.179688 172.660156 119.390625 C 168.644531 110.480469 158.679688 105.640625 150.621094 101.722656 L 149.21875 101.039062 C 147.378906 100.128906 144.605469 98.753906 142.179688 100.613281 C 140.707031 101.757812 139.917969 103.757812 139.832031 106.730469 C 139.773438 109.4375 139.957031 112.121094 140.382812 114.792969 C 140.761719 117.003906 141.363281 119.152344 142.179688 121.238281 C 136.566406 123.582031 131.414062 126.6875 126.722656 130.5625 C 124.785156 132.160156 122.945312 133.867188 121.203125 135.683594 C 118.769531 133.550781 116.128906 131.710938 113.289062 130.160156 L 112.605469 129.792969 C 109.738281 128.167969 104.941406 125.445312 101.597656 128.320312 C 100.230469 129.425781 99.558594 131.195312 99.492188 133.679688 C 99.488281 135.859375 99.621094 138.03125 99.890625 140.191406 L 99.957031 140.835938 C 100.09375 142.175781 100.203125 143.554688 100.324219 144.886719 C 100.519531 148.042969 100.886719 151.179688 101.429688 154.292969 C 102.574219 160.183594 104.199219 164.832031 106.394531 168.488281 C 106.394531 175.113281 108.4375 181.082031 112.28125 185.789062 C 117.496094 192.152344 125.660156 195.65625 135.273438 195.652344 C 136.066406 195.652344 136.875 195.632812 137.6875 195.582031 C 138.132812 199.191406 140.878906 202.738281 143.648438 204.527344 C 144.953125 205.355469 146.363281 205.949219 147.867188 206.308594 C 149.375 206.664062 150.898438 206.765625 152.4375 206.613281 C 153.574219 209.609375 156.539062 211.980469 160.484375 213.007812 C 164.359375 214.023438 169.667969 215.40625 174.324219 213.851562 C 174.851562 213.675781 175.363281 213.464844 175.859375 213.21875 C 176.800781 214.214844 178.234375 215.039062 180.136719 215.671875 C 181.871094 216.210938 183.644531 216.464844 185.460938 216.4375 C 186.429688 216.4375 187.320312 216.382812 188.078125 216.316406 L 188.371094 216.289062 C 192.417969 215.941406 197.984375 215.46875 200.4375 210.90625 C 200.644531 210.523438 200.824219 210.125 200.980469 209.714844 C 201.441406 209.917969 201.917969 210.082031 202.398438 210.265625 C 204.320312 210.972656 206.304688 211.359375 208.351562 211.433594 C 210.324219 211.519531 212.269531 211.3125 214.179688 210.808594 C 216.089844 210.308594 217.882812 209.535156 219.558594 208.488281 C 223.460938 205.992188 228.933594 200.128906 228.882812 194 C 230.804688 194.324219 232.738281 194.519531 234.6875 194.597656 C 235.21875 194.617188 235.753906 194.625 236.289062 194.625 C 246.511719 194.625 255.035156 190.851562 260.289062 183.992188 C 262.730469 180.785156 264.324219 177.203125 265.070312 173.238281 C 266.148438 172.269531 267.128906 171.214844 268.015625 170.070312 L 268.429688 169.5625 C 269.964844 167.722656 271.402344 165.8125 272.742188 163.828125 C 275.195312 160.183594 276.769531 156.371094 278.382812 151.761719 C 280.089844 146.886719 280.253906 142.886719 278.886719 139.855469 Z M 278.886719 139.855469 " fill-opacity="1" fill-rule="nonzero"/></g><path fill="#fffcf8" d="M 185.988281 140.191406 C 185.773438 138.292969 185.40625 136.421875 184.886719 134.582031 C 184.476562 133.3125 183.933594 132.105469 183.253906 130.960938 C 182.574219 129.8125 181.777344 128.753906 180.863281 127.789062 C 179.945312 126.820312 178.9375 125.964844 177.828125 125.222656 C 176.722656 124.480469 175.546875 123.871094 174.304688 123.390625 C 173.597656 123.167969 172.925781 122.875 172.28125 122.507812 C 171.179688 121.773438 170.5 120.574219 169.8125 119.441406 C 164.492188 110.691406 155.21875 104.285156 145.050781 103.097656 C 144.671875 103.019531 144.304688 103.050781 143.945312 103.199219 C 143.464844 103.453125 143.289062 104.046875 143.175781 104.585938 C 142.210938 109.234375 142.40625 113.835938 143.757812 118.386719 C 144.253906 120.050781 144.859375 122.042969 143.722656 123.367188 C 143.21875 123.960938 142.464844 124.277344 141.75 124.582031 C 138.25 126.082031 134.964844 127.960938 131.894531 130.214844 C 128.824219 132.46875 126.046875 135.039062 123.566406 137.929688 C 123.566406 137.929688 118.414062 184.828125 118.414062 185.542969 C 118.457031 187.871094 120.945312 189.265625 123.085938 190.179688 C 124.765625 190.953125 126.496094 191.582031 128.285156 192.058594 C 130.15625 192.460938 132.054688 192.640625 133.96875 192.597656 C 138.289062 192.585938 142.542969 192.039062 146.726562 190.949219 C 150.910156 189.863281 154.890625 188.273438 158.671875 186.179688 C 162.265625 184.230469 165.488281 181.792969 168.339844 178.863281 C 168.527344 178.667969 168.707031 178.464844 168.886719 178.25 C 169.023438 178.152344 169.15625 178.058594 169.289062 177.957031 C 170.929688 176.664062 172.085938 174.863281 173.632812 173.457031 C 175.605469 171.65625 178.179688 170.511719 179.824219 168.414062 C 181.058594 166.832031 181.640625 164.84375 182.195312 162.910156 L 185.324219 152.007812 C 185.835938 150.425781 186.203125 148.808594 186.429688 147.160156 C 186.652344 144.832031 186.335938 142.492188 185.988281 140.191406 Z M 185.988281 140.191406 " fill-opacity="1" fill-rule="nonzero"/><path fill="#fffcf8" d="M 253.992188 174.003906 C 253.183594 169.21875 250.023438 148.050781 250.679688 142.289062 C 250.789062 141.730469 250.796875 141.167969 250.703125 140.605469 C 250.46875 139.925781 250.085938 139.347656 249.554688 138.867188 C 247.828125 137.027344 240.855469 130.222656 239.410156 129.378906 L 233.726562 126.066406 C 233.519531 125.941406 233.25 124.457031 233.605469 123.972656 C 236.917969 119.554688 239.148438 114.070312 238.796875 108.539062 C 238.804688 108.15625 238.707031 107.800781 238.503906 107.472656 C 238.238281 107.171875 237.910156 106.976562 237.519531 106.878906 C 234.398438 105.820312 231.238281 105.691406 228.039062 106.484375 C 226.070312 107.046875 224.171875 107.785156 222.339844 108.695312 L 217.1875 111.050781 C 215.714844 111.71875 210.054688 115.664062 208.667969 116.890625 C 205.53125 119.664062 194.105469 125.359375 194.105469 125.359375 C 190.183594 128.355469 186.042969 132.109375 185.867188 137.039062 C 185.8125 138.527344 186.808594 145.527344 186.742188 147.558594 C 186.671875 149.765625 186.371094 152.011719 186.558594 154.226562 C 186.816406 157.34375 188.027344 160.308594 189.523438 163.0625 C 194.617188 172.367188 203.136719 179.371094 212.316406 184.710938 C 217.097656 187.5 222.210938 189.929688 227.683594 190.800781 C 232.410156 191.539062 236.882812 192.378906 241.664062 191.871094 C 244.066406 191.613281 246.851562 190.074219 249.101562 189.179688 C 251.351562 188.285156 253.425781 186.703125 254.386719 184.480469 C 255.789062 181.191406 254.582031 177.496094 253.992188 174.003906 Z M 253.992188 174.003906 " fill-opacity="1" fill-rule="nonzero"/><path fill="#ffa05f" d="M 140.519531 193.082031 C 140.84375 194.433594 141.347656 195.714844 142.039062 196.925781 C 142.726562 198.132812 143.570312 199.222656 144.570312 200.191406 C 145.570312 201.160156 146.683594 201.96875 147.914062 202.617188 C 149.144531 203.269531 150.4375 203.734375 151.800781 204.015625 C 152.289062 204.078125 152.761719 204.207031 153.210938 204.40625 C 153.585938 204.640625 153.925781 204.921875 154.222656 205.253906 C 155.507812 206.492188 156.925781 207.542969 158.484375 208.414062 C 160.039062 209.28125 161.683594 209.9375 163.410156 210.378906 C 165.136719 210.824219 166.890625 211.039062 168.671875 211.023438 C 170.457031 211.011719 172.207031 210.773438 173.925781 210.304688 C 174.5625 210.078125 175.214844 209.945312 175.890625 209.914062 C 176.777344 209.914062 177.605469 210.324219 178.417969 210.675781 C 181.839844 212.144531 185.410156 212.785156 189.128906 212.597656 C 192.054688 212.445312 195.285156 211.511719 196.691406 208.941406 C 196.914062 208.433594 197.1875 207.957031 197.511719 207.507812 C 198.792969 206.035156 201.15625 206.769531 203.03125 207.351562 C 210.839844 209.726562 220.109375 205.847656 223.769531 198.550781 C 224.953125 196.191406 225.527344 193.195312 224.058594 191.003906 C 222.375 190.96875 220.992188 189.753906 219.523438 188.929688 C 217.074219 187.558594 214.179688 187.242188 211.578125 186.1875 C 209.078125 185.171875 206.910156 183.496094 204.773438 181.839844 C 200.726562 178.714844 196.65625 175.539062 193.539062 171.503906 C 191.464844 168.824219 189.855469 165.820312 188.269531 162.832031 L 185.480469 157.597656 C 184.34375 160.546875 182.960938 163.375 181.339844 166.085938 C 179.714844 168.796875 177.875 171.347656 175.816406 173.746094 C 173.757812 176.140625 171.511719 178.34375 169.078125 180.355469 C 166.640625 182.367188 164.054688 184.160156 161.3125 185.730469 C 155.058594 189.292969 148.148438 191.585938 141.296875 193.828125 " fill-opacity="1" fill-rule="nonzero"/><path fill="#ffd2a1" d="M 125.53125 135.632812 C 125.46875 135.46875 124.945312 136 124.871094 136.074219 C 124.078125 136.808594 123.296875 137.574219 122.472656 138.28125 C 120.980469 139.578125 119.355469 138.398438 118.082031 137.390625 C 116.808594 136.382812 115.566406 135.183594 114.214844 134.167969 C 111.195312 131.9375 107.535156 130.988281 103.945312 130.113281 C 103.886719 130.09375 103.832031 130.109375 103.789062 130.152344 C 102.804688 131.265625 102.4375 132.609375 102.238281 134.0625 C 101.972656 136.140625 101.851562 138.226562 101.871094 140.320312 C 101.867188 144.589844 102.375 148.800781 103.394531 152.945312 C 104.328125 156.75 105.554688 161.121094 107.808594 164.386719 C 108.332031 165.125 109.261719 169.070312 109.402344 170.257812 C 109.671875 172.511719 111.792969 180.867188 112.796875 182.523438 C 113.796875 184.179688 115.253906 185.511719 116.738281 186.738281 C 117.527344 187.394531 118.59375 188.613281 119.753906 188.253906 C 121.152344 187.820312 122.117188 185.429688 122.773438 184.300781 C 123.84375 182.449219 124.792969 180.539062 125.621094 178.570312 C 126.355469 176.792969 127.257812 174.84375 127.460938 172.902344 C 127.660156 170.957031 126.617188 169.496094 126.09375 167.683594 C 125.449219 165.472656 125.222656 161.992188 127.027344 160.203125 C 127.742188 159.492188 129.96875 157.550781 130.046875 156.96875 C 130.261719 154.800781 129.773438 152.414062 129.453125 150.265625 C 128.699219 145.242188 127.390625 140.363281 125.53125 135.632812 Z M 125.53125 135.632812 " fill-opacity="1" fill-rule="nonzero"/><path fill="#ffd2a1" d="M 276.304688 139.921875 C 273.609375 136.09375 268.246094 137.636719 264.601562 138.746094 C 262.394531 139.414062 260.183594 140.132812 258.191406 141.320312 C 257.652344 141.648438 257.136719 142 256.640625 142.386719 C 255.972656 142.90625 255.863281 143.195312 254.941406 143.019531 C 253.414062 142.726562 252.179688 140.863281 251.332031 139.648438 C 251.28125 139.574219 251.21875 139.554688 251.136719 139.585938 L 250.886719 138.945312 L 250.941406 138.84375 C 251.027344 138.691406 250.785156 138.550781 250.703125 138.707031 C 249.597656 140.722656 248.472656 142.753906 247.71875 144.929688 C 246.9375 147.1875 246.722656 149.507812 246.640625 151.875 C 246.433594 156.53125 246.53125 161.179688 246.925781 165.824219 C 247.285156 170.179688 248.171875 174.421875 249.589844 178.554688 C 250.300781 180.5625 251.183594 182.496094 252.230469 184.347656 C 252.851562 185.453125 253.480469 186.820312 254.867188 186.007812 C 257.96875 184.199219 260.820312 180.957031 262.085938 177.59375 C 262.414062 176.617188 262.660156 175.621094 262.824219 174.601562 C 263.101562 173.171875 263.679688 171.878906 264.5625 170.722656 C 266.148438 168.578125 267.769531 166.460938 269.375 164.328125 C 272.222656 160.539062 275.144531 156.8125 276.488281 152.179688 C 277.113281 150.015625 277.425781 147.808594 277.425781 145.554688 C 277.433594 143.714844 277.402344 141.476562 276.304688 139.921875 Z M 276.304688 139.921875 " fill-opacity="1" fill-rule="nonzero"/><path fill="#ffd2a1" d="M 181.921875 153.9375 C 179.195312 154.359375 177.246094 156.449219 176.625 159.089844 C 175.914062 162.121094 177.128906 165.183594 178.894531 167.617188 C 178.871094 167.679688 179.242188 167.675781 179.21875 167.644531 C 181.078125 164.234375 182.898438 160.6875 184.425781 157.125 C 184.707031 156.476562 185.769531 154.8125 185.160156 154.0625 C 184.554688 153.3125 182.65625 153.8125 181.921875 153.9375 Z M 181.921875 153.9375 " fill-opacity="1" fill-rule="nonzero"/><path fill="#ffd2a1" d="M 197.867188 122.925781 C 196.566406 123.484375 195.285156 124.097656 194.03125 124.765625 C 193.347656 125.132812 191.738281 126.15625 191.824219 126.289062 C 193.449219 129.199219 197.664062 131.226562 200.910156 129.847656 C 204.328125 128.394531 205.847656 123.960938 205.695312 120.53125 C 205.679688 120.40625 200.320312 121.871094 197.867188 122.925781 Z M 197.867188 122.925781 " fill-opacity="1" fill-rule="nonzero"/><path fill="#d32d4d" d="M 215.554688 168.609375 C 215.421875 168.820312 215.246094 168.984375 215.03125 169.105469 C 214.414062 169.511719 213.785156 169.90625 213.144531 170.285156 C 212.6875 170.554688 212.222656 170.816406 211.757812 171.070312 C 210.507812 171.757812 209.183594 172.394531 207.753906 172.402344 C 207.519531 172.425781 207.304688 172.375 207.113281 172.242188 C 206.804688 171.996094 206.851562 171.507812 206.9375 171.136719 C 207.574219 168.375 208.722656 165.84375 210.382812 163.546875 L 210.90625 163.933594 C 211.410156 164.410156 212.007812 164.691406 212.699219 164.777344 C 213.070312 164.777344 213.421875 164.855469 213.761719 165.007812 C 213.980469 165.175781 214.152344 165.382812 214.273438 165.632812 C 214.605469 166.183594 214.9375 166.734375 215.269531 167.292969 C 215.511719 167.691406 215.773438 168.1875 215.554688 168.609375 Z M 215.554688 168.609375 " fill-opacity="1" fill-rule="nonzero"/><path fill="#ff5f76" d="M 213.144531 170.285156 C 212.6875 170.554688 212.222656 170.816406 211.757812 171.070312 C 210.507812 171.757812 209.183594 172.394531 207.753906 172.402344 C 207.519531 172.425781 207.304688 172.375 207.113281 172.242188 C 206.804688 171.996094 206.851562 171.507812 206.9375 171.136719 C 207.320312 169.472656 207.898438 167.875 208.675781 166.351562 C 209.3125 166.515625 209.851562 166.84375 210.292969 167.332031 C 210.6875 167.765625 210.828125 168.257812 211.300781 168.605469 C 211.738281 168.855469 212.152344 169.140625 212.542969 169.460938 C 212.78125 169.707031 212.980469 169.980469 213.144531 170.285156 Z M 213.144531 170.285156 " fill-opacity="1" fill-rule="nonzero"/><path fill="#cca37a" d="M 111.046875 157.246094 C 108.839844 152.261719 107.609375 144.871094 107.511719 139.425781 C 107.492188 138.5 107.75 137.289062 108.675781 137.195312 C 109.152344 137.148438 109.585938 137.460938 109.960938 137.761719 C 112.230469 139.578125 114.300781 141.59375 116.175781 143.8125 C 116.320312 144.261719 116.328125 144.710938 116.195312 145.164062 C 114.023438 148.996094 112.304688 153.023438 111.042969 157.246094 " fill-opacity="1" fill-rule="nonzero"/><path fill="#cca37a" d="M 258.03125 148.429688 C 260.867188 146.59375 263.914062 145.246094 267.175781 144.382812 C 268.046875 144.148438 269.121094 144.011719 269.714844 144.691406 C 270.003906 145.082031 270.148438 145.519531 270.144531 146.003906 C 270.265625 147.769531 269.734375 149.511719 269.097656 151.15625 C 267.574219 155.121094 265.460938 158.738281 262.761719 162.011719 C 261.855469 157.53125 260.277344 153.300781 258.03125 149.316406 " fill-opacity="1" fill-rule="nonzero"/><path fill="#ffd2a1" d="M 149.929688 120.84375 C 150.023438 120.949219 149.75 120.921875 149.710938 120.785156 C 148.667969 117.382812 148.152344 113.898438 148.164062 110.335938 C 148.164062 110.074219 148.210938 109.753906 148.453125 109.664062 C 148.59375 109.625 148.726562 109.636719 148.859375 109.691406 C 150.640625 110.25 152.113281 111.445312 153.585938 112.609375 C 156.097656 114.636719 158.652344 116.703125 160.445312 119.390625 C 158.316406 119.875 150.734375 120.324219 149.957031 121.597656 " fill-opacity="1" fill-rule="nonzero"/><path fill="#ffd2a1" d="M 213.585938 119.804688 C 218.222656 116.433594 223.980469 113.300781 229.53125 111.882812 C 229.960938 111.714844 230.386719 111.722656 230.808594 111.90625 C 231.238281 112.167969 231.347656 112.746094 231.351562 113.25 C 231.371094 115.828125 229.9375 118.132812 228.554688 120.289062 C 228.0625 121.050781 227.507812 121.863281 226.648438 122.128906 C 225.992188 122.277344 225.34375 122.253906 224.699219 122.066406 L 213.585938 119.800781 " fill-opacity="1" fill-rule="nonzero"/><path fill="#000000" d="M 186.703125 134.398438 C 188.175781 135.585938 188.988281 137.429688 189.359375 139.28125 C 189.730469 141.128906 189.730469 143.039062 189.828125 144.925781 C 190.351562 153.761719 193.78125 162.332031 198.929688 169.546875 C 204.074219 176.761719 210.890625 182.691406 218.375 187.445312 C 215.433594 186.023438 212.535156 184.515625 209.683594 182.921875 C 208.027344 181.992188 206.390625 181.039062 204.835938 179.953125 C 197.171875 174.582031 192.109375 166.335938 187.257812 158.332031 C 186.589844 157.226562 185.90625 156.074219 185.765625 154.792969 C 185.648438 153.707031 185.933594 152.621094 186.132812 151.550781 C 187.238281 145.9375 186.4375 140.140625 185.621094 134.480469 " fill-opacity="0.15" fill-rule="nonzero"/><path fill="#000000" d="M 179.800781 127.519531 C 181.4375 129.566406 181.875 132.304688 182.253906 134.878906 C 182.71875 138.058594 183.1875 141.25 183.136719 144.449219 C 183.03125 152.125 179.980469 159.542969 175.597656 165.84375 C 171.214844 172.148438 165.542969 177.4375 159.6875 182.410156 C 156.988281 184.691406 154.246094 186.917969 151.460938 189.085938 L 161.257812 183.996094 C 162.347656 183.464844 163.390625 182.855469 164.394531 182.175781 C 165.101562 181.652344 165.78125 181.09375 166.433594 180.503906 C 170.945312 176.539062 175.492188 172.539062 179.109375 167.746094 C 182.671875 163.03125 185.304688 157.5 185.941406 151.625 C 186.273438 148.578125 186.066406 145.5 185.859375 142.445312 C 185.785156 140.910156 185.621094 139.382812 185.363281 137.867188 C 184.78125 134.78125 183.527344 132 181.605469 129.515625 " fill-opacity="0.15" fill-rule="nonzero"/><path fill="#d6844c" d="M 225.734375 193 C 225.707031 192.757812 225 190.789062 224.453125 190.316406 C 223.773438 189.722656 217.71875 187.578125 215.554688 186.8125 C 214.269531 186.386719 213.007812 185.894531 211.773438 185.339844 C 210.738281 184.84375 199.542969 176.804688 195.765625 172.484375 C 195.398438 173.144531 193.007812 181.152344 193.09375 181.394531 C 193.484375 182.519531 187.867188 191.699219 184.367188 195.332031 C 183.414062 196.328125 182.390625 197.335938 181.933594 198.644531 C 181.746094 199.273438 181.609375 199.914062 181.527344 200.5625 C 180.910156 204.101562 179.449219 207.242188 177.136719 209.992188 C 177.0625 210.183594 177.0625 210.375 177.136719 210.570312 C 177.546875 211.085938 179.050781 212.746094 179.324219 212.476562 C 179.324219 212.476562 181.925781 209.96875 182.496094 208.597656 C 183.253906 206.777344 183.816406 204.898438 184.183594 202.964844 C 184.257812 202.425781 184.382812 201.898438 184.550781 201.382812 C 184.863281 200.664062 185.273438 200.003906 185.78125 199.40625 L 192.59375 190.535156 C 194.335938 193.878906 195.980469 197.320312 196.699219 201.019531 C 197.433594 204.886719 197.085938 209.117188 194.917969 212.398438 C 195.675781 211.914062 196.359375 211.347656 196.976562 210.691406 C 197.59375 210.039062 198.121094 209.320312 198.558594 208.535156 C 199 207.753906 199.335938 206.929688 199.570312 206.0625 C 199.808594 205.195312 199.933594 204.3125 199.949219 203.414062 C 199.949219 201.941406 195.28125 188.46875 194.769531 186.960938 C 195.253906 185.695312 196.777344 181.707031 197.347656 181.183594 C 197.6875 180.859375 198.097656 180.675781 198.566406 180.632812 C 201.082031 183.816406 209.117188 189.003906 213.488281 191 C 215.828125 192.050781 218.277344 192.710938 220.828125 192.984375 C 221.40625 193.269531 221.761719 193.726562 221.894531 194.359375 C 222.011719 195.121094 221.550781 195.832031 221.089844 196.460938 C 220.003906 197.894531 218.792969 199.210938 217.453125 200.410156 C 216.113281 201.609375 214.667969 202.667969 213.125 203.589844 C 211.578125 204.507812 209.960938 205.273438 208.265625 205.878906 C 206.574219 206.488281 204.839844 206.925781 203.058594 207.195312 C 204.824219 207.804688 206.636719 208.152344 208.5 208.238281 C 210.359375 208.328125 212.199219 208.15625 214.011719 207.71875 C 217.351562 206.914062 220.511719 205.167969 222.734375 202.566406 C 224.960938 199.964844 226.160156 196.410156 225.734375 193 Z M 225.734375 193 " fill-opacity="1" fill-rule="nonzero"/><path fill="#d6844c" d="M 173.019531 175.496094 C 169.339844 178.863281 165.660156 182.242188 161.515625 185.042969 C 154.953125 189.492188 147.214844 192.402344 139.285156 192.558594 C 139.546875 193.890625 139.984375 195.167969 140.589844 196.382812 C 140.589844 196.382812 142.796875 199.632812 144.039062 200.519531 C 144.410156 200.765625 146.546875 202.792969 147.53125 202.855469 C 146.484375 201.792969 145.882812 200.515625 145.730469 199.027344 C 145.625 198.339844 145.738281 197.6875 146.0625 197.070312 C 146.125 196.972656 146.191406 196.878906 146.269531 196.789062 C 148.773438 196.6875 151.199219 196.207031 153.554688 195.347656 C 154.773438 194.90625 155.960938 194.394531 157.117188 193.808594 C 161.125 192.414062 164.628906 190.21875 167.628906 187.214844 C 168.695312 186.136719 169.675781 184.976562 170.648438 183.8125 C 173.386719 180.550781 176.136719 177.273438 178.324219 173.621094 C 179.203125 172.152344 179.730469 169.964844 179.921875 168.273438 C 178.609375 169.511719 174.285156 174.339844 173.019531 175.496094 Z M 173.019531 175.496094 " fill-opacity="1" fill-rule="nonzero"/><path fill="#d6844c" d="M 195.015625 171.066406 C 194.691406 170.113281 193.980469 169.347656 193.296875 168.605469 C 190.027344 165.03125 186.515625 160.9375 185.871094 156.136719 C 185.089844 158.167969 181.894531 163.902344 181.292969 164.972656 C 180.746094 165.960938 179.78125 170.34375 179.488281 171.457031 C 178.949219 173.476562 176.375 182.871094 174.828125 185.535156 C 174.183594 186.6875 173.472656 187.796875 172.691406 188.867188 C 171.738281 190.089844 170.703125 191.234375 169.578125 192.300781 C 164.960938 196.839844 159.925781 200.851562 154.472656 204.335938 C 154.972656 205.738281 155.746094 206.964844 156.796875 208.019531 C 156.925781 208.148438 157.066406 208.273438 157.210938 208.386719 C 157.359375 208.847656 157.867188 209.121094 158.316406 209.285156 C 160.414062 210.046875 162.730469 210.046875 164.84375 210.757812 C 165.757812 211.070312 166.699219 211.527344 167.652344 211.335938 L 165.296875 209.824219 C 164.371094 209.234375 163.34375 208.472656 163.296875 207.375 C 163.289062 206.964844 163.386719 206.578125 163.582031 206.21875 C 165.859375 204.675781 167.886719 202.703125 169.777344 200.695312 C 170.589844 199.828125 171.390625 198.949219 172.148438 198.027344 C 174.601562 195.042969 176.550781 191.757812 177.996094 188.171875 C 179.753906 192.371094 180.71875 196.742188 180.898438 201.285156 C 181.503906 194.613281 181.910156 187.742188 180.035156 181.324219 C 180.117188 180.898438 182.113281 171.660156 183.390625 167.5 C 183.953125 167.140625 184.5 166.765625 185.035156 166.375 C 186.058594 168.390625 187.367188 170.199219 188.960938 171.804688 C 190.554688 173.40625 192.355469 174.726562 194.363281 175.761719 C 194.957031 174.277344 195.535156 172.605469 195.015625 171.066406 Z M 195.015625 171.066406 " fill-opacity="1" fill-rule="nonzero"/><path fill="#563a2c" d="M 161.511719 168.929688 C 161.523438 168.785156 161.460938 168.683594 161.324219 168.632812 C 161.1875 168.582031 161.074219 168.613281 160.984375 168.726562 C 160.164062 169.875 158.335938 170.566406 157.171875 169.945312 C 156.386719 169.527344 154.894531 167.636719 154.632812 167.429688 C 155.253906 165.839844 155.675781 163.550781 154.503906 162.21875 C 153.0625 160.585938 151.265625 162.074219 150.019531 163.136719 C 149.042969 163.96875 147.078125 166.082031 148.019531 167.503906 C 148.5 168.242188 152.066406 168.609375 152.855469 168.476562 C 153.046875 168.8125 153.253906 169.136719 153.484375 169.449219 C 154.058594 170.277344 154.402344 171.195312 154.515625 172.199219 C 154.613281 173.214844 154.453125 174.0625 153.511719 174.582031 C 152.882812 174.914062 152.226562 175.167969 151.539062 175.34375 C 151.394531 175.390625 151.324219 175.488281 151.328125 175.640625 C 151.335938 175.792969 151.414062 175.882812 151.5625 175.917969 C 153.164062 176.253906 156.300781 175.828125 156.625 173.375 C 156.671875 172.945312 156.671875 172.511719 156.625 172.082031 C 157.144531 172.289062 157.683594 172.386719 158.246094 172.367188 C 158.675781 172.320312 159.085938 172.199219 159.472656 172.007812 C 159.863281 171.8125 160.207031 171.558594 160.507812 171.246094 C 160.804688 170.929688 161.039062 170.574219 161.214844 170.175781 C 161.386719 169.777344 161.484375 169.363281 161.511719 168.929688 Z M 161.511719 168.929688 " fill-opacity="1" fill-rule="nonzero"/><path fill="#563a2c" d="M 139.339844 158.554688 C 137.402344 157.328125 135.292969 156.648438 133.003906 156.515625 C 131 156.363281 128.320312 156.4375 126.613281 157.652344 C 124.679688 159.019531 123.960938 162.066406 124.355469 164.746094 C 124.355469 165.808594 125.3125 169.574219 125.796875 170.46875 C 126.226562 171.664062 126.972656 172.605469 128.042969 173.292969 C 131.976562 175.632812 136.503906 171.019531 138.890625 168.363281 C 140.21875 166.890625 141.753906 165.082031 141.863281 163.007812 C 141.964844 161.125 140.851562 159.570312 139.339844 158.554688 Z M 129.007812 167.496094 C 128.636719 167.496094 128.28125 167.425781 127.9375 167.28125 C 127.59375 167.140625 127.292969 166.9375 127.03125 166.675781 C 126.769531 166.414062 126.566406 166.109375 126.425781 165.765625 C 126.28125 165.421875 126.210938 165.066406 126.210938 164.695312 C 126.210938 164.324219 126.285156 163.964844 126.425781 163.621094 C 126.570312 163.28125 126.769531 162.976562 127.035156 162.714844 C 127.296875 162.453125 127.597656 162.25 127.941406 162.109375 C 128.285156 161.964844 128.640625 161.894531 129.015625 161.894531 C 129.386719 161.894531 129.742188 161.964844 130.085938 162.109375 C 130.429688 162.25 130.730469 162.453125 130.992188 162.714844 C 131.253906 162.980469 131.457031 163.28125 131.601562 163.625 C 131.742188 163.96875 131.8125 164.324219 131.8125 164.695312 C 131.8125 165.066406 131.742188 165.425781 131.597656 165.769531 C 131.457031 166.113281 131.253906 166.414062 130.992188 166.679688 C 130.726562 166.941406 130.425781 167.144531 130.082031 167.285156 C 129.738281 167.425781 129.378906 167.5 129.007812 167.496094 Z M 133.054688 165.003906 C 132.832031 165.003906 132.636719 164.925781 132.480469 164.765625 C 132.320312 164.605469 132.238281 164.414062 132.238281 164.1875 C 132.238281 163.960938 132.320312 163.769531 132.480469 163.609375 C 132.640625 163.449219 132.832031 163.371094 133.058594 163.371094 C 133.285156 163.371094 133.476562 163.453125 133.636719 163.613281 C 133.796875 163.773438 133.875 163.964844 133.875 164.191406 C 133.875 164.417969 133.792969 164.609375 133.636719 164.765625 C 133.476562 164.925781 133.285156 165.003906 133.058594 165.003906 Z M 133.054688 165.003906 " fill-opacity="1" fill-rule="nonzero"/><path fill="#563a2c" d="M 164.585938 139.414062 C 162.816406 137.960938 160.808594 137.023438 158.558594 136.601562 C 156.585938 136.203125 153.917969 135.941406 152.074219 136.929688 C 149.988281 138.035156 148.890625 140.980469 148.945312 143.691406 C 148.804688 144.742188 149.3125 148.597656 149.683594 149.550781 C 149.960938 150.785156 150.585938 151.8125 151.558594 152.628906 C 155.175781 155.4375 160.226562 151.425781 162.9375 149.089844 C 164.4375 147.789062 166.1875 146.195312 166.554688 144.148438 C 166.871094 142.292969 165.957031 140.609375 164.585938 139.414062 Z M 153.21875 147.003906 C 152.851562 146.957031 152.503906 146.839844 152.183594 146.65625 C 151.859375 146.472656 151.585938 146.234375 151.359375 145.941406 C 151.128906 145.644531 150.96875 145.320312 150.871094 144.960938 C 150.773438 144.605469 150.746094 144.242188 150.792969 143.871094 C 150.839844 143.503906 150.953125 143.160156 151.136719 142.835938 C 151.320312 142.515625 151.558594 142.238281 151.851562 142.011719 C 152.144531 141.78125 152.472656 141.621094 152.828125 141.523438 C 153.1875 141.421875 153.550781 141.398438 153.917969 141.445312 C 154.285156 141.488281 154.632812 141.605469 154.953125 141.789062 C 155.277344 141.972656 155.554688 142.210938 155.78125 142.503906 C 156.007812 142.796875 156.171875 143.121094 156.269531 143.480469 C 156.367188 143.835938 156.394531 144.199219 156.347656 144.570312 C 156.304688 144.9375 156.1875 145.285156 156.003906 145.609375 C 155.820312 145.933594 155.582031 146.207031 155.289062 146.4375 C 154.996094 146.664062 154.667969 146.828125 154.308594 146.925781 C 153.949219 147.023438 153.585938 147.050781 153.21875 147.003906 Z M 157.550781 145.03125 C 157.324219 145.003906 157.144531 144.902344 157.003906 144.722656 C 156.863281 144.546875 156.808594 144.34375 156.835938 144.121094 C 156.863281 143.898438 156.96875 143.714844 157.144531 143.578125 C 157.324219 143.4375 157.527344 143.382812 157.75 143.410156 C 157.972656 143.4375 158.15625 143.542969 158.292969 143.722656 C 158.433594 143.898438 158.488281 144.101562 158.457031 144.324219 C 158.429688 144.546875 158.324219 144.726562 158.148438 144.863281 C 157.972656 145 157.773438 145.058594 157.554688 145.03125 Z M 157.550781 145.03125 " fill-opacity="1" fill-rule="nonzero"/><path fill="#563a2c" d="M 217.402344 143.757812 C 218.003906 144.925781 218.289062 146.289062 218.992188 147.386719 C 219.082031 147.535156 219.214844 147.59375 219.382812 147.574219 C 219.550781 147.550781 219.660156 147.460938 219.710938 147.296875 C 220.628906 144.554688 218.496094 141.066406 216.671875 139.179688 C 214.238281 136.664062 211.296875 135.71875 207.871094 135.769531 C 207.40625 135.769531 207.265625 136.503906 207.753906 136.605469 C 210.648438 137.203125 213.132812 138.550781 215.207031 140.65625 C 216.089844 141.585938 216.820312 142.621094 217.402344 143.757812 Z M 217.402344 143.757812 " fill-opacity="1" fill-rule="nonzero"/><path fill="#563a2c" d="M 234.910156 160.070312 C 234.789062 160.074219 234.6875 160.117188 234.597656 160.199219 C 234.511719 160.277344 234.460938 160.378906 234.445312 160.496094 C 234.425781 160.613281 234.449219 160.722656 234.511719 160.824219 C 234.574219 160.921875 234.664062 160.992188 234.777344 161.03125 C 237.179688 161.691406 239.257812 162.914062 241.011719 164.6875 C 241.859375 165.523438 242.59375 166.445312 243.21875 167.457031 C 243.921875 168.707031 244.058594 170.210938 244.75 171.460938 C 244.898438 171.738281 245.253906 171.574219 245.285156 171.316406 C 245.652344 168.488281 244.339844 165.058594 242.34375 163.066406 C 241.367188 162.066406 240.234375 161.304688 238.941406 160.785156 C 237.648438 160.261719 236.304688 160.023438 234.910156 160.070312 Z M 234.910156 160.070312 " fill-opacity="1" fill-rule="nonzero"/><path fill="#563a2c" d="M 277.546875 140.457031 C 275.894531 136.808594 271.363281 136.683594 267.902344 137.113281 C 265.496094 137.457031 263.183594 138.125 260.964844 139.117188 C 259.859375 139.59375 258.757812 140.109375 257.683594 140.679688 C 257.066406 141 256.472656 141.355469 255.898438 141.75 C 255.59375 141.980469 255.3125 142.234375 255.050781 142.515625 C 251.644531 137.925781 247.671875 133.894531 243.125 130.429688 C 240.402344 128.339844 237.527344 126.488281 234.5 124.875 C 235.332031 123.722656 235.996094 122.476562 236.5 121.148438 C 237.234375 119.230469 238.160156 117.308594 238.765625 115.351562 C 239.042969 114.429688 239.25 113.492188 239.390625 112.539062 C 239.515625 111.679688 239.875 110.886719 239.980469 110.019531 C 240.136719 108.722656 239.949219 107.074219 239.09375 106.039062 C 237.941406 104.640625 235.894531 104.710938 234.246094 104.566406 C 231.875 104.292969 229.519531 104.390625 227.179688 104.855469 C 222.886719 105.808594 218.875 108.089844 215.144531 110.351562 C 212.96875 111.664062 210.871094 113.089844 208.847656 114.628906 C 207.003906 116.027344 205.308594 117.585938 203.757812 119.300781 C 197.242188 120.632812 191.859375 123.824219 188.15625 128.652344 C 187.152344 129.960938 186.292969 131.359375 185.582031 132.847656 C 184.765625 131.15625 183.761719 129.582031 182.566406 128.128906 C 181.121094 126.378906 179.460938 124.863281 177.59375 123.574219 C 175.722656 122.289062 173.714844 121.277344 171.566406 120.550781 C 167.792969 111.40625 157.289062 106.613281 148.957031 102.5625 C 147.203125 101.703125 144.910156 100.386719 143.070312 101.792969 C 141.632812 102.898438 141.347656 105.105469 141.296875 106.789062 C 141.246094 109.398438 141.421875 111.992188 141.832031 114.574219 C 142.226562 117.179688 143.113281 119.621094 144.039062 122.070312 C 138.066406 124.402344 132.609375 127.613281 127.667969 131.699219 C 125.390625 133.566406 123.25 135.582031 121.253906 137.75 C 118.628906 135.269531 115.730469 133.160156 112.554688 131.429688 C 109.980469 130.003906 105.332031 127.015625 102.535156 129.390625 C 101.300781 130.453125 101.003906 132.167969 100.964844 133.71875 C 100.972656 136.058594 101.121094 138.390625 101.414062 140.710938 C 101.867188 145.164062 102 149.628906 102.855469 154.035156 C 103.785156 158.820312 105.242188 163.914062 107.847656 168.097656 C 107.777344 174.519531 109.65625 180.292969 113.402344 184.863281 C 118.375 190.929688 126.0625 194.191406 135.257812 194.191406 C 136.1875 194.191406 137.136719 194.160156 138.09375 194.09375 C 138.433594 194.066406 138.769531 194.042969 139.109375 194.007812 C 138.742188 197.5625 141.6875 201.535156 144.425781 203.300781 C 145.773438 204.148438 147.230469 204.71875 148.796875 205.011719 C 150.359375 205.304688 151.925781 205.296875 153.488281 204.992188 C 154.167969 208.546875 157.484375 210.714844 160.847656 211.59375 C 164.921875 212.65625 169.710938 213.84375 173.851562 212.464844 C 174.707031 212.175781 175.511719 211.789062 176.273438 211.300781 C 177.007812 212.859375 179.070312 213.777344 180.589844 214.28125 C 182.9375 215.066406 185.503906 215.066406 187.953125 214.855469 C 191.925781 214.515625 197.019531 214.171875 199.140625 210.21875 C 199.585938 209.378906 199.890625 208.488281 200.0625 207.554688 C 200.949219 208.117188 201.894531 208.5625 202.894531 208.878906 C 204.195312 209.347656 205.527344 209.667969 206.898438 209.835938 C 208.269531 210.003906 209.640625 210.015625 211.015625 209.875 C 212.390625 209.734375 213.730469 209.441406 215.039062 208.996094 C 216.34375 208.550781 217.585938 207.964844 218.761719 207.242188 C 223.21875 204.386719 228.523438 197.898438 227.195312 192.179688 C 229.683594 192.703125 232.199219 193.015625 234.738281 193.117188 C 235.257812 193.136719 235.773438 193.148438 236.285156 193.148438 C 246.054688 193.148438 254.125 189.605469 259.097656 183.085938 C 261.515625 179.914062 263.054688 176.363281 263.71875 172.429688 C 265.09375 171.367188 266.195312 169.9375 267.296875 168.613281 C 268.804688 166.820312 270.21875 164.953125 271.535156 163.015625 C 274.003906 159.332031 275.554688 155.421875 277 151.28125 C 278.140625 148.007812 279.035156 143.757812 277.546875 140.457031 Z M 216.09375 112.5 C 220.242188 110.050781 224.792969 107.53125 229.648438 106.925781 C 230.992188 106.769531 232.339844 106.691406 233.695312 106.683594 C 234.835938 106.683594 236.363281 106.476562 237.40625 106.957031 C 239.160156 107.761719 238.917969 110.863281 238.492188 112.414062 C 237.871094 114.667969 237.304688 117.375 235.992188 119.332031 C 234.933594 120.898438 233.679688 122.347656 232.558594 123.875 C 225.984375 120.683594 219.140625 118.878906 212.519531 118.628906 C 210.488281 118.550781 208.464844 118.632812 206.445312 118.871094 C 209.605469 116.683594 212.765625 114.457031 216.074219 112.5 Z M 193.683594 173.191406 C 193.582031 174.464844 193.394531 175.722656 193.113281 176.964844 C 192.859375 178.152344 192.53125 179.332031 192.207031 180.503906 C 191.839844 181.824219 191.527344 183.257812 190.949219 184.496094 C 189.878906 186.789062 188.558594 188.925781 186.992188 190.914062 C 185.707031 192.535156 184.195312 194.023438 182.75 195.535156 C 182.820312 193.878906 182.820312 192.28125 182.796875 190.828125 C 182.648438 185.34375 181.765625 179.976562 180.152344 174.730469 C 180.199219 174.554688 180.238281 174.363281 180.28125 174.195312 C 181.019531 171.078125 182.011719 167.9375 182.398438 164.746094 C 183.703125 162.417969 184.804688 160 185.710938 157.492188 C 187.671875 162.539062 190.371094 167.152344 193.804688 171.332031 C 193.726562 171.921875 193.695312 172.535156 193.664062 173.191406 Z M 143.558594 108.9375 C 143.527344 107.875 143.484375 106.828125 143.410156 105.773438 C 143.332031 104.671875 143.4375 102.984375 144.941406 102.917969 C 146.078125 102.863281 147.308594 103.742188 148.296875 104.21875 C 149.34375 104.707031 150.390625 105.222656 151.429688 105.757812 C 155.414062 107.769531 159.132812 110.195312 162.582031 113.027344 C 165.082031 115.152344 167.398438 117.460938 169.539062 119.945312 C 165.707031 118.949219 161.820312 118.609375 157.871094 118.925781 C 153.441406 119.261719 149.144531 120.199219 144.976562 121.738281 C 143.792969 117.679688 143.679688 113.105469 143.558594 108.9375 Z M 108.121094 164.191406 C 107.230469 160.757812 106.152344 157.355469 105.328125 153.90625 C 104.128906 148.902344 102.949219 143.96875 102.988281 138.78125 C 102.988281 137.601562 103.039062 136.410156 103.066406 135.226562 C 103.066406 134.1875 103.007812 132.921875 103.398438 131.914062 C 104.4375 129.269531 108.128906 131.441406 109.773438 132.28125 C 113.449219 134.183594 116.808594 136.535156 119.851562 139.339844 C 114.753906 145.292969 111.078125 151.972656 109.203125 158.816406 C 108.71875 160.582031 108.355469 162.375 108.121094 164.191406 Z M 135.300781 191.824219 C 127.113281 191.824219 119.882812 189.042969 115.222656 183.359375 C 110.246094 177.285156 108.914062 168.789062 111.472656 159.433594 C 113.191406 153.144531 116.527344 146.992188 121.140625 141.449219 C 121.394531 141.144531 122.867188 139.472656 122.980469 139.34375 C 124.902344 137.253906 126.964844 135.316406 129.160156 133.519531 C 139.117188 125.355469 150.613281 121.160156 160.667969 121.160156 C 168.855469 121.160156 176.085938 123.945312 180.746094 129.628906 C 185.726562 135.707031 187.058594 144.195312 184.5 153.554688 C 181.898438 163.046875 175.617188 172.25 166.8125 179.472656 C 156.855469 187.628906 145.359375 191.824219 135.300781 191.824219 Z M 148.917969 202.652344 C 147.796875 202.332031 146.757812 201.839844 145.804688 201.171875 C 144.851562 200.507812 144.035156 199.699219 143.351562 198.757812 C 142.207031 197.175781 141.824219 195.46875 141.238281 193.734375 C 150.546875 192.398438 160.039062 188.046875 168.285156 181.28125 C 172.453125 177.886719 176.105469 174.003906 179.246094 169.640625 C 179.097656 170.375 178.945312 171.082031 178.785156 171.789062 C 178.625 172.496094 177.203125 177.3125 176.898438 178.148438 C 175.382812 182.296875 173.265625 186.113281 170.546875 189.597656 C 167.71875 193.09375 164.519531 196.203125 160.945312 198.925781 C 157.410156 201.695312 153.53125 203.933594 148.929688 202.652344 Z M 166.183594 210.34375 C 163.855469 209.929688 161.257812 209.480469 159.101562 208.480469 C 157.261719 207.640625 156.15625 206.078125 154.875 204.644531 C 155.714844 204.398438 156.523438 204.074219 157.300781 203.671875 C 159.566406 202.5 161.585938 200.816406 163.59375 199.253906 C 165.695312 197.691406 167.6875 196.003906 169.570312 194.183594 C 173.082031 190.644531 175.828125 186.582031 177.800781 182.003906 C 178.171875 181.167969 178.484375 180.332031 178.769531 179.492188 C 179.691406 183.308594 180.304688 187.175781 180.609375 191.089844 C 180.976562 195.898438 181.347656 201.613281 178.703125 205.902344 C 175.957031 210.417969 171.082031 211.234375 166.199219 210.34375 Z M 198.226562 207.382812 C 196.679688 211.460938 192.207031 211.699219 188.492188 212.074219 C 186.3125 212.296875 184.078125 212.414062 181.953125 211.886719 C 180.460938 211.519531 179.230469 210.574219 177.871094 210.007812 C 180.667969 207.296875 181.921875 203.15625 182.429688 198.964844 C 182.738281 198.949219 182.996094 198.828125 183.203125 198.597656 C 185.132812 196.628906 186.625 194.472656 188.160156 192.214844 C 189.808594 189.871094 191.296875 187.429688 192.632812 184.894531 C 192.734375 184.691406 192.839844 184.492188 192.945312 184.296875 C 193.539062 187.828125 194.785156 191.339844 195.847656 194.710938 C 197.097656 198.652344 199.835938 203.167969 198.238281 207.382812 Z M 225.015625 195.816406 C 224.636719 197.269531 224.015625 198.613281 223.152344 199.84375 C 222.300781 201.03125 221.316406 202.097656 220.207031 203.046875 C 219.09375 203.996094 217.882812 204.796875 216.574219 205.449219 C 215.265625 206.101562 213.898438 206.585938 212.472656 206.902344 C 211.046875 207.222656 209.601562 207.363281 208.140625 207.328125 C 206.566406 207.28125 205.015625 207.042969 203.5 206.617188 C 202.441406 206.316406 201.359375 205.753906 200.261719 205.511719 C 200.328125 202.683594 199.566406 199.738281 199.003906 197.101562 C 198.445312 194.460938 197.597656 191.945312 196.796875 189.40625 C 196.035156 186.921875 195.324219 184.40625 194.101562 182.105469 C 194.242188 181.8125 194.382812 181.519531 194.507812 181.214844 C 195.003906 179.980469 195.375 178.707031 195.613281 177.398438 C 195.851562 176.304688 196.03125 175.199219 196.152344 174.085938 C 198.589844 176.726562 201.230469 179.136719 204.082031 181.320312 C 210.183594 186.058594 216.953125 189.460938 224.390625 191.527344 C 225.082031 192.878906 225.402344 194.273438 225.03125 195.816406 Z M 257.230469 181.65625 C 250.757812 190.121094 238.699219 192.640625 225.953125 189.484375 C 225.453125 189.347656 225.035156 189.230469 224.636719 189.140625 C 217.648438 187.136719 211.277344 183.90625 205.535156 179.445312 C 196.316406 172.378906 189.710938 163.25 186.875 153.679688 C 188.539062 147.285156 188.492188 141.25 186.800781 136.011719 C 187.546875 133.878906 188.609375 131.914062 189.984375 130.121094 C 194.765625 123.886719 202.726562 120.644531 212.40625 121.011719 C 218.847656 121.253906 225.527344 123.0625 231.910156 126.230469 C 232.078125 126.386719 232.277344 126.488281 232.507812 126.527344 C 235.734375 128.183594 238.789062 130.117188 241.664062 132.328125 C 260.230469 146.515625 267.207031 168.65625 257.246094 181.65625 Z M 276.488281 147.207031 C 276.15625 149.664062 275.460938 152.011719 274.402344 154.25 C 273.328125 156.367188 272.113281 158.398438 270.753906 160.34375 C 269.28125 162.503906 267.675781 164.539062 266.03125 166.554688 C 265.425781 167.292969 264.765625 168.027344 264.136719 168.765625 C 264.269531 164.71875 263.714844 160.769531 262.480469 156.914062 C 260.964844 152.136719 258.757812 147.699219 255.859375 143.609375 C 256.1875 143.527344 256.511719 143.425781 256.828125 143.300781 C 257.386719 143.0625 257.933594 142.789062 258.484375 142.527344 C 259.65625 141.960938 260.816406 141.421875 262.03125 140.9375 C 264.347656 140.046875 266.734375 139.429688 269.1875 139.089844 C 271.566406 138.761719 274.660156 138.5 275.96875 140.957031 C 276.964844 142.820312 276.789062 145.183594 276.488281 147.207031 Z M 276.488281 147.207031 " fill-opacity="1" fill-rule="nonzero"/><path fill="#563a2c" d="M 216.472656 157.523438 C 216.148438 157.429688 215.84375 157.464844 215.550781 157.632812 C 214.496094 158.640625 214.617188 161.414062 215.011719 162.238281 C 214.832031 162.433594 213.59375 163.46875 213.011719 163.558594 C 211.410156 163.808594 210.390625 162.453125 209.898438 161.046875 C 209.84375 160.90625 209.742188 160.84375 209.59375 160.859375 C 209.441406 160.871094 209.355469 160.953125 209.332031 161.105469 C 209.089844 162.59375 209.332031 164.746094 211.707031 165.675781 C 212.304688 165.804688 212.898438 165.804688 213.492188 165.675781 C 213.527344 166.277344 213.632812 166.863281 213.808594 167.4375 C 214.863281 169.519531 216.921875 169.988281 218.503906 169.734375 C 218.652344 169.710938 218.734375 169.621094 218.746094 169.46875 C 218.757812 169.320312 218.695312 169.21875 218.550781 169.167969 C 216.6875 168.511719 215.53125 167.378906 215.542969 165.855469 C 215.542969 165.332031 216.605469 164.042969 216.882812 163.726562 C 218.863281 164.753906 220.929688 164.566406 221.625 163.765625 C 222.023438 162.140625 220.371094 160.96875 219.363281 159.816406 C 218.289062 158.597656 216.988281 157.640625 216.472656 157.523438 Z M 216.472656 157.523438 " fill-opacity="1" fill-rule="nonzero"/><path fill="#ff5f76" d="M 239.511719 174.863281 C 238.628906 173.644531 237.542969 172.652344 236.25 171.882812 C 235.492188 171.445312 233.601562 170.503906 232.695312 170.949219 C 232.003906 171.289062 232.324219 172.328125 232.550781 172.890625 C 232.613281 173.050781 232.6875 173.210938 232.769531 173.363281 C 232.980469 174.125 233.589844 174.746094 234.15625 175.351562 C 235.261719 176.546875 236.4375 177.507812 238.023438 177.96875 C 238.757812 178.175781 240.164062 178.707031 240.574219 177.789062 C 240.960938 176.9375 239.980469 175.496094 239.511719 174.863281 Z M 239.511719 174.863281 " fill-opacity="1" fill-rule="nonzero"/><path fill="#ff5f76" d="M 202.527344 138.421875 C 201.769531 137.984375 199.875 137.046875 198.96875 137.492188 C 198.28125 137.828125 198.601562 138.863281 198.824219 139.429688 C 198.886719 139.589844 198.960938 139.746094 199.046875 139.898438 C 199.253906 140.660156 199.867188 141.28125 200.433594 141.894531 C 201.535156 143.085938 202.710938 144.046875 204.296875 144.507812 C 205.015625 144.714844 206.4375 145.242188 206.851562 144.328125 C 207.238281 143.476562 206.253906 142.035156 205.785156 141.402344 C 204.90625 140.183594 203.820312 139.1875 202.527344 138.421875 Z M 202.527344 138.421875 " fill-opacity="1" fill-rule="nonzero"/><path fill="#ff5f76" d="M 174.816406 146.082031 C 173.992188 145.457031 172.398438 146.285156 171.660156 146.699219 C 170.355469 147.421875 169.242188 148.371094 168.328125 149.550781 C 167.78125 150.285156 166.640625 152 166.949219 152.980469 C 167.144531 153.597656 167.871094 153.546875 168.421875 153.464844 C 168.734375 153.421875 169.035156 153.339844 169.324219 153.222656 C 170.261719 153.097656 171.097656 152.382812 171.859375 151.804688 C 172.992188 151.011719 173.863281 149.992188 174.464844 148.746094 C 174.761719 148.117188 175.558594 146.660156 174.816406 146.082031 Z M 174.816406 146.082031 " fill-opacity="1" fill-rule="nonzero"/><path fill="#ff5f76" d="M 137.542969 175.53125 C 136.71875 174.902344 135.125 175.730469 134.386719 176.144531 C 133.082031 176.867188 131.96875 177.820312 131.050781 178.996094 C 130.511719 179.734375 129.371094 181.449219 129.679688 182.425781 C 129.875 183.046875 130.597656 182.996094 131.152344 182.914062 C 131.460938 182.871094 131.757812 182.789062 132.046875 182.667969 C 132.992188 182.546875 133.820312 181.832031 134.585938 181.253906 C 135.722656 180.460938 136.589844 179.441406 137.191406 178.195312 C 137.492188 177.5625 138.285156 176.105469 137.542969 175.53125 Z M 137.542969 175.53125 " fill-opacity="1" fill-rule="nonzero"/><path fill="#ff5f76" d="M 153 163.582031 C 152.675781 163.40625 152.363281 163.421875 152.058594 163.628906 C 151.183594 164.058594 150.488281 164.6875 149.972656 165.515625 C 149.828125 165.75 149.71875 166.082031 149.894531 166.28125 L 149.789062 166.253906 L 149.914062 166.296875 C 150.011719 166.371094 150.121094 166.40625 150.242188 166.402344 C 150.789062 166.570312 151.347656 166.679688 151.917969 166.730469 C 152.15625 166.769531 152.386719 166.75 152.609375 166.667969 C 152.945312 166.472656 153.144531 166.179688 153.210938 165.796875 C 153.363281 165.230469 153.375 164.65625 153.25 164.082031 C 153.226562 163.886719 153.140625 163.71875 153 163.582031 Z M 153 163.582031 " fill-opacity="1" fill-rule="nonzero"/><path fill="#ff5f76" d="M 219.453125 162.382812 C 219.273438 161.761719 218.949219 161.230469 218.480469 160.789062 C 218.027344 160.355469 217.535156 159.96875 217.011719 159.625 C 216.9375 159.554688 216.847656 159.527344 216.75 159.542969 C 216.632812 159.578125 216.597656 159.71875 216.585938 159.839844 C 216.539062 160.351562 216.582031 160.851562 216.714844 161.34375 C 216.742188 161.644531 216.867188 161.902344 217.085938 162.117188 C 217.28125 162.273438 217.503906 162.382812 217.753906 162.441406 C 218.042969 162.523438 218.332031 162.585938 218.628906 162.636719 C 218.875 162.699219 219.121094 162.699219 219.367188 162.636719 C 219.402344 162.621094 219.433594 162.601562 219.460938 162.574219 C 219.492188 162.507812 219.488281 162.445312 219.453125 162.382812 Z M 219.453125 162.382812 " fill-opacity="1" fill-rule="nonzero"/><g fill="#563a2c" fill-opacity="1"><g transform="translate(95.459074, 272.528653)"><g><path d="M 1.375 0 C 1.28125 0 1.195312 -0.03125 1.125 -0.09375 C 1.0625 -0.164062 1.03125 -0.25 1.03125 -0.34375 L 1.03125 -9.453125 C 1.03125 -9.554688 1.0625 -9.640625 1.125 -9.703125 C 1.195312 -9.765625 1.28125 -9.796875 1.375 -9.796875 L 5.203125 -9.796875 C 5.960938 -9.796875 6.617188 -9.675781 7.171875 -9.4375 C 7.734375 -9.207031 8.171875 -8.859375 8.484375 -8.390625 C 8.796875 -7.921875 8.953125 -7.332031 8.953125 -6.625 C 8.953125 -5.925781 8.796875 -5.34375 8.484375 -4.875 C 8.171875 -4.414062 7.734375 -4.070312 7.171875 -3.84375 C 6.617188 -3.625 5.960938 -3.515625 5.203125 -3.515625 L 3.328125 -3.515625 L 3.328125 -0.34375 C 3.328125 -0.25 3.296875 -0.164062 3.234375 -0.09375 C 3.171875 -0.03125 3.085938 0 2.984375 0 Z M 3.296875 -5.25 L 5.140625 -5.25 C 5.617188 -5.25 5.988281 -5.363281 6.25 -5.59375 C 6.507812 -5.832031 6.640625 -6.179688 6.640625 -6.640625 C 6.640625 -7.054688 6.519531 -7.394531 6.28125 -7.65625 C 6.039062 -7.914062 5.660156 -8.046875 5.140625 -8.046875 L 3.296875 -8.046875 Z M 3.296875 -5.25 "/></g></g></g><g fill="#563a2c" fill-opacity="1"><g transform="translate(111.105864, 272.528653)"><g><path d="M 4.921875 0.140625 C 4.078125 0.140625 3.347656 0 2.734375 -0.28125 C 2.117188 -0.5625 1.632812 -0.984375 1.28125 -1.546875 C 0.9375 -2.109375 0.753906 -2.820312 0.734375 -3.6875 C 0.722656 -4.082031 0.71875 -4.476562 0.71875 -4.875 C 0.71875 -5.269531 0.722656 -5.675781 0.734375 -6.09375 C 0.753906 -6.925781 0.9375 -7.628906 1.28125 -8.203125 C 1.632812 -8.785156 2.125 -9.21875 2.75 -9.5 C 3.375 -9.789062 4.097656 -9.9375 4.921875 -9.9375 C 5.742188 -9.9375 6.460938 -9.789062 7.078125 -9.5 C 7.703125 -9.21875 8.191406 -8.785156 8.546875 -8.203125 C 8.910156 -7.628906 9.101562 -6.925781 9.125 -6.09375 C 9.144531 -5.675781 9.15625 -5.269531 9.15625 -4.875 C 9.15625 -4.476562 9.144531 -4.082031 9.125 -3.6875 C 9.101562 -2.820312 8.914062 -2.109375 8.5625 -1.546875 C 8.207031 -0.984375 7.722656 -0.5625 7.109375 -0.28125 C 6.492188 0 5.765625 0.140625 4.921875 0.140625 Z M 4.921875 -1.6875 C 5.460938 -1.6875 5.910156 -1.847656 6.265625 -2.171875 C 6.617188 -2.492188 6.800781 -3.019531 6.8125 -3.75 C 6.832031 -4.164062 6.84375 -4.550781 6.84375 -4.90625 C 6.84375 -5.269531 6.832031 -5.648438 6.8125 -6.046875 C 6.800781 -6.535156 6.710938 -6.929688 6.546875 -7.234375 C 6.378906 -7.546875 6.15625 -7.769531 5.875 -7.90625 C 5.601562 -8.050781 5.285156 -8.125 4.921875 -8.125 C 4.566406 -8.125 4.25 -8.050781 3.96875 -7.90625 C 3.695312 -7.769531 3.472656 -7.546875 3.296875 -7.234375 C 3.128906 -6.929688 3.039062 -6.535156 3.03125 -6.046875 C 3.019531 -5.648438 3.015625 -5.269531 3.015625 -4.90625 C 3.015625 -4.550781 3.019531 -4.164062 3.03125 -3.75 C 3.050781 -3.019531 3.234375 -2.492188 3.578125 -2.171875 C 3.929688 -1.847656 4.378906 -1.6875 4.921875 -1.6875 Z M 4.921875 -1.6875 "/></g></g></g><g fill="#563a2c" fill-opacity="1"><g transform="translate(127.24238, 272.528653)"><g><path d="M 5.046875 0.140625 C 4.222656 0.140625 3.5 0.00390625 2.875 -0.265625 C 2.257812 -0.546875 1.785156 -0.972656 1.453125 -1.546875 C 1.117188 -2.117188 0.953125 -2.847656 0.953125 -3.734375 L 0.953125 -9.453125 C 0.953125 -9.554688 0.984375 -9.640625 1.046875 -9.703125 C 1.109375 -9.765625 1.1875 -9.796875 1.28125 -9.796875 L 2.828125 -9.796875 C 2.929688 -9.796875 3.015625 -9.765625 3.078125 -9.703125 C 3.140625 -9.640625 3.171875 -9.554688 3.171875 -9.453125 L 3.171875 -3.75 C 3.171875 -3.070312 3.332031 -2.5625 3.65625 -2.21875 C 3.988281 -1.882812 4.453125 -1.71875 5.046875 -1.71875 C 5.617188 -1.71875 6.066406 -1.882812 6.390625 -2.21875 C 6.722656 -2.5625 6.890625 -3.070312 6.890625 -3.75 L 6.890625 -9.453125 C 6.890625 -9.554688 6.921875 -9.640625 6.984375 -9.703125 C 7.054688 -9.765625 7.140625 -9.796875 7.234375 -9.796875 L 8.78125 -9.796875 C 8.875 -9.796875 8.953125 -9.765625 9.015625 -9.703125 C 9.078125 -9.640625 9.109375 -9.554688 9.109375 -9.453125 L 9.109375 -3.734375 C 9.109375 -2.847656 8.941406 -2.117188 8.609375 -1.546875 C 8.285156 -0.972656 7.816406 -0.546875 7.203125 -0.265625 C 6.585938 0.00390625 5.867188 0.140625 5.046875 0.140625 Z M 5.046875 0.140625 "/></g></g></g><g fill="#563a2c" fill-opacity="1"><g transform="translate(143.602775, 272.528653)"><g><path d="M 1.375 0 C 1.28125 0 1.195312 -0.03125 1.125 -0.09375 C 1.0625 -0.164062 1.03125 -0.25 1.03125 -0.34375 L 1.03125 -9.453125 C 1.03125 -9.554688 1.0625 -9.640625 1.125 -9.703125 C 1.195312 -9.765625 1.28125 -9.796875 1.375 -9.796875 L 5.09375 -9.796875 C 6.257812 -9.796875 7.175781 -9.523438 7.84375 -8.984375 C 8.519531 -8.453125 8.859375 -7.679688 8.859375 -6.671875 C 8.859375 -5.992188 8.691406 -5.425781 8.359375 -4.96875 C 8.035156 -4.507812 7.601562 -4.171875 7.0625 -3.953125 L 9.046875 -0.453125 C 9.078125 -0.390625 9.09375 -0.335938 9.09375 -0.296875 C 9.09375 -0.222656 9.0625 -0.15625 9 -0.09375 C 8.9375 -0.03125 8.867188 0 8.796875 0 L 7.21875 0 C 7.050781 0 6.925781 -0.0390625 6.84375 -0.125 C 6.757812 -0.21875 6.695312 -0.300781 6.65625 -0.375 L 4.953125 -3.578125 L 3.265625 -3.578125 L 3.265625 -0.34375 C 3.265625 -0.25 3.226562 -0.164062 3.15625 -0.09375 C 3.09375 -0.03125 3.007812 0 2.90625 0 Z M 3.265625 -5.359375 L 5.0625 -5.359375 C 5.570312 -5.359375 5.945312 -5.472656 6.1875 -5.703125 C 6.4375 -5.941406 6.5625 -6.269531 6.5625 -6.6875 C 6.5625 -7.113281 6.441406 -7.445312 6.203125 -7.6875 C 5.960938 -7.925781 5.582031 -8.046875 5.0625 -8.046875 L 3.265625 -8.046875 Z M 3.265625 -5.359375 "/></g></g></g><g fill="#563a2c" fill-opacity="1"><g transform="translate(159.445466, 272.528653)"><g/></g></g><g fill="#563a2c" fill-opacity="1"><g transform="translate(168.837751, 272.528653)"><g><path d="M 1.375 0 C 1.28125 0 1.195312 -0.03125 1.125 -0.09375 C 1.0625 -0.164062 1.03125 -0.25 1.03125 -0.34375 L 1.03125 -9.453125 C 1.03125 -9.554688 1.0625 -9.640625 1.125 -9.703125 C 1.195312 -9.765625 1.28125 -9.796875 1.375 -9.796875 L 2.953125 -9.796875 C 3.046875 -9.796875 3.125 -9.765625 3.1875 -9.703125 C 3.257812 -9.640625 3.296875 -9.554688 3.296875 -9.453125 L 3.296875 -1.890625 L 7.625 -1.890625 C 7.726562 -1.890625 7.8125 -1.851562 7.875 -1.78125 C 7.945312 -1.71875 7.984375 -1.640625 7.984375 -1.546875 L 7.984375 -0.34375 C 7.984375 -0.25 7.945312 -0.164062 7.875 -0.09375 C 7.8125 -0.03125 7.726562 0 7.625 0 Z M 1.375 0 "/></g></g></g><g fill="#563a2c" fill-opacity="1"><g transform="translate(183.365172, 272.528653)"><g><path d="M 1.375 0 C 1.28125 0 1.195312 -0.03125 1.125 -0.09375 C 1.0625 -0.164062 1.03125 -0.25 1.03125 -0.34375 L 1.03125 -9.453125 C 1.03125 -9.554688 1.0625 -9.640625 1.125 -9.703125 C 1.195312 -9.765625 1.28125 -9.796875 1.375 -9.796875 L 7.734375 -9.796875 C 7.828125 -9.796875 7.90625 -9.765625 7.96875 -9.703125 C 8.039062 -9.640625 8.078125 -9.554688 8.078125 -9.453125 L 8.078125 -8.328125 C 8.078125 -8.222656 8.039062 -8.140625 7.96875 -8.078125 C 7.90625 -8.015625 7.828125 -7.984375 7.734375 -7.984375 L 3.1875 -7.984375 L 3.1875 -5.796875 L 7.421875 -5.796875 C 7.523438 -5.796875 7.609375 -5.757812 7.671875 -5.6875 C 7.734375 -5.625 7.765625 -5.546875 7.765625 -5.453125 L 7.765625 -4.40625 C 7.765625 -4.3125 7.734375 -4.226562 7.671875 -4.15625 C 7.609375 -4.09375 7.523438 -4.0625 7.421875 -4.0625 L 3.1875 -4.0625 L 3.1875 -1.8125 L 7.84375 -1.8125 C 7.945312 -1.8125 8.03125 -1.78125 8.09375 -1.71875 C 8.15625 -1.65625 8.1875 -1.570312 8.1875 -1.46875 L 8.1875 -0.34375 C 8.1875 -0.25 8.15625 -0.164062 8.09375 -0.09375 C 8.03125 -0.03125 7.945312 0 7.84375 0 Z M 1.375 0 "/></g></g></g><g fill="#563a2c" fill-opacity="1"><g transform="translate(198.494255, 272.528653)"><g><path d="M 4.5625 0.140625 C 3.664062 0.140625 2.914062 0.0078125 2.3125 -0.25 C 1.707031 -0.507812 1.25 -0.847656 0.9375 -1.265625 C 0.632812 -1.691406 0.476562 -2.144531 0.46875 -2.625 C 0.46875 -2.707031 0.492188 -2.773438 0.546875 -2.828125 C 0.597656 -2.878906 0.664062 -2.90625 0.75 -2.90625 L 2.265625 -2.90625 C 2.390625 -2.90625 2.484375 -2.878906 2.546875 -2.828125 C 2.609375 -2.785156 2.671875 -2.726562 2.734375 -2.65625 C 2.796875 -2.488281 2.898438 -2.328125 3.046875 -2.171875 C 3.191406 -2.023438 3.382812 -1.90625 3.625 -1.8125 C 3.875 -1.726562 4.1875 -1.6875 4.5625 -1.6875 C 5.164062 -1.6875 5.617188 -1.78125 5.921875 -1.96875 C 6.234375 -2.164062 6.390625 -2.429688 6.390625 -2.765625 C 6.390625 -3.003906 6.304688 -3.195312 6.140625 -3.34375 C 5.972656 -3.488281 5.710938 -3.625 5.359375 -3.75 C 5.015625 -3.875 4.550781 -4 3.96875 -4.125 C 3.269531 -4.289062 2.675781 -4.488281 2.1875 -4.71875 C 1.695312 -4.957031 1.328125 -5.265625 1.078125 -5.640625 C 0.835938 -6.023438 0.71875 -6.5 0.71875 -7.0625 C 0.71875 -7.613281 0.867188 -8.109375 1.171875 -8.546875 C 1.484375 -8.984375 1.914062 -9.320312 2.46875 -9.5625 C 3.03125 -9.8125 3.703125 -9.9375 4.484375 -9.9375 C 5.109375 -9.9375 5.660156 -9.851562 6.140625 -9.6875 C 6.617188 -9.519531 7.019531 -9.300781 7.34375 -9.03125 C 7.664062 -8.757812 7.910156 -8.46875 8.078125 -8.15625 C 8.242188 -7.851562 8.332031 -7.554688 8.34375 -7.265625 C 8.34375 -7.179688 8.316406 -7.109375 8.265625 -7.046875 C 8.210938 -6.984375 8.140625 -6.953125 8.046875 -6.953125 L 6.484375 -6.953125 C 6.390625 -6.953125 6.304688 -6.96875 6.234375 -7 C 6.160156 -7.039062 6.09375 -7.109375 6.03125 -7.203125 C 5.988281 -7.460938 5.828125 -7.679688 5.546875 -7.859375 C 5.273438 -8.035156 4.921875 -8.125 4.484375 -8.125 C 4.023438 -8.125 3.660156 -8.039062 3.390625 -7.875 C 3.128906 -7.707031 3 -7.453125 3 -7.109375 C 3 -6.890625 3.066406 -6.703125 3.203125 -6.546875 C 3.347656 -6.390625 3.578125 -6.253906 3.890625 -6.140625 C 4.210938 -6.023438 4.644531 -5.898438 5.1875 -5.765625 C 5.988281 -5.597656 6.644531 -5.394531 7.15625 -5.15625 C 7.675781 -4.914062 8.054688 -4.613281 8.296875 -4.25 C 8.546875 -3.882812 8.671875 -3.421875 8.671875 -2.859375 C 8.671875 -2.234375 8.492188 -1.695312 8.140625 -1.25 C 7.796875 -0.800781 7.316406 -0.457031 6.703125 -0.21875 C 6.085938 0.0195312 5.375 0.140625 4.5625 0.140625 Z M 4.5625 0.140625 "/></g></g></g><g fill="#563a2c" fill-opacity="1"><g transform="translate(213.917171, 272.528653)"><g/></g></g><g fill="#563a2c" fill-opacity="1"><g transform="translate(223.309451, 272.528653)"><g><path d="M 4.921875 0.140625 C 4.054688 0.140625 3.316406 -0.00390625 2.703125 -0.296875 C 2.085938 -0.585938 1.609375 -1.015625 1.265625 -1.578125 C 0.929688 -2.148438 0.75 -2.84375 0.71875 -3.65625 C 0.707031 -4.039062 0.703125 -4.453125 0.703125 -4.890625 C 0.703125 -5.328125 0.707031 -5.742188 0.71875 -6.140625 C 0.75 -6.941406 0.9375 -7.625 1.28125 -8.1875 C 1.625 -8.757812 2.101562 -9.191406 2.71875 -9.484375 C 3.332031 -9.785156 4.066406 -9.9375 4.921875 -9.9375 C 5.554688 -9.9375 6.128906 -9.859375 6.640625 -9.703125 C 7.148438 -9.546875 7.59375 -9.316406 7.96875 -9.015625 C 8.34375 -8.710938 8.632812 -8.359375 8.84375 -7.953125 C 9.050781 -7.554688 9.160156 -7.113281 9.171875 -6.625 C 9.179688 -6.539062 9.15625 -6.46875 9.09375 -6.40625 C 9.03125 -6.351562 8.957031 -6.328125 8.875 -6.328125 L 7.265625 -6.328125 C 7.148438 -6.328125 7.0625 -6.351562 7 -6.40625 C 6.9375 -6.457031 6.882812 -6.546875 6.84375 -6.671875 C 6.707031 -7.234375 6.472656 -7.613281 6.140625 -7.8125 C 5.816406 -8.019531 5.410156 -8.125 4.921875 -8.125 C 4.359375 -8.125 3.90625 -7.960938 3.5625 -7.640625 C 3.226562 -7.328125 3.050781 -6.804688 3.03125 -6.078125 C 3 -5.304688 3 -4.519531 3.03125 -3.71875 C 3.050781 -2.988281 3.226562 -2.46875 3.5625 -2.15625 C 3.90625 -1.84375 4.359375 -1.6875 4.921875 -1.6875 C 5.410156 -1.6875 5.820312 -1.785156 6.15625 -1.984375 C 6.488281 -2.191406 6.71875 -2.570312 6.84375 -3.125 C 6.882812 -3.25 6.9375 -3.335938 7 -3.390625 C 7.0625 -3.441406 7.148438 -3.46875 7.265625 -3.46875 L 8.875 -3.46875 C 8.957031 -3.46875 9.03125 -3.4375 9.09375 -3.375 C 9.15625 -3.320312 9.179688 -3.253906 9.171875 -3.171875 C 9.160156 -2.679688 9.050781 -2.234375 8.84375 -1.828125 C 8.632812 -1.429688 8.34375 -1.082031 7.96875 -0.78125 C 7.59375 -0.488281 7.148438 -0.257812 6.640625 -0.09375 C 6.128906 0.0625 5.554688 0.140625 4.921875 0.140625 Z M 4.921875 0.140625 "/></g></g></g><g fill="#563a2c" fill-opacity="1"><g transform="translate(239.306047, 272.528653)"><g><path d="M 0.46875 0 C 0.382812 0 0.3125 -0.03125 0.25 -0.09375 C 0.195312 -0.15625 0.171875 -0.222656 0.171875 -0.296875 C 0.171875 -0.335938 0.175781 -0.378906 0.1875 -0.421875 L 3.515625 -9.421875 C 3.546875 -9.523438 3.601562 -9.613281 3.6875 -9.6875 C 3.769531 -9.757812 3.882812 -9.796875 4.03125 -9.796875 L 5.828125 -9.796875 C 5.972656 -9.796875 6.085938 -9.757812 6.171875 -9.6875 C 6.253906 -9.613281 6.316406 -9.523438 6.359375 -9.421875 L 9.671875 -0.421875 C 9.691406 -0.378906 9.703125 -0.335938 9.703125 -0.296875 C 9.703125 -0.222656 9.671875 -0.15625 9.609375 -0.09375 C 9.546875 -0.03125 9.472656 0 9.390625 0 L 7.921875 0 C 7.796875 0 7.695312 -0.03125 7.625 -0.09375 C 7.5625 -0.164062 7.519531 -0.226562 7.5 -0.28125 L 6.90625 -1.84375 L 2.953125 -1.84375 L 2.359375 -0.28125 C 2.335938 -0.226562 2.296875 -0.164062 2.234375 -0.09375 C 2.171875 -0.03125 2.070312 0 1.9375 0 Z M 3.484375 -3.65625 L 6.375 -3.65625 L 4.921875 -7.671875 Z M 3.484375 -3.65625 "/></g></g></g><g fill="#563a2c" fill-opacity="1"><g transform="translate(255.456555, 272.528653)"><g><path d="M 3.546875 0 C 3.441406 0 3.351562 -0.03125 3.28125 -0.09375 C 3.21875 -0.164062 3.1875 -0.25 3.1875 -0.34375 L 3.1875 -7.84375 L 0.640625 -7.84375 C 0.546875 -7.84375 0.46875 -7.875 0.40625 -7.9375 C 0.34375 -8 0.3125 -8.082031 0.3125 -8.1875 L 0.3125 -9.453125 C 0.3125 -9.554688 0.34375 -9.640625 0.40625 -9.703125 C 0.46875 -9.765625 0.546875 -9.796875 0.640625 -9.796875 L 7.984375 -9.796875 C 8.085938 -9.796875 8.171875 -9.765625 8.234375 -9.703125 C 8.296875 -9.640625 8.328125 -9.554688 8.328125 -9.453125 L 8.328125 -8.1875 C 8.328125 -8.082031 8.296875 -8 8.234375 -7.9375 C 8.171875 -7.875 8.085938 -7.84375 7.984375 -7.84375 L 5.453125 -7.84375 L 5.453125 -0.34375 C 5.453125 -0.25 5.414062 -0.164062 5.34375 -0.09375 C 5.28125 -0.03125 5.195312 0 5.09375 0 Z M 3.546875 0 "/></g></g></g><g fill="#563a2c" fill-opacity="1"><g transform="translate(270.389743, 272.528653)"><g><path d="M 4.5625 0.140625 C 3.664062 0.140625 2.914062 0.0078125 2.3125 -0.25 C 1.707031 -0.507812 1.25 -0.847656 0.9375 -1.265625 C 0.632812 -1.691406 0.476562 -2.144531 0.46875 -2.625 C 0.46875 -2.707031 0.492188 -2.773438 0.546875 -2.828125 C 0.597656 -2.878906 0.664062 -2.90625 0.75 -2.90625 L 2.265625 -2.90625 C 2.390625 -2.90625 2.484375 -2.878906 2.546875 -2.828125 C 2.609375 -2.785156 2.671875 -2.726562 2.734375 -2.65625 C 2.796875 -2.488281 2.898438 -2.328125 3.046875 -2.171875 C 3.191406 -2.023438 3.382812 -1.90625 3.625 -1.8125 C 3.875 -1.726562 4.1875 -1.6875 4.5625 -1.6875 C 5.164062 -1.6875 5.617188 -1.78125 5.921875 -1.96875 C 6.234375 -2.164062 6.390625 -2.429688 6.390625 -2.765625 C 6.390625 -3.003906 6.304688 -3.195312 6.140625 -3.34375 C 5.972656 -3.488281 5.710938 -3.625 5.359375 -3.75 C 5.015625 -3.875 4.550781 -4 3.96875 -4.125 C 3.269531 -4.289062 2.675781 -4.488281 2.1875 -4.71875 C 1.695312 -4.957031 1.328125 -5.265625 1.078125 -5.640625 C 0.835938 -6.023438 0.71875 -6.5 0.71875 -7.0625 C 0.71875 -7.613281 0.867188 -8.109375 1.171875 -8.546875 C 1.484375 -8.984375 1.914062 -9.320312 2.46875 -9.5625 C 3.03125 -9.8125 3.703125 -9.9375 4.484375 -9.9375 C 5.109375 -9.9375 5.660156 -9.851562 6.140625 -9.6875 C 6.617188 -9.519531 7.019531 -9.300781 7.34375 -9.03125 C 7.664062 -8.757812 7.910156 -8.46875 8.078125 -8.15625 C 8.242188 -7.851562 8.332031 -7.554688 8.34375 -7.265625 C 8.34375 -7.179688 8.316406 -7.109375 8.265625 -7.046875 C 8.210938 -6.984375 8.140625 -6.953125 8.046875 -6.953125 L 6.484375 -6.953125 C 6.390625 -6.953125 6.304688 -6.96875 6.234375 -7 C 6.160156 -7.039062 6.09375 -7.109375 6.03125 -7.203125 C 5.988281 -7.460938 5.828125 -7.679688 5.546875 -7.859375 C 5.273438 -8.035156 4.921875 -8.125 4.484375 -8.125 C 4.023438 -8.125 3.660156 -8.039062 3.390625 -7.875 C 3.128906 -7.707031 3 -7.453125 3 -7.109375 C 3 -6.890625 3.066406 -6.703125 3.203125 -6.546875 C 3.347656 -6.390625 3.578125 -6.253906 3.890625 -6.140625 C 4.210938 -6.023438 4.644531 -5.898438 5.1875 -5.765625 C 5.988281 -5.597656 6.644531 -5.394531 7.15625 -5.15625 C 7.675781 -4.914062 8.054688 -4.613281 8.296875 -4.25 C 8.546875 -3.882812 8.671875 -3.421875 8.671875 -2.859375 C 8.671875 -2.234375 8.492188 -1.695312 8.140625 -1.25 C 7.796875 -0.800781 7.316406 -0.457031 6.703125 -0.21875 C 6.085938 0.0195312 5.375 0.140625 4.5625 0.140625 Z M 4.5625 0.140625 "/></g></g></g><g fill="#563a2c" fill-opacity="1"><g transform="translate(144.185634, 289.028652)"><g><path d="M 1.375 0 C 1.28125 0 1.195312 -0.03125 1.125 -0.09375 C 1.0625 -0.164062 1.03125 -0.25 1.03125 -0.34375 L 1.03125 -9.453125 C 1.03125 -9.554688 1.0625 -9.640625 1.125 -9.703125 C 1.195312 -9.765625 1.28125 -9.796875 1.375 -9.796875 L 2.953125 -9.796875 C 3.046875 -9.796875 3.125 -9.765625 3.1875 -9.703125 C 3.257812 -9.640625 3.296875 -9.554688 3.296875 -9.453125 L 3.296875 -1.890625 L 7.625 -1.890625 C 7.726562 -1.890625 7.8125 -1.851562 7.875 -1.78125 C 7.945312 -1.71875 7.984375 -1.640625 7.984375 -1.546875 L 7.984375 -0.34375 C 7.984375 -0.25 7.945312 -0.164062 7.875 -0.09375 C 7.8125 -0.03125 7.726562 0 7.625 0 Z M 1.375 0 "/></g></g></g><g fill="#563a2c" fill-opacity="1"><g transform="translate(158.713053, 289.028652)"><g><path d="M 4.921875 0.140625 C 4.078125 0.140625 3.347656 0 2.734375 -0.28125 C 2.117188 -0.5625 1.632812 -0.984375 1.28125 -1.546875 C 0.9375 -2.109375 0.753906 -2.820312 0.734375 -3.6875 C 0.722656 -4.082031 0.71875 -4.476562 0.71875 -4.875 C 0.71875 -5.269531 0.722656 -5.675781 0.734375 -6.09375 C 0.753906 -6.925781 0.9375 -7.628906 1.28125 -8.203125 C 1.632812 -8.785156 2.125 -9.21875 2.75 -9.5 C 3.375 -9.789062 4.097656 -9.9375 4.921875 -9.9375 C 5.742188 -9.9375 6.460938 -9.789062 7.078125 -9.5 C 7.703125 -9.21875 8.191406 -8.785156 8.546875 -8.203125 C 8.910156 -7.628906 9.101562 -6.925781 9.125 -6.09375 C 9.144531 -5.675781 9.15625 -5.269531 9.15625 -4.875 C 9.15625 -4.476562 9.144531 -4.082031 9.125 -3.6875 C 9.101562 -2.820312 8.914062 -2.109375 8.5625 -1.546875 C 8.207031 -0.984375 7.722656 -0.5625 7.109375 -0.28125 C 6.492188 0 5.765625 0.140625 4.921875 0.140625 Z M 4.921875 -1.6875 C 5.460938 -1.6875 5.910156 -1.847656 6.265625 -2.171875 C 6.617188 -2.492188 6.800781 -3.019531 6.8125 -3.75 C 6.832031 -4.164062 6.84375 -4.550781 6.84375 -4.90625 C 6.84375 -5.269531 6.832031 -5.648438 6.8125 -6.046875 C 6.800781 -6.535156 6.710938 -6.929688 6.546875 -7.234375 C 6.378906 -7.546875 6.15625 -7.769531 5.875 -7.90625 C 5.601562 -8.050781 5.285156 -8.125 4.921875 -8.125 C 4.566406 -8.125 4.25 -8.050781 3.96875 -7.90625 C 3.695312 -7.769531 3.472656 -7.546875 3.296875 -7.234375 C 3.128906 -6.929688 3.039062 -6.535156 3.03125 -6.046875 C 3.019531 -5.648438 3.015625 -5.269531 3.015625 -4.90625 C 3.015625 -4.550781 3.019531 -4.164062 3.03125 -3.75 C 3.050781 -3.019531 3.234375 -2.492188 3.578125 -2.171875 C 3.929688 -1.847656 4.378906 -1.6875 4.921875 -1.6875 Z M 4.921875 -1.6875 "/></g></g></g><g fill="#563a2c" fill-opacity="1"><g transform="translate(174.849569, 289.028652)"><g><path d="M 3.859375 0 C 3.710938 0 3.59375 -0.0351562 3.5 -0.109375 C 3.40625 -0.191406 3.335938 -0.289062 3.296875 -0.40625 L 0.375 -9.375 C 0.363281 -9.425781 0.359375 -9.46875 0.359375 -9.5 C 0.359375 -9.582031 0.382812 -9.648438 0.4375 -9.703125 C 0.5 -9.765625 0.570312 -9.796875 0.65625 -9.796875 L 2.140625 -9.796875 C 2.285156 -9.796875 2.394531 -9.753906 2.46875 -9.671875 C 2.550781 -9.597656 2.601562 -9.53125 2.625 -9.46875 L 4.78125 -2.625 L 6.953125 -9.46875 C 6.972656 -9.53125 7.019531 -9.597656 7.09375 -9.671875 C 7.164062 -9.753906 7.28125 -9.796875 7.4375 -9.796875 L 8.921875 -9.796875 C 8.992188 -9.796875 9.0625 -9.765625 9.125 -9.703125 C 9.1875 -9.648438 9.21875 -9.582031 9.21875 -9.5 C 9.21875 -9.46875 9.207031 -9.425781 9.1875 -9.375 L 6.265625 -0.40625 C 6.222656 -0.289062 6.15625 -0.191406 6.0625 -0.109375 C 5.976562 -0.0351562 5.859375 0 5.703125 0 Z M 3.859375 0 "/></g></g></g><g fill="#563a2c" fill-opacity="1"><g transform="translate(190.706241, 289.028652)"><g><path d="M 1.375 0 C 1.28125 0 1.195312 -0.03125 1.125 -0.09375 C 1.0625 -0.164062 1.03125 -0.25 1.03125 -0.34375 L 1.03125 -9.453125 C 1.03125 -9.554688 1.0625 -9.640625 1.125 -9.703125 C 1.195312 -9.765625 1.28125 -9.796875 1.375 -9.796875 L 7.734375 -9.796875 C 7.828125 -9.796875 7.90625 -9.765625 7.96875 -9.703125 C 8.039062 -9.640625 8.078125 -9.554688 8.078125 -9.453125 L 8.078125 -8.328125 C 8.078125 -8.222656 8.039062 -8.140625 7.96875 -8.078125 C 7.90625 -8.015625 7.828125 -7.984375 7.734375 -7.984375 L 3.1875 -7.984375 L 3.1875 -5.796875 L 7.421875 -5.796875 C 7.523438 -5.796875 7.609375 -5.757812 7.671875 -5.6875 C 7.734375 -5.625 7.765625 -5.546875 7.765625 -5.453125 L 7.765625 -4.40625 C 7.765625 -4.3125 7.734375 -4.226562 7.671875 -4.15625 C 7.609375 -4.09375 7.523438 -4.0625 7.421875 -4.0625 L 3.1875 -4.0625 L 3.1875 -1.8125 L 7.84375 -1.8125 C 7.945312 -1.8125 8.03125 -1.78125 8.09375 -1.71875 C 8.15625 -1.65625 8.1875 -1.570312 8.1875 -1.46875 L 8.1875 -0.34375 C 8.1875 -0.25 8.15625 -0.164062 8.09375 -0.09375 C 8.03125 -0.03125 7.945312 0 7.84375 0 Z M 1.375 0 "/></g></g></g><g fill="#563a2c" fill-opacity="1"><g transform="translate(205.835324, 289.028652)"><g><path d="M 1.375 0 C 1.28125 0 1.195312 -0.03125 1.125 -0.09375 C 1.0625 -0.164062 1.03125 -0.25 1.03125 -0.34375 L 1.03125 -9.453125 C 1.03125 -9.554688 1.0625 -9.640625 1.125 -9.703125 C 1.195312 -9.765625 1.28125 -9.796875 1.375 -9.796875 L 5.09375 -9.796875 C 6.257812 -9.796875 7.175781 -9.523438 7.84375 -8.984375 C 8.519531 -8.453125 8.859375 -7.679688 8.859375 -6.671875 C 8.859375 -5.992188 8.691406 -5.425781 8.359375 -4.96875 C 8.035156 -4.507812 7.601562 -4.171875 7.0625 -3.953125 L 9.046875 -0.453125 C 9.078125 -0.390625 9.09375 -0.335938 9.09375 -0.296875 C 9.09375 -0.222656 9.0625 -0.15625 9 -0.09375 C 8.9375 -0.03125 8.867188 0 8.796875 0 L 7.21875 0 C 7.050781 0 6.925781 -0.0390625 6.84375 -0.125 C 6.757812 -0.21875 6.695312 -0.300781 6.65625 -0.375 L 4.953125 -3.578125 L 3.265625 -3.578125 L 3.265625 -0.34375 C 3.265625 -0.25 3.226562 -0.164062 3.15625 -0.09375 C 3.09375 -0.03125 3.007812 0 2.90625 0 Z M 3.265625 -5.359375 L 5.0625 -5.359375 C 5.570312 -5.359375 5.945312 -5.472656 6.1875 -5.703125 C 6.4375 -5.941406 6.5625 -6.269531 6.5625 -6.6875 C 6.5625 -7.113281 6.441406 -7.445312 6.203125 -7.6875 C 5.960938 -7.925781 5.582031 -8.046875 5.0625 -8.046875 L 3.265625 -8.046875 Z M 3.265625 -5.359375 "/></g></g></g><g fill="#563a2c" fill-opacity="1"><g transform="translate(221.678015, 289.028652)"><g><path d="M 4.5625 0.140625 C 3.664062 0.140625 2.914062 0.0078125 2.3125 -0.25 C 1.707031 -0.507812 1.25 -0.847656 0.9375 -1.265625 C 0.632812 -1.691406 0.476562 -2.144531 0.46875 -2.625 C 0.46875 -2.707031 0.492188 -2.773438 0.546875 -2.828125 C 0.597656 -2.878906 0.664062 -2.90625 0.75 -2.90625 L 2.265625 -2.90625 C 2.390625 -2.90625 2.484375 -2.878906 2.546875 -2.828125 C 2.609375 -2.785156 2.671875 -2.726562 2.734375 -2.65625 C 2.796875 -2.488281 2.898438 -2.328125 3.046875 -2.171875 C 3.191406 -2.023438 3.382812 -1.90625 3.625 -1.8125 C 3.875 -1.726562 4.1875 -1.6875 4.5625 -1.6875 C 5.164062 -1.6875 5.617188 -1.78125 5.921875 -1.96875 C 6.234375 -2.164062 6.390625 -2.429688 6.390625 -2.765625 C 6.390625 -3.003906 6.304688 -3.195312 6.140625 -3.34375 C 5.972656 -3.488281 5.710938 -3.625 5.359375 -3.75 C 5.015625 -3.875 4.550781 -4 3.96875 -4.125 C 3.269531 -4.289062 2.675781 -4.488281 2.1875 -4.71875 C 1.695312 -4.957031 1.328125 -5.265625 1.078125 -5.640625 C 0.835938 -6.023438 0.71875 -6.5 0.71875 -7.0625 C 0.71875 -7.613281 0.867188 -8.109375 1.171875 -8.546875 C 1.484375 -8.984375 1.914062 -9.320312 2.46875 -9.5625 C 3.03125 -9.8125 3.703125 -9.9375 4.484375 -9.9375 C 5.109375 -9.9375 5.660156 -9.851562 6.140625 -9.6875 C 6.617188 -9.519531 7.019531 -9.300781 7.34375 -9.03125 C 7.664062 -8.757812 7.910156 -8.46875 8.078125 -8.15625 C 8.242188 -7.851562 8.332031 -7.554688 8.34375 -7.265625 C 8.34375 -7.179688 8.316406 -7.109375 8.265625 -7.046875 C 8.210938 -6.984375 8.140625 -6.953125 8.046875 -6.953125 L 6.484375 -6.953125 C 6.390625 -6.953125 6.304688 -6.96875 6.234375 -7 C 6.160156 -7.039062 6.09375 -7.109375 6.03125 -7.203125 C 5.988281 -7.460938 5.828125 -7.679688 5.546875 -7.859375 C 5.273438 -8.035156 4.921875 -8.125 4.484375 -8.125 C 4.023438 -8.125 3.660156 -8.039062 3.390625 -7.875 C 3.128906 -7.707031 3 -7.453125 3 -7.109375 C 3 -6.890625 3.066406 -6.703125 3.203125 -6.546875 C 3.347656 -6.390625 3.578125 -6.253906 3.890625 -6.140625 C 4.210938 -6.023438 4.644531 -5.898438 5.1875 -5.765625 C 5.988281 -5.597656 6.644531 -5.394531 7.15625 -5.15625 C 7.675781 -4.914062 8.054688 -4.613281 8.296875 -4.25 C 8.546875 -3.882812 8.671875 -3.421875 8.671875 -2.859375 C 8.671875 -2.234375 8.492188 -1.695312 8.140625 -1.25 C 7.796875 -0.800781 7.316406 -0.457031 6.703125 -0.21875 C 6.085938 0.0195312 5.375 0.140625 4.5625 0.140625 Z M 4.5625 0.140625 "/></g></g></g><g fill="#563a2c" fill-opacity="1"><g transform="translate(104.520445, 250.037372)"><g><path d="M 7.375 -22.34375 C 7.800781 -22.59375 8.453125 -22.832031 9.328125 -23.0625 C 10.203125 -23.289062 11.082031 -23.40625 11.96875 -23.40625 C 13.238281 -23.40625 14.359375 -23.222656 15.328125 -22.859375 C 16.304688 -22.492188 16.9375 -21.914062 17.21875 -21.125 C 17.664062 -19.8125 18.15625 -18.28125 18.6875 -16.53125 C 19.226562 -14.78125 19.765625 -12.972656 20.296875 -11.109375 C 20.828125 -9.253906 21.34375 -7.421875 21.84375 -5.609375 C 22.351562 -3.796875 22.800781 -2.191406 23.1875 -0.796875 C 22.875 -0.441406 22.414062 -0.160156 21.8125 0.046875 C 21.207031 0.265625 20.484375 0.375 19.640625 0.375 C 19.035156 0.375 18.523438 0.320312 18.109375 0.21875 C 17.691406 0.125 17.347656 -0.0195312 17.078125 -0.21875 C 16.816406 -0.425781 16.601562 -0.691406 16.4375 -1.015625 C 16.269531 -1.347656 16.125 -1.734375 16 -2.171875 L 15.3125 -4.78125 L 8.4375 -4.78125 C 8.226562 -4.019531 8.023438 -3.234375 7.828125 -2.421875 C 7.628906 -1.617188 7.425781 -0.835938 7.21875 -0.078125 C 6.863281 0.046875 6.488281 0.148438 6.09375 0.234375 C 5.707031 0.328125 5.234375 0.375 4.671875 0.375 C 3.378906 0.375 2.421875 0.15625 1.796875 -0.28125 C 1.179688 -0.726562 0.875 -1.34375 0.875 -2.125 C 0.875 -2.476562 0.921875 -2.832031 1.015625 -3.1875 C 1.117188 -3.539062 1.238281 -3.960938 1.375 -4.453125 C 1.550781 -5.128906 1.796875 -5.972656 2.109375 -6.984375 C 2.421875 -8.003906 2.765625 -9.101562 3.140625 -10.28125 C 3.523438 -11.457031 3.929688 -12.664062 4.359375 -13.90625 C 4.796875 -15.144531 5.203125 -16.316406 5.578125 -17.421875 C 5.960938 -18.523438 6.3125 -19.503906 6.625 -20.359375 C 6.945312 -21.222656 7.195312 -21.882812 7.375 -22.34375 Z M 11.9375 -17.4375 C 11.582031 -16.375 11.179688 -15.191406 10.734375 -13.890625 C 10.285156 -12.585938 9.882812 -11.265625 9.53125 -9.921875 L 14.25 -9.921875 C 13.894531 -11.285156 13.53125 -12.617188 13.15625 -13.921875 C 12.789062 -15.234375 12.457031 -16.40625 12.15625 -17.4375 Z M 11.9375 -17.4375 "/></g></g></g><g fill="#563a2c" fill-opacity="1"><g transform="translate(126.061572, 250.037372)"><g><path d="M 1.171875 -9.234375 C 1.171875 -10.898438 1.425781 -12.347656 1.9375 -13.578125 C 2.445312 -14.804688 3.148438 -15.828125 4.046875 -16.640625 C 4.941406 -17.453125 5.988281 -18.050781 7.1875 -18.4375 C 8.394531 -18.832031 9.695312 -19.03125 11.09375 -19.03125 C 11.601562 -19.03125 12.097656 -18.984375 12.578125 -18.890625 C 13.054688 -18.804688 13.445312 -18.703125 13.75 -18.578125 L 13.75 -24.734375 C 14.007812 -24.816406 14.414062 -24.898438 14.96875 -24.984375 C 15.53125 -25.078125 16.101562 -25.125 16.6875 -25.125 C 17.238281 -25.125 17.734375 -25.082031 18.171875 -25 C 18.617188 -24.925781 18.992188 -24.773438 19.296875 -24.546875 C 19.609375 -24.316406 19.835938 -24.003906 19.984375 -23.609375 C 20.140625 -23.222656 20.21875 -22.710938 20.21875 -22.078125 L 20.21875 -4.0625 C 20.21875 -2.875 19.660156 -1.925781 18.546875 -1.21875 C 17.804688 -0.738281 16.851562 -0.316406 15.6875 0.046875 C 14.53125 0.421875 13.191406 0.609375 11.671875 0.609375 C 10.023438 0.609375 8.546875 0.378906 7.234375 -0.078125 C 5.929688 -0.535156 4.828125 -1.191406 3.921875 -2.046875 C 3.023438 -2.910156 2.34375 -3.941406 1.875 -5.140625 C 1.40625 -6.347656 1.171875 -7.710938 1.171875 -9.234375 Z M 11.96875 -13.984375 C 10.601562 -13.984375 9.550781 -13.585938 8.8125 -12.796875 C 8.082031 -12.015625 7.71875 -10.828125 7.71875 -9.234375 C 7.71875 -7.660156 8.054688 -6.472656 8.734375 -5.671875 C 9.421875 -4.878906 10.410156 -4.484375 11.703125 -4.484375 C 12.160156 -4.484375 12.570312 -4.550781 12.9375 -4.6875 C 13.300781 -4.832031 13.585938 -4.992188 13.796875 -5.171875 L 13.796875 -13.53125 C 13.285156 -13.832031 12.675781 -13.984375 11.96875 -13.984375 Z M 11.96875 -13.984375 "/></g></g></g><g fill="#563a2c" fill-opacity="1"><g transform="translate(146.04502, 250.037372)"><g><path d="M 21.09375 -9.234375 C 21.09375 -7.660156 20.847656 -6.257812 20.359375 -5.03125 C 19.878906 -3.800781 19.203125 -2.769531 18.328125 -1.9375 C 17.460938 -1.101562 16.421875 -0.46875 15.203125 -0.03125 C 13.984375 0.394531 12.628906 0.609375 11.140625 0.609375 C 9.640625 0.609375 8.28125 0.378906 7.0625 -0.078125 C 5.851562 -0.535156 4.8125 -1.1875 3.9375 -2.03125 C 3.0625 -2.882812 2.378906 -3.914062 1.890625 -5.125 C 1.410156 -6.34375 1.171875 -7.710938 1.171875 -9.234375 C 1.171875 -10.722656 1.410156 -12.078125 1.890625 -13.296875 C 2.378906 -14.515625 3.0625 -15.546875 3.9375 -16.390625 C 4.8125 -17.242188 5.851562 -17.894531 7.0625 -18.34375 C 8.28125 -18.800781 9.640625 -19.03125 11.140625 -19.03125 C 12.628906 -19.03125 13.984375 -18.796875 15.203125 -18.328125 C 16.421875 -17.859375 17.460938 -17.203125 18.328125 -16.359375 C 19.203125 -15.515625 19.878906 -14.484375 20.359375 -13.265625 C 20.847656 -12.046875 21.09375 -10.703125 21.09375 -9.234375 Z M 7.796875 -9.234375 C 7.796875 -7.691406 8.09375 -6.507812 8.6875 -5.6875 C 9.28125 -4.863281 10.109375 -4.453125 11.171875 -4.453125 C 12.234375 -4.453125 13.050781 -4.867188 13.625 -5.703125 C 14.195312 -6.535156 14.484375 -7.710938 14.484375 -9.234375 C 14.484375 -10.753906 14.191406 -11.925781 13.609375 -12.75 C 13.023438 -13.570312 12.203125 -13.984375 11.140625 -13.984375 C 10.066406 -13.984375 9.238281 -13.570312 8.65625 -12.75 C 8.082031 -11.925781 7.796875 -10.753906 7.796875 -9.234375 Z M 7.796875 -9.234375 "/></g></g></g><g fill="#563a2c" fill-opacity="1"><g transform="translate(166.028469, 250.037372)"><g><path d="M 10.453125 -19.03125 C 11.972656 -19.03125 13.382812 -18.832031 14.6875 -18.4375 C 15.988281 -18.050781 17.109375 -17.453125 18.046875 -16.640625 C 18.984375 -15.828125 19.71875 -14.804688 20.25 -13.578125 C 20.78125 -12.347656 21.046875 -10.890625 21.046875 -9.203125 C 21.046875 -7.578125 20.816406 -6.15625 20.359375 -4.9375 C 19.910156 -3.71875 19.265625 -2.695312 18.421875 -1.875 C 17.585938 -1.050781 16.582031 -0.4375 15.40625 -0.03125 C 14.226562 0.363281 12.914062 0.5625 11.46875 0.5625 C 10.382812 0.5625 9.375 0.398438 8.4375 0.078125 L 8.4375 6.390625 C 8.1875 6.460938 7.78125 6.539062 7.21875 6.625 C 6.664062 6.71875 6.097656 6.765625 5.515625 6.765625 C 4.953125 6.765625 4.445312 6.722656 4 6.640625 C 3.5625 6.566406 3.191406 6.414062 2.890625 6.1875 C 2.585938 5.96875 2.359375 5.660156 2.203125 5.265625 C 2.046875 4.867188 1.96875 4.351562 1.96875 3.71875 L 1.96875 -14.515625 C 1.96875 -15.203125 2.113281 -15.757812 2.40625 -16.1875 C 2.695312 -16.613281 3.097656 -17.003906 3.609375 -17.359375 C 4.390625 -17.867188 5.363281 -18.273438 6.53125 -18.578125 C 7.695312 -18.878906 9.003906 -19.03125 10.453125 -19.03125 Z M 10.53125 -4.515625 C 13.132812 -4.515625 14.4375 -6.078125 14.4375 -9.203125 C 14.4375 -10.816406 14.113281 -12.015625 13.46875 -12.796875 C 12.820312 -13.585938 11.890625 -13.984375 10.671875 -13.984375 C 10.191406 -13.984375 9.757812 -13.925781 9.375 -13.8125 C 9 -13.695312 8.671875 -13.5625 8.390625 -13.40625 L 8.390625 -5.046875 C 8.703125 -4.898438 9.035156 -4.773438 9.390625 -4.671875 C 9.742188 -4.566406 10.125 -4.515625 10.53125 -4.515625 Z M 10.53125 -4.515625 "/></g></g></g><g fill="#563a2c" fill-opacity="1"><g transform="translate(185.973923, 250.037372)"><g><path d="M 8.4375 -6.34375 C 8.4375 -5.6875 8.644531 -5.21875 9.0625 -4.9375 C 9.476562 -4.65625 10.066406 -4.515625 10.828125 -4.515625 C 11.210938 -4.515625 11.601562 -4.546875 12 -4.609375 C 12.40625 -4.679688 12.765625 -4.765625 13.078125 -4.859375 C 13.296875 -4.585938 13.488281 -4.28125 13.65625 -3.9375 C 13.820312 -3.59375 13.90625 -3.179688 13.90625 -2.703125 C 13.90625 -1.734375 13.539062 -0.945312 12.8125 -0.34375 C 12.09375 0.257812 10.820312 0.5625 9 0.5625 C 6.769531 0.5625 5.050781 0.0546875 3.84375 -0.953125 C 2.644531 -1.960938 2.046875 -3.609375 2.046875 -5.890625 L 2.046875 -22.15625 C 2.328125 -22.226562 2.726562 -22.304688 3.25 -22.390625 C 3.769531 -22.484375 4.320312 -22.53125 4.90625 -22.53125 C 6.019531 -22.53125 6.882812 -22.332031 7.5 -21.9375 C 8.125 -21.550781 8.4375 -20.722656 8.4375 -19.453125 L 8.4375 -17.03125 L 13.40625 -17.03125 C 13.5625 -16.75 13.707031 -16.398438 13.84375 -15.984375 C 13.988281 -15.566406 14.0625 -15.101562 14.0625 -14.59375 C 14.0625 -13.707031 13.863281 -13.066406 13.46875 -12.671875 C 13.070312 -12.273438 12.546875 -12.078125 11.890625 -12.078125 L 8.4375 -12.078125 Z M 8.4375 -6.34375 "/></g></g></g><g fill="#563a2c" fill-opacity="1"><g transform="translate(198.890818, 250.037372)"><g><path d="M 11.734375 0.609375 C 10.242188 0.609375 8.859375 0.398438 7.578125 -0.015625 C 6.296875 -0.429688 5.179688 -1.054688 4.234375 -1.890625 C 3.285156 -2.734375 2.535156 -3.785156 1.984375 -5.046875 C 1.441406 -6.316406 1.171875 -7.800781 1.171875 -9.5 C 1.171875 -11.175781 1.441406 -12.613281 1.984375 -13.8125 C 2.535156 -15.019531 3.253906 -16.007812 4.140625 -16.78125 C 5.023438 -17.550781 6.035156 -18.117188 7.171875 -18.484375 C 8.316406 -18.847656 9.484375 -19.03125 10.671875 -19.03125 C 12.015625 -19.03125 13.238281 -18.828125 14.34375 -18.421875 C 15.445312 -18.023438 16.394531 -17.46875 17.1875 -16.75 C 17.988281 -16.039062 18.609375 -15.191406 19.046875 -14.203125 C 19.492188 -13.222656 19.71875 -12.148438 19.71875 -10.984375 C 19.71875 -10.117188 19.476562 -9.457031 19 -9 C 18.519531 -8.550781 17.847656 -8.257812 16.984375 -8.125 L 7.59375 -6.71875 C 7.875 -5.882812 8.445312 -5.257812 9.3125 -4.84375 C 10.175781 -4.425781 11.164062 -4.21875 12.28125 -4.21875 C 13.3125 -4.21875 14.289062 -4.347656 15.21875 -4.609375 C 16.144531 -4.878906 16.898438 -5.191406 17.484375 -5.546875 C 17.890625 -5.296875 18.226562 -4.941406 18.5 -4.484375 C 18.78125 -4.023438 18.921875 -3.546875 18.921875 -3.046875 C 18.921875 -1.898438 18.390625 -1.050781 17.328125 -0.5 C 16.515625 -0.0625 15.601562 0.226562 14.59375 0.375 C 13.582031 0.53125 12.628906 0.609375 11.734375 0.609375 Z M 10.671875 -14.328125 C 10.066406 -14.328125 9.539062 -14.222656 9.09375 -14.015625 C 8.65625 -13.816406 8.296875 -13.554688 8.015625 -13.234375 C 7.734375 -12.921875 7.523438 -12.566406 7.390625 -12.171875 C 7.253906 -11.785156 7.171875 -11.390625 7.140625 -10.984375 L 13.640625 -12.046875 C 13.566406 -12.554688 13.285156 -13.0625 12.796875 -13.5625 C 12.316406 -14.070312 11.609375 -14.328125 10.671875 -14.328125 Z M 10.671875 -14.328125 "/></g></g></g><g fill="#563a2c" fill-opacity="1"><g transform="translate(217.468554, 250.037372)"><g><path d="M 14.21875 -18.390625 C 12.257812 -18.390625 10.757812 -17.789062 9.71875 -16.59375 C 8.6875 -15.40625 8.171875 -13.722656 8.171875 -11.546875 C 8.171875 -9.347656 8.742188 -7.648438 9.890625 -6.453125 C 11.046875 -5.265625 12.597656 -4.671875 14.546875 -4.671875 C 15.585938 -4.671875 16.46875 -4.8125 17.1875 -5.09375 C 17.914062 -5.375 18.609375 -5.691406 19.265625 -6.046875 C 19.691406 -5.691406 20.023438 -5.265625 20.265625 -4.765625 C 20.515625 -4.273438 20.640625 -3.703125 20.640625 -3.046875 C 20.640625 -2.003906 20.0625 -1.117188 18.90625 -0.390625 C 17.75 0.328125 15.992188 0.6875 13.640625 0.6875 C 11.941406 0.6875 10.34375 0.445312 8.84375 -0.03125 C 7.351562 -0.519531 6.050781 -1.265625 4.9375 -2.265625 C 3.820312 -3.265625 2.941406 -4.53125 2.296875 -6.0625 C 1.648438 -7.59375 1.328125 -9.421875 1.328125 -11.546875 C 1.328125 -13.523438 1.632812 -15.265625 2.25 -16.765625 C 2.875 -18.273438 3.722656 -19.550781 4.796875 -20.59375 C 5.878906 -21.632812 7.140625 -22.421875 8.578125 -22.953125 C 10.023438 -23.484375 11.570312 -23.75 13.21875 -23.75 C 15.550781 -23.75 17.359375 -23.367188 18.640625 -22.609375 C 19.921875 -21.847656 20.5625 -20.875 20.5625 -19.6875 C 20.5625 -19.03125 20.394531 -18.457031 20.0625 -17.96875 C 19.726562 -17.488281 19.347656 -17.109375 18.921875 -16.828125 C 18.265625 -17.265625 17.5625 -17.632812 16.8125 -17.9375 C 16.0625 -18.238281 15.195312 -18.390625 14.21875 -18.390625 Z M 14.21875 -18.390625 "/></g></g></g><g fill="#563a2c" fill-opacity="1"><g transform="translate(236.882115, 250.037372)"><g><path d="M 9.875 -4.109375 C 10.3125 -4.109375 10.785156 -4.148438 11.296875 -4.234375 C 11.816406 -4.328125 12.207031 -4.445312 12.46875 -4.59375 L 12.46875 -7.640625 L 9.734375 -7.40625 C 9.015625 -7.351562 8.425781 -7.203125 7.96875 -6.953125 C 7.519531 -6.703125 7.296875 -6.320312 7.296875 -5.8125 C 7.296875 -5.300781 7.488281 -4.890625 7.875 -4.578125 C 8.269531 -4.265625 8.9375 -4.109375 9.875 -4.109375 Z M 9.578125 -19.03125 C 10.941406 -19.03125 12.1875 -18.890625 13.3125 -18.609375 C 14.445312 -18.335938 15.410156 -17.914062 16.203125 -17.34375 C 17.003906 -16.769531 17.617188 -16.046875 18.046875 -15.171875 C 18.484375 -14.304688 18.703125 -13.273438 18.703125 -12.078125 L 18.703125 -3.578125 C 18.703125 -2.910156 18.515625 -2.367188 18.140625 -1.953125 C 17.773438 -1.535156 17.335938 -1.175781 16.828125 -0.875 C 15.179688 0.113281 12.863281 0.609375 9.875 0.609375 C 8.53125 0.609375 7.320312 0.476562 6.25 0.21875 C 5.175781 -0.03125 4.25 -0.40625 3.46875 -0.90625 C 2.695312 -1.414062 2.101562 -2.0625 1.6875 -2.84375 C 1.269531 -3.632812 1.0625 -4.550781 1.0625 -5.59375 C 1.0625 -7.332031 1.582031 -8.671875 2.625 -9.609375 C 3.664062 -10.546875 5.273438 -11.128906 7.453125 -11.359375 L 12.421875 -11.890625 L 12.421875 -12.15625 C 12.421875 -12.894531 12.097656 -13.421875 11.453125 -13.734375 C 10.804688 -14.054688 9.875 -14.21875 8.65625 -14.21875 C 7.695312 -14.21875 6.757812 -14.113281 5.84375 -13.90625 C 4.9375 -13.707031 4.113281 -13.453125 3.375 -13.140625 C 3.050781 -13.367188 2.773438 -13.71875 2.546875 -14.1875 C 2.316406 -14.65625 2.203125 -15.144531 2.203125 -15.65625 C 2.203125 -16.3125 2.359375 -16.835938 2.671875 -17.234375 C 2.992188 -17.628906 3.484375 -17.960938 4.140625 -18.234375 C 4.878906 -18.515625 5.75 -18.71875 6.75 -18.84375 C 7.75 -18.96875 8.691406 -19.03125 9.578125 -19.03125 Z M 9.578125 -19.03125 "/></g></g></g><g fill="#563a2c" fill-opacity="1"><g transform="translate(255.269886, 250.037372)"><g><path d="M 8.4375 -6.34375 C 8.4375 -5.6875 8.644531 -5.21875 9.0625 -4.9375 C 9.476562 -4.65625 10.066406 -4.515625 10.828125 -4.515625 C 11.210938 -4.515625 11.601562 -4.546875 12 -4.609375 C 12.40625 -4.679688 12.765625 -4.765625 13.078125 -4.859375 C 13.296875 -4.585938 13.488281 -4.28125 13.65625 -3.9375 C 13.820312 -3.59375 13.90625 -3.179688 13.90625 -2.703125 C 13.90625 -1.734375 13.539062 -0.945312 12.8125 -0.34375 C 12.09375 0.257812 10.820312 0.5625 9 0.5625 C 6.769531 0.5625 5.050781 0.0546875 3.84375 -0.953125 C 2.644531 -1.960938 2.046875 -3.609375 2.046875 -5.890625 L 2.046875 -22.15625 C 2.328125 -22.226562 2.726562 -22.304688 3.25 -22.390625 C 3.769531 -22.484375 4.320312 -22.53125 4.90625 -22.53125 C 6.019531 -22.53125 6.882812 -22.332031 7.5 -21.9375 C 8.125 -21.550781 8.4375 -20.722656 8.4375 -19.453125 L 8.4375 -17.03125 L 13.40625 -17.03125 C 13.5625 -16.75 13.707031 -16.398438 13.84375 -15.984375 C 13.988281 -15.566406 14.0625 -15.101562 14.0625 -14.59375 C 14.0625 -13.707031 13.863281 -13.066406 13.46875 -12.671875 C 13.070312 -12.273438 12.546875 -12.078125 11.890625 -12.078125 L 8.4375 -12.078125 Z M 8.4375 -6.34375 "/></g></g></g></svg>