<svg xmlns="http://www.w3.org/2000/svg" xmlns:xlink="http://www.w3.org/1999/xlink" width="500" zoomAndPan="magnify" viewBox="0 0 375 374.999991" height="500" preserveAspectRatio="xMidYMid meet" version="1.0"><defs><clipPath id="6ba0f9e24f"><path d="M 35 41.171875 L 336 41.171875 L 336 331 L 35 331 Z M 35 41.171875 " clip-rule="nonzero"/></clipPath></defs><g clip-path="url(#6ba0f9e24f)"><path fill="#ab9685" d="M 237.128906 41.457031 C 236.496094 41.464844 235.847656 41.496094 235.203125 41.546875 C 209.53125 45.980469 195.417969 73.125 193.371094 97.0625 C 190.382812 118.78125 199.953125 146.699219 223.804688 151.566406 C 227.261719 152.222656 230.859375 151.921875 234.238281 151.003906 C 262.957031 141.375 275.808594 107.363281 271.660156 79.191406 C 270.453125 60.996094 256.734375 41.207031 237.128906 41.457031 Z M 128.292969 42.621094 C 112.332031 43.015625 99.898438 59.203125 97.367188 74.421875 C 92.035156 104.570312 105.75 142.03125 137.160156 151.566406 C 140.101562 152.207031 143.144531 152.273438 146.117188 151.816406 C 167.347656 148.277344 176.339844 124.472656 175.453125 105.257812 C 174.816406 79.910156 161.648438 50.601562 135.324219 43.476562 C 132.917969 42.839844 130.574219 42.570312 128.292969 42.625 Z M 306.679688 128.253906 C 279.066406 129.90625 260.136719 157.457031 257.4375 183.183594 C 253.78125 201.738281 263.675781 226.558594 284.847656 228.039062 C 314.367188 227.675781 334.503906 196.128906 335.34375 168.988281 C 337.210938 151.035156 326.636719 129.246094 306.679688 128.253906 Z M 64.992188 134.367188 C 53.242188 134.265625 41.6875 141.304688 37.851562 153.246094 C 27.609375 185.191406 48.175781 225.648438 82.007812 232.363281 C 96.128906 234.78125 108.539062 223.933594 112.039062 210.886719 C 119.457031 182.980469 104.21875 150.578125 78.425781 137.910156 C 74.222656 135.554688 69.585938 134.414062 64.992188 134.371094 Z M 188.78125 191.648438 C 165.75 191.699219 142.359375 203.386719 127.445312 220.78125 C 111.339844 241.058594 98.144531 264.65625 92.980469 290.246094 C 86.710938 308.667969 100.921875 329.867188 120.613281 329.996094 C 144.304688 330.652344 164.664062 314.386719 188.21875 313.179688 C 208.207031 310.132812 226.101562 320.527344 244.070312 327.332031 C 259.367188 333.875 280.507812 331.367188 288.316406 314.902344 C 294.460938 298.121094 285.417969 280.226562 277.925781 265.324219 C 262.648438 241.132812 246.28125 215.710938 221.226562 200.605469 C 211.1875 194.382812 200.027344 191.625 188.78125 191.648438 Z M 188.78125 191.648438 " fill-opacity="1" fill-rule="nonzero"/></g></svg>