<svg width="38" height="38" viewBox="0 0 38 38" fill="none" xmlns="http://www.w3.org/2000/svg">
<path id="Vector" d="M1 32.1926V14.3326C0.999902 13.6742 1.16231 13.026 1.47282 12.4455C1.78333 11.8649 2.23234 11.37 2.78 11.0046L16.78 1.6726C17.4373 1.23404 18.2098 1 19 1C19.7902 1 20.5627 1.23404 21.22 1.6726L35.22 11.0046C35.7677 11.37 36.2167 11.8649 36.5272 12.4455C36.8377 13.026 37.0001 13.6742 37 14.3326V32.1926M1 32.1926C1 33.2535 1.42143 34.2709 2.17157 35.021C2.92172 35.7712 3.93913 36.1926 5 36.1926H33C34.0609 36.1926 35.0783 35.7712 35.8284 35.021C36.5786 34.2709 37 33.2535 37 32.1926M1 32.1926L14.5 23.1926M37 32.1926L23.5 23.1926M14.5 23.1926L1 14.1926M14.5 23.1926L16.78 24.7126C17.4373 25.1512 18.2098 25.3852 19 25.3852C19.7902 25.3852 20.5627 25.1512 21.22 24.7126L23.5 23.1926M23.5 23.1926L37 14.1926" stroke="white" stroke-width="2" stroke-linecap="round" stroke-linejoin="round"/>
</svg>
