<svg width="48" height="48" viewBox="0 0 48 48" fill="none" xmlns="http://www.w3.org/2000/svg">
<g id="Phone">
<path id="Vector" d="M4.8 7.20005C4.8 6.56353 5.05286 5.95308 5.50294 5.50299C5.95303 5.05291 6.56348 4.80005 7.2 4.80005H12.3672C12.9353 4.80031 13.4849 5.00208 13.9182 5.36947C14.3515 5.73686 14.6404 6.24605 14.7336 6.80645L16.5096 17.4504C16.5945 17.9574 16.5143 18.4781 16.281 18.9361C16.0477 19.3941 15.6736 19.7651 15.2136 19.9945L11.4984 21.8496C12.8307 25.1512 14.8148 28.1503 17.3323 30.6678C19.8497 33.1853 22.8488 35.1694 26.1504 36.5016L28.008 32.7865C28.2373 32.3269 28.6078 31.9531 29.0653 31.7198C29.5228 31.4865 30.043 31.4061 30.5496 31.4904L41.1936 33.2665C41.754 33.3596 42.2632 33.6486 42.6306 34.0819C42.998 34.5152 43.1997 35.0648 43.2 35.6329V40.8C43.2 41.4366 42.9471 42.047 42.4971 42.4971C42.047 42.9472 41.4365 43.2001 40.8 43.2001H36C18.768 43.2001 4.8 29.232 4.8 12V7.20005Z" fill="white"/>
</g>
</svg>
